<ttFont>
          <CharString index="0">
            161 206 rmoveto
            98 -21 79 -92 23 -93 rrcurveto
            16 40 104 9 79 hhcurveto
            80 106 -9 -16 22 hvcurveto
            24 62 105 90 111 20 rrcurveto
            35 -29 37 -50 -93 vvcurveto
            14 42 86 -58 callsubr
            -4 55 51 vvcurveto
            45 6 48 11 31 vhcurveto
            -161 1 21 109 hvcurveto
            1 258 -1 162 -10 187 74 83 rlinecurve
            -25 callgsubr
            -2 -4 callgsubr
            -51 -51 vvcurveto
            -52 -9 -51 -11 -27 vhcurveto
            145 2 23 -24 2 -108 rrcurveto
            -187 vlineto
            -153 -143 -43 -120 -118 -20 99 103 vhcurveto
            174 vlineto
            162 9 167 54 103 vhcurveto
            -25 callgsubr
            -2 -4 callgsubr
            -51 -51 vvcurveto
            -52 -9 -51 -11 -27 vhcurveto
            105 2 59 -36 callgsubr
            2 -198 rcurveline
            -114 -11 -84 -44 -53 vhcurveto
            return
          </CharString>
          <CharString index="1">
            4 -16 4 -60 -49 vvcurveto
            -59 -4 -54 -4 -22 vhcurveto
            16 87 135 9 141 hhcurveto
            154 162 -13 -12 96 hvcurveto
            -8 33 -4 52 52 vvcurveto
            48 4 43 6 32 vhcurveto
            -53 1 -75 34 -41 23 rrcurveto
            -64 97 -75 151 114 vvcurveto
            28 7 21 18 6 vhcurveto
            -145 43 -115 499 29 141 2 10 -2 4 1 8 rrcurveto
            -25 -68 -147 -10 -121 hhcurveto
            -140 -127 10 25 -62 hvcurveto
            -16 -2 -1 2 -15 vhcurveto
            27 -169 -142 -466 -132 -38 rrcurveto
            16 -5 6 -27 -23 vvcurveto
            -112 -77 -154 -64 -99 vhcurveto
            -31 -27 -48 -25 -67 -3 rrcurveto
            6 -32 4 -43 -48 vvcurveto
            -52 -4 -52 -8 -33 vhcurveto
            640 743 rmoveto
            93 108 194 39 119 vhcurveto
            38 -119 109 -194 -93 vvcurveto
            -77 -29 -21 -118 -118 -29 21 77 vhcurveto
            return
          </CharString>
          <CharString index="2">
            hvcurveto
            8 -33 7 -50 -51 vvcurveto
            -47 -9 -47 -6 -32 vhcurveto
            119 63 -32 -115 -245 -22 -37 -47 -16 hvcurveto
            19 callgsubr
            -63 -32 -119 -101 callsubr
            return
          </CharString>
          <CharString index="3">
            100 -92 callgsubr
            175 6 137 25 58 hvcurveto
            157 -122 378 -453 -202 vvcurveto
            21 73 101 4 64 hhcurveto
            60 107 -3 -22 66 hvcurveto
            -22 47 -35 123 193 vvcurveto
            284 23 65 46 23 vhcurveto
            -47 6 -32 65 245 vvcurveto
            114 73 17 109 -2 vhcurveto
            109 callsubr
            -176 43 callgsubr
            -179 -33 callgsubr
            -188 -2 -175 -22 -79 vhcurveto
            -4 1 -4 0 0 vvcurveto
            -79 -466 566 257 hvcurveto
            -15 -80 -98 -13 -99 hhcurveto
            -152 -94 -1 callgsubr
            -71 -244 vvcurveto
            -115 -63 -32 -119 -101 callsubr
            return
          </CharString>
          <CharString index="4">
            573 hmoveto
            18 58 123 7 101 hhcurveto
            120 107 -7 -18 52 hvcurveto
            32 vlineto
            121 60 237 87 159 vhcurveto
            92 -170 52 -258 -99 vvcurveto
            -10 0 -4 -1 -8 vhcurveto
            18 58 122 7 101 hhcurveto
            120 107 -7 -18 52 hvcurveto
            32 vlineto
            193 140 469 157 41 vhcurveto
            -16 5 -6 27 23 vvcurveto
            103 57 148 83 77 vhcurveto
            45 45 75 17 -33 callsubr
            -117 -116 10 25 -110 -63 callgsubr
            77 88 1 -75 -144 -218 -407 -55 -221 hvcurveto
            -46 249 -209 382 136 vvcurveto
            74 102 5 114 vhcurveto
            -10 32 0 43 48 vvcurveto
            52 2 52 -13 callsubr
            -25 -111 -123 -10 -126 -15 callgsubr
            return
          </CharString>
          <CharString index="5">
            1 callsubr
            hintmask 1111000100100000
            98 268 -95 callsubr
            hintmask 1111000011000000
            -83 callgsubr
            hintmask 1111000101000000
            -93 callsubr
            return
          </CharString>
          <CharString index="6">
            vhcurveto
            -101 callgsubr
            return
          </CharString>
          <CharString index="7">
            42 callgsubr
            hintmask 1101010001010000
            -90 callgsubr
            hintmask 1010110001010000
            -85 callgsubr
            hintmask 1101010000110000
            -75 callsubr
            hintmask 1100110001010000
            -95 callgsubr
            return
          </CharString>
          <CharString index="8">
            36 callsubr
            -468 14 21 -80 -105 callsubr
            return
          </CharString>
          <CharString index="9">
            rmoveto
            12 83 178 11 182 hhcurveto
            181 183 -11 -12 82 hvcurveto
            -14 32 -9 48 59 vvcurveto
            63 9 61 14 24 vhcurveto
            -18 -82 -184 -9 -175 hhcurveto
            -181 -182 12 15 -86 hvcurveto
            15 -23 12 -61 -64 vvcurveto
            -65 -11 -51 -15 -23 vhcurveto
            endchar
          </CharString>
          <CharString index="10">
            33 callsubr
            hintmask 110101011000101000000000
            -83 callsubr
            hintmask 110101011000100100000000
            -21 36 -12 98 109 vvcurveto
            87 15 89 32 13 vhcurveto
            -114 -7 -129 142 -7 83 rrcurveto
            hintmask 110010011000010010000000
            -62 callsubr
            hintmask 110100101000100010000000
            -89 callsubr
            hintmask 110101011000101000000000
            -63 callsubr
            hintmask 110010101000101000000000
            -64 callsubr
            hintmask 101010101000101000000000
            -54 callgsubr
            return
          </CharString>
          <CharString index="11">
            -19 callgsubr
            -8 33 -7 50 51 vvcurveto
            47 9 47 6 32 vhcurveto
            return
          </CharString>
          <CharString index="12">
            rmoveto
            144 -15 219 -32 callsubr
            42 149 21 169 hhcurveto
            169 149 -21 -24 42 hvcurveto
            32 51 callsubr
            144 15 rrcurveto
            -25 35 -26 107 184 vvcurveto
            82 24 45 42 14 vhcurveto
            -48 13 -22 89 87 vvcurveto
            114 20 96 35 38 vhcurveto
            return
          </CharString>
          <CharString index="13">
            -214 10 -85 -161 -173 hhcurveto
            -162 -127 96 386 457 148 51 141 171 97 -153 -182 hvcurveto
            10 65 72 5 82 hhcurveto
            57 91 -4 -11 63 hvcurveto
            -8 43 -17 138 171 vvcurveto
            83 20 108 5 22 vhcurveto
            -13 -46 -82 -7 -50 hhcurveto
            -80 -80 8 12 -25 hvcurveto
            -7 -28 -14 -42 -37 -29 -38 31 -28 47 -13 41 rrcurveto
            -32 -51 -115 -23 -87 hhcurveto
            -180 -109 31 24 -44 38 callsubr
            return
          </CharString>
          <CharString index="14">
            -93 callgsubr
            755 -48 rmoveto
            -150 -115 86 396 467 134 41 131 131 134 -41 -467 -396 -115 -86 -150 hvcurveto
            return
          </CharString>
          <CharString index="15">
            -10 38 -3 53 50 vvcurveto
            54 5 33 8 56 vhcurveto
            -73 -19 -189 21 -51 67 rrcurveto
            -35 -17 -67 -19 -106 hhcurveto
            -117 -146 19 15 -27 hvcurveto
            -33 -88 -104 -77 -95 -20 rrcurveto
            22 -35 10 -63 -60 vvcurveto
            -58 -11 -65 -21 -25 vhcurveto
            54 -11 111 -94 1 -69 rrcurveto
            14 26 98 3 59 hhcurveto
            198 144 -47 -102 -63 -47 -27 -72 -110 -44 65 77 hvcurveto
            return
          </CharString>
          <CharString index="16">
            -61 callgsubr
            105 2 63 -36 callgsubr
            rrcurveto
            65 callgsubr
            -42 -94 callgsubr
            return
          </CharString>
          <CharString index="17">
            82 83 1 -75 -144 -212 -405 -55 -221 hvcurveto
            -46 250 -205 379 136 vvcurveto
            74 100 5 109 -49 callsubr
            -101 -163 -11 -169 -34 callsubr
            77 -31 31 -29 rrcurveto
            107 -91 28 -133 -105 vvcurveto
            -28 -7 -21 -18 -6 vhcurveto
            187 -46 118 -515 -152 vvcurveto
            -10 0 -4 -1 -8 vhcurveto
            return
          </CharString>
          <CharString index="18">
            10 45 53 5 57 hhcurveto
            59 61 -3 -12 66 hvcurveto
            -7 32 -11 94 116 vvcurveto
            83 14 108 4 22 vhcurveto
            -13 -41 -49 -7 -46 hhcurveto
            -63 -40 8 12 -20 hvcurveto
            -7 -28 -13 -42 -35 -29 -35 31 -26 47 -11 41 rrcurveto
            -32 -57 -131 -23 -99 hhcurveto
            -167 -75 31 24 -40 hvcurveto
            return
          </CharString>
          <CharString index="19">
            -23 46 -7 98 101 vvcurveto
            87 11 117 19 36 vhcurveto
            -80 4 -166 123 -6 78 rrcurveto
            -27 -69 -289 -8 -253 -82 callsubr
            798 rmoveto
            -8 106 -8 170 15 105 rrcurveto
            23 55 77 8 69 hhcurveto
            160 57 -107 -113 -121 -82 -94 -145 -73 -61 7 16 -56 hvcurveto
            return
          </CharString>
          <CharString index="20">
            -84 callsubr
            139 -11 -14 83 hvcurveto
            -12 27 -4 51 39 vvcurveto
            77 7 34 9 32 vhcurveto
            -128 -43 -44 callgsubr
            -14 return
          </CharString>
          <CharString index="21">
            -25 callgsubr
            8 -4 callgsubr
            -51 -51 vvcurveto
            -52 -9 -51 -11 -27 vhcurveto
            105 2 63 -36 callgsubr
            return
          </CharString>
          <CharString index="22">
            hmoveto
            -37 callgsubr
            169 113 -11 -14 85 54 callgsubr
            -78 callgsubr
            -96 -56 31 86 hvcurveto
            return
          </CharString>
          <CharString index="23">
            -208 vlineto
            -105 -29 -12 -90 vhcurveto
            9 -24 4 -68 -28 vvcurveto
            -49 -4 -61 -9 -30 vhcurveto
            16 64 133 9 108 hhcurveto
            137 return
          </CharString>
          <CharString index="24">
            148 hmoveto
            14 33 53 11 52 hhcurveto
            63 78 -13 -12 20 hvcurveto
            6 28 13 35 36 27 35 -28 25 -41 12 -41 rrcurveto
            32 56 112 13 99 hhcurveto
            167 75 -21 -24 40 hvcurveto
            6 95 214 190 114 -7 rrcurveto
            return
          </CharString>
          <CharString index="25">
            hhcurveto
            -130 -379 14 21 -53 -105 callsubr
            585 return
          </CharString>
          <CharString index="26">
            100 hmoveto
            15 53 379 10 130 hhcurveto
            231 266 -6 -19 63 hvcurveto
            15 92 206 120 101 4 -35 252 63 247 90 20 -85 23 -70 251 37 215 -101 4 -215 130 -6 82 rrcurveto
            -27 -63 -266 -8 -231 -29 callgsubr
            -230 -22 -52 -47 -16 hvcurveto
            19 callgsubr
            -63 -32 -119 -101 callsubr
            587 242 rmoveto
            -9 196 -11 582 19 161 rrcurveto
            22 57 82 7 59 hhcurveto
            195 100 -160 -291 hvcurveto
            return
          </CharString>
          <CharString index="27">
            17 40 90 13 118 hhcurveto
            130 79 -15 -15 41 hvcurveto
            105 20 98 44 99 hhcurveto
            -26 31 -14 69 90 vvcurveto
            95 16 76 24 29 vhcurveto
            -108 21 -82 68 -23 95 rrcurveto
            -17 -40 -90 -13 -118 hhcurveto
            -130 -79 15 15 -49 hvcurveto
            -23 -95 -82 -68 -108 -21 rrcurveto
            24 -29 16 -76 -95 vvcurveto
            -90 -14 -69 -26 -31 vhcurveto
            return
          </CharString>
          <CharString index="28">
            -120 rmoveto
            11 -46 7 -89 -89 vvcurveto
            -73 -4 -87 -14 -46 vhcurveto
            20 54 77 10 88 hhcurveto
            81 70 -12 -18 48 hvcurveto
            92 129 166 52 76 9 -3 73 119 365 64 145 58 131 58 65 57 16 rrcurveto
            -12 4 -5 10 59 callsubr
            55 79 48 75 hhcurveto
            return
          </CharString>
          <CharString index="29">
            rmoveto
            hintmask 0000010100000000
            7 20 67 9 90 hhcurveto
            hintmask 0000001100000000
            85 45 -9 -7 19 hvcurveto
            27 36 47 91 133 67 120 -67 43 -91 24 -36 rrcurveto
            hintmask 0000010100000000
            7 26 48 9 86 hhcurveto
            hintmask 0000001100000000
            90 67 -9 -7 20 hvcurveto
            -59 43 -276 328 10 80 rrcurveto
            hintmask 0000010100000000
            -16 -33 -80 -11 -94 hhcurveto
            -82 -96 11 16 -33 hvcurveto
            hintmask 0000001100000000
            10 -80 -265 -328 -59 -43 rrcurveto
            endchar
          </CharString>
          <CharString index="30">
            -37 callgsubr
            145 179 -53 callsubr
            -73 21 96 hvcurveto
            168 vlineto
            86 13 89 56 15 vhcurveto
            -52 14 -17 35 107 vvcurveto
            1 312 89 callgsubr
            rlinecurve
            -86 callsubr
            rrcurveto
            -317 vlineto
            1 -107 -15 -36 -55 -15 rrcurveto
            52 -12 17 -92 73 callsubr
            -39 -94 callgsubr
            return
          </CharString>
          <CharString index="31">
            -65 callgsubr
            97 51 vvcurveto
            62 7 67 19 22 vhcurveto
            -14 -13 -99 -10 -66 hhcurveto
            -53 -72 6 20 -19 hvcurveto
            13 -21 9 -32 -32 vvcurveto
            -48 -10 -55 -66 vhcurveto
            return
          </CharString>
          <CharString index="32">
            -57 -55 -169 -47 -112 hhcurveto
            15 -57 0 -28 -56 vvcurveto
            -59 -8 -48 -7 -37 vhcurveto
            10 45 88 5 76 hhcurveto
            75 65 -5 -10 44 hvcurveto
            return
          </CharString>
          <CharString index="33">
            32 -9 44 46 vvcurveto
            49 return
          </CharString>
          <CharString index="34">
            140 callsubr
            62 callgsubr
            hintmask 0000011000000000
            -48 callsubr
            hintmask 0000101000000000
            -18 -42 -64 -7 -95 hhcurveto
            -73 -50 10 15 -46 hvcurveto
            hintmask 0000011000000000
            78 callgsubr
            hintmask 0000101000000000
            62 callgsubr
            hintmask 0000011000000000
            -48 callsubr
            hintmask 0000101000000000
            -18 -42 -64 -7 -95 hhcurveto
            -63 -60 10 15 -46 hvcurveto
            hintmask 0000011000000000
            88 callsubr
          </CharString>
          <CharString index="35">
            264 31 197 152 hhcurveto
            -26 32 -10 47 51 vvcurveto
            58 21 62 29 47 vhcurveto
            -14 -25 -58 -13 -70 hhcurveto
            -60 -63 12 15 -21 hvcurveto
            3 -18 2 -21 -20 vvcurveto
            return
          </CharString>
          <CharString index="36">
            -47 1 -79 6 -39 31 rrcurveto
            128 10 64 24 210 hhcurveto
            235 43 -47 -106 4 hvcurveto
            -37 -32 -62 -4 -48 -1 rrcurveto
            return
          </CharString>
          <CharString index="37">
            hhcurveto
            -162 -168 18 17 -100 hvcurveto
            6 -33 4 -52 -52 vvcurveto
            -48 -4 -43 -6 -32 vhcurveto
            return
          </CharString>
          <CharString index="38">
            109 166 rmoveto
            123 10 209 -112 27 -74 rrcurveto
            15 43 119 20 97 hhcurveto
            80 100 -11 -24 37 hvcurveto
            return
          </CharString>
          <CharString index="39">
            100 hmoveto
            15 80 239 10 144 hhcurveto
            136 230 88 callgsubr
            -99 22 125 116 3 50 6 31 hvcurveto
            14 37 69 5 45 hhcurveto
            86 109 -19 -14 23 hvcurveto
            -9 18 -6 64 64 vvcurveto
            57 5 57 10 29 vhcurveto
            -16 -30 -96 -14 -76 hhcurveto
            -50 -77 6 16 -40 hvcurveto
            -5 27 -4 46 89 vvcurveto
            58 5 39 5 31 vhcurveto
            43 60 81 6 60 hhcurveto
            70 154 120 callsubr
            18 54 85 7 61 hhcurveto
            69 66 -74 callgsubr
            -469 -99 callsubr
            return
          </CharString>
          <CharString index="40">
            rmoveto
            9 28 92 19 91 hhcurveto
            93 86 -19 -9 36 hvcurveto
            73 22 151 104 75 hhcurveto
            -20 22 -8 40 81 vvcurveto
            68 15 33 13 20 vhcurveto
            -75 12 -146 68 -25 84 rrcurveto
            -9 -25 -85 -19 -97 hhcurveto
            -104 -90 17 11 -29 hvcurveto
            -25 -84 -141 -68 -80 -12 rrcurveto
            12 -22 16 -31 -71 vvcurveto
            -82 -13 -36 -15 -22 vhcurveto
            73 144 -90 -87 31 hvcurveto
            217 185 rmoveto
            -63 -71 12 105 91 52 35 82 82 51 -35 -91 -105 -70 -12 -63 hvcurveto
            endchar
          </CharString>
          <CharString index="41">
            77 71 -8 -7 18 hvcurveto
            23 42 58 81 118 69 107 -69 55 -81 20 -42 rrcurveto
            return
          </CharString>
          <CharString index="42">
            -35 -42 -164 -15 -128 hhcurveto
            -115 -35 24 50 34 20 33 98 111 116 -13 -38 35 hvcurveto
            77 5 141 117 126 hhcurveto
            12 16 -1 -2 12 hvcurveto
            -32 31 -15 87 91 vvcurveto
            93 15 97 30 31 vhcurveto
            -86 8 -109 53 -63 73 rrcurveto
            74 8 63 36 97 hhcurveto
            35 80 -6 -9 40 hvcurveto
            -9 45 -11 27 103 vvcurveto
            60 14 87 16 28 vhcurveto
            -17 -46 -126 -8 -61 hhcurveto
            -120 -102 12 13 -25 hvcurveto
            return
          </CharString>
          <CharString index="43">
            33 126 101 0 110 hhcurveto
            256 105 -111 -92 -126 -130 -16 -116 -170 -116 97 118 hvcurveto
            return
          </CharString>
          <CharString index="44">
            -6 -95 -214 -200 -114 7 rrcurveto
            21 -36 12 -98 -109 vvcurveto
            -87 -15 -89 -32 -13 vhcurveto
            114 7 112 -132 6 -83 rrcurveto
            return
          </CharString>
          <CharString index="45">
            -24 -79 -151 -1 -108 hhcurveto
            -257 -85 93 92 111 130 31 116 170 116 -101 -124 hvcurveto
            return
          </CharString>
          <CharString index="46">
            32 115 224 23 91 46 13 hvcurveto
            -47 16 -22 74 callsubr
            return
          </CharString>
          <CharString index="47">
            -99 21 -21 25 86 callgsubr
            485 113 -28 callgsubr
            return
          </CharString>
          <CharString index="48">
            -21 25 235 return
          </CharString>
          <CharString index="49">
            11 94 hhcurveto
            85 79 -10 -15 32 hvcurveto
            -13 30 return
          </CharString>
          <CharString index="50">
            21 102 91 4 130 hhcurveto
            476 hlineto
            130 91 -3 -22 102 hvcurveto
            -9 22 -6 63 70 vvcurveto
            38 6 85 9 32 vhcurveto
            -21 -102 -91 -2 -130 hhcurveto
            -476 hlineto
            55 callsubr
            -32 5 -85 -38 vvcurveto
            -70 -7 -63 -8 -22 vhcurveto
            return
          </CharString>
          <CharString index="51">
            1 -21 rlineto
            -116 -11 -5 -263 vhcurveto
            11 -26 4 -40 -38 vvcurveto
            -40 -6 -48 -9 -28 vhcurveto
            15 84 110 10 175 hhcurveto
            142 203 -12 -13 76 hvcurveto
            -9 29 -6 46 41 vvcurveto
            38 9 40 6 26 vhcurveto
            -125 -50 23 55 hvcurveto
            23 vlineto
            51 43 0 58 27 68 -4 -10 56 vhcurveto
            -9 16 -6 14 50 vvcurveto
            52 6 43 9 20 vhcurveto
            -6 -40 -58 1 -24 hhcurveto
            -87 -41 17 72 44 8 107 12 35 hvcurveto
            -14 -20 -110 -11 -67 hhcurveto
            -57 -72 10 15 -33 hvcurveto
            11 -28 0 -84 -28 vvcurveto
            -102 -41 -28 -140 -32 -37 -2 7 -46 vhcurveto
            64 142 176 297 130 45 -59 9 -45 131 19 51 -28 -20 -68 -16 -68 1 -96 2 -67 13 -31 10 -2 -115 -181 -476 -127 -45 rrcurveto
            endchar
          </CharString>
          <CharString index="52">
            321 214 317 vstem
            316 717 rmoveto
            -80 callsubr
            99 98 -44 -105 20 hvcurveto
            51 -717 rmoveto
            46 15 69 12 68 -2 52 -1 56 -11 22 -13 37 89 1023 1266 90 50 -46 -15 -69 -12 -68 2 -52 1 -56 11 -22 13 -1 -57 -1061 -1325 -88 -23 rrcurveto
            200 905 rmoveto
            -62 -45 41 141 9 callgsubr
            hvcurveto
            return
          </CharString>
          <CharString index="53">
            16 27 56 6 35 hhcurveto
            39 50 -17 -13 8 hvcurveto
            -9 111 375 350 105 45 -105 45 -375 350 9 111 rrcurveto
            -14 -8 -50 -16 -39 hhcurveto
            -35 -56 5 17 -27 hvcurveto
            17 -20 8 -59 -38 vvcurveto
            -38 -9 -23 -9 -20 vhcurveto
            80 -6 65 -203 56 -94 -54 -97 -69 -194 -78 -6 rrcurveto
            9 -20 9 -23 -38 vvcurveto
            -38 -8 -59 -17 -20 vhcurveto
            return
          </CharString>
          <CharString index="54">
            -11 -14 73 hvcurveto
            -10 36 -3 -78 callgsubr
            -114 return
          </CharString>
          <CharString index="55">
            137 182 41 66 98 40 -90 -103 vhcurveto
            -84 callsubr
            return
          </CharString>
          <CharString index="56">
            940 27 callsubr
            21 5 callgsubr
            -47 -45 callgsubr
            -84 13 17 -47 hvcurveto
            17 -37 13 -90 -93 vvcurveto
            -101 -13 -73 -16 -36 vhcurveto
            29 8 45 8 57 5 17 -20 9 -51 -1 -54 -4 -60 -15 -63 -31 -33 rrcurveto
            return
          </CharString>
          <CharString index="57">
            -264 11 -21 35 209 -209 245 436 22 callsubr
            return
          </CharString>
          <CharString index="58">
            vhcurveto
            -4 16 -4 60 49 vvcurveto
            59 4 54 4 22 vhcurveto
            -24 return
          </CharString>
          <CharString index="59">
            83 22 -8 -12 21 hvcurveto
            -11 58 180 326 101 81 rrcurveto
            return
          </CharString>
          <CharString index="60">
            -22 38 -8 81 85 vvcurveto
            79 11 107 19 34 vhcurveto
            -89 4 -187 130 -6 82 rrcurveto
            -27 -61 -217 -8 -221 -82 callsubr
            844 rmoveto
            -8 92 -8 144 14 92 rrcurveto
            21 49 65 7 58 hhcurveto
            146 11 -88 -93 -109 -34 -85 -133 -86 -37 6 13 -37 hvcurveto
            -2 -600 rmoveto
            -7 106 -6 154 14 97 rrcurveto
            22 48 62 7 111 hhcurveto
            return
          </CharString>
          <CharString index="61">
            106 -5 callsubr
            44 181 21 179 hhcurveto
            169 87 -14 -21 57 hvcurveto
            return
          </CharString>
          <CharString index="62">
            851 rmoveto
            15 88 207 10 164 hhcurveto
            155 242 -12 -13 88 hvcurveto
            -9 26 -6 43 37 vvcurveto
            43 0 32 15 39 vhcurveto
            -210 -74 26 151 88 28 55 45 5 hvcurveto
            -45 4 -28 49 43 vvcurveto
            290 vlineto
            148 9 38 6 33 vhcurveto
            -14 -24 -78 -11 -50 hhcurveto
            -43 -59 12 13 -31 hvcurveto
            -64 -26 -155 -103 -178 hhcurveto
            -14 hlineto
            8 -33 5 -36 -47 vvcurveto
            -35 -5 -38 -6 -26 vhcurveto
            2 16 37 5 27 hhcurveto
            109 92 -51 -71 -40 -25 -64 -45 -4 hvcurveto
            45 -5 25 -55 -88 vvcurveto
            -151 -132 -26 -168 vhcurveto
            12 -29 3 -43 -42 vvcurveto
            -38 -7 -42 -8 -26 vhcurveto
            return
          </CharString>
          <CharString index="63">
            -16 -37 -66 -9 -72 hhcurveto
            -75 -93 9 16 -33 hvcurveto
            9 -36 8 -65 -54 vvcurveto
            -69 -6 -61 -11 -28 vhcurveto
            return
          </CharString>
          <CharString index="64">
            30 callsubr
            66 -74 callgsubr
            -399 -14 -144 hhcurveto
            -143 -126 4 31 -50 hvcurveto
            -25 -21 -119 -10 -46 hhcurveto
            -64 -99 10 25 -36 hvcurveto
            -38 -185 -299 -473 -190 -47 rrcurveto
            16 -5 6 -27 -23 vvcurveto
            -112 -117 -154 -104 -99 vhcurveto
            -39 -27 -71 -25 -83 -3 rrcurveto
            6 -32 4 -43 -48 vvcurveto
            -52 -4 -52 -8 -33 vhcurveto
            817 743 rmoveto
            92 212 217 75 125 vhcurveto
            3 -124 4 -192 -88 vvcurveto
            -77 -13 -51 -134 -84 -63 21 77 vhcurveto
            return
          </CharString>
          <CharString index="65">
            1185 rmoveto
            13 44 124 7 104 hhcurveto
            103 132 -7 48 callgsubr
            44 -8 87 84 vvcurveto
            84 8 82 17 34 vhcurveto
            -20 -42 -142 -45 callgsubr
            -119 47 callsubr
            -7 callgsubr
            -80 -1185 rmoveto
            16 70 191 -10 callsubr
            145 189 -53 callsubr
            -88 21 96 hvcurveto
            71 vlineto
            1 288 -1 162 29 79 54 103 rlinecurve
            -126 -49 -208 0 -323 14 110 callsubr
            -51 -51 vvcurveto
            -52 -9 -51 -11 -27 vhcurveto
            return
          </CharString>
          <CharString index="66">
            47 67 146 70 99 -5 rrcurveto
            -11 23 -4 50 53 vvcurveto
            -1 63 5 69 11 30 rrcurveto
            -7 -24 -49 -8 -50 hhcurveto
            -52 -54 8 7 -29 hvcurveto
            return
          </CharString>
          <CharString index="67">
            86 callgsubr
            395 -162 432 -125 318 -143 432 -172 420 return
          </CharString>
          <CharString index="68">
            13 44 100 12 104 hhcurveto
            103 106 -12 -13 42 hvcurveto
            return
          </CharString>
          <CharString index="69">
            -101 callgsubr
            15 76 170 10 136 hhcurveto
            136 171 -96 callsubr
            return
          </CharString>
          <CharString index="70">
            -21 45 -40 callsubr
            -210 86 callsubr
            return
          </CharString>
          <CharString index="71">
            -39 callsubr
            -17 return
          </CharString>
          <CharString index="72">
            118 39 51 105 86 40 -37 -65 -72 -49 -60 -160 87 callgsubr
            -45 -90 -70 -25 rrcurveto
            14 -26 9 -41 -43 vvcurveto
            -41 -8 -42 -17 -31 vhcurveto
            1103 530 rmoveto
            146 9 68 44 149 hhcurveto
            134 25 -60 -62 -68 -59 0 -107 hvcurveto
            -879 -358 rmoveto
            90 82 61 219 5 vhcurveto
            -161 -10 -77 -82 -112 hhcurveto
            -49 -53 22 65 hvcurveto
            321 -119 rmoveto
            6 7 -1 -2 7 hvcurveto
            return
          </CharString>
          <CharString index="73">
            -70 callsubr
            54 -1 return
          </CharString>
          <CharString index="74">
            38 hhcurveto
            -70 callgsubr
            return
          </CharString>
          <CharString index="75">
            -149 32 -124 rrcurveto
            24 return
          </CharString>
          <CharString index="76">
            6 13 69 6 29 hhcurveto
            29 69 -5 -7 13 hvcurveto
            10 99 21 106 84 75 -48 65 46 242 32 63 rrcurveto
            -20 -48 -101 -10 -108 hhcurveto
            -108 -99 10 20 -48 hvcurveto
            32 -63 46 -242 -48 -65 84 -75 21 -101 10 -104 rrcurveto
            return
          </CharString>
          <CharString index="77">
            205 53 83 147 154 36 -121 -167 -167 -36 -125 -154 -147 -53 87 205 vhcurveto
            return
          </CharString>
          <CharString index="78">
            -21 34 157 -157 274 122 213 122 279 -158 158 54 -20 return
          </CharString>
          <CharString index="79">
            113 41 93 113 65 60 -18 -40 25 vhcurveto
            -87 -163 -393 -230 -200 -38 rrcurveto
            20 -40 10 -103 -75 vvcurveto
            -69 -12 -76 -18 -31 vhcurveto
            return
          </CharString>
          <CharString index="80">
            10 25 -59 hvcurveto
            -23 -95 -172 -108 -108 -21 rrcurveto
            30 -29 15 -97 -95 vvcurveto
            -90 -12 -88 -33 -31 vhcurveto
            return
          </CharString>
          <CharString index="81">
            51 callgsubr
            75 56 -7 -16 33 hvcurveto
            -15 32 -10 88 80 vvcurveto
            76 10 79 15 43 vhcurveto
            -4 -21 -28 -9 -71 hhcurveto
            -100 -97 36 51 9 callsubr
            return
          </CharString>
          <CharString index="82">
            -131 -7 -94 -29 -70 hhcurveto
            -60 -86 8 34 -63 hvcurveto
            -6 33 -6 43 69 vvcurveto
            116 3 50 6 31 vhcurveto
            14 33 43 5 45 hhcurveto
            86 89 -19 -14 23 hvcurveto
            -9 18 -6 64 64 vvcurveto
            57 5 57 10 29 vhcurveto
            -16 -30 -76 -14 -76 hhcurveto
            -50 -51 6 16 -36 hvcurveto
            -5 27 -4 46 89 vvcurveto
            58 5 39 5 31 vhcurveto
            43 60 81 6 60 hhcurveto
            70 104 -15 -115 7 hvcurveto
            3 -47 -9 -55 -9 -33 rrcurveto
            return
          </CharString>
          <CharString index="83">
            -118 -70 8 7 -25 hvcurveto
            72 -48 306 -326 -9 -91 rrcurveto
            endchar
          </CharString>
          <CharString index="84">
            46 -13 23 -91 return
          </CharString>
          <CharString index="85">
            9 -91 -269 -326 -52 -48 rrcurveto
            endchar
          </CharString>
          <CharString index="86">
            49 28 78 93 108 hhcurveto
            -5 19 -1 42 47 vvcurveto
            44 4 65 9 21 vhcurveto
            -9 -51 -56 -4 -54 hhcurveto
            -42 -40 4 9 -30 hvcurveto
            return
          </CharString>
          <CharString index="87">
            116 27 111 169 229 hhcurveto
            -16 9 -12 68 66 vvcurveto
            80 8 79 20 25 vhcurveto
            -15 -10 -82 -11 -78 hhcurveto
            -69 -68 6 20 -27 hvcurveto
            13 -31 6 -52 -52 vvcurveto
            -48 -24 -55 -69 vhcurveto
            return
          </CharString>
          <CharString index="88">
            30 9 55 8 66 4 17 -20 9 -51 -1 -54 -4 -60 -15 -63 -31 -33 rrcurveto
            return
          </CharString>
          <CharString index="89">
            -83 -44 -90 -125 -125 -44 90 83 21 2 20 3 18 vhcurveto
            return
          </CharString>
          <CharString index="90">
            80 104 -8 -12 19 hvcurveto
            -46 48 -61 346 18 71 rrcurveto
            return
          </CharString>
          <CharString index="91">
            44 callsubr
            990 97 callgsubr
            return
          </CharString>
          <CharString index="92">
            103 92 -7 48 callgsubr
            44 -8 return
          </CharString>
          <CharString index="93">
            -29 vhcurveto
            7 -35 2 -43 -42 vvcurveto
            -47 -3 -47 -6 -38 23 callsubr
            72 return
          </CharString>
          <CharString index="94">
            8 33 vhcurveto
            return
          </CharString>
          <CharString index="95">
            -419 -21 465 -20 hstemhm
            return
          </CharString>
          <CharString index="96">
            83 694 rmoveto
            -481 368 -388 570 570 367 388 480 488 -367 392 -570 -570 -368 -392 -487 vhcurveto
            183 -1 rmoveto
            2 vlineto
            387 297 311 458 469 286 -312 -388 -381 -286 -308 -469 -469 -286 308 381 vhcurveto
            return
          </CharString>
          <CharString index="97">
            9 127 hhcurveto
            return
          </CharString>
          <CharString index="98">
            294 -276 -21 188 109 -109 294 3 -20 hstemhm
            return
          </CharString>
          <CharString index="99">
            rmoveto
            15 51 84 5 59 hhcurveto
            59 86 -5 -15 49 hvcurveto
            -25 47 53 191 49 156 310 974 rcurveline
            42 132 79 238 52 37 rrcurveto
            -10 -40 -63 -10 -90 hhcurveto
            -90 -65 10 10 -40 hvcurveto
            25 -47 -53 -191 -49 -156 -310 -974 rcurveline
            -42 -132 -79 -238 -52 -37 rrcurveto
            endchar
          </CharString>
          <CharString index="100">
            -120 -73 87 95 hvcurveto
            -97 -163 20 72 -39 hvcurveto
            47 122 227 55 126 2 rrcurveto
            -11 35 -5 53 54 vvcurveto
            64 5 65 13 46 vhcurveto
            return
          </CharString>
          <CharString index="101">
            -35 -42 -154 -15 -128 hhcurveto
            -115 -35 24 50 34 20 33 98 111 106 -13 -38 35 hvcurveto
            77 5 141 117 126 hhcurveto
            12 16 -1 -2 12 hvcurveto
            -32 31 -15 87 91 vvcurveto
            93 15 97 30 31 vhcurveto
            -80 23 1 46 17 vvcurveto
            56 45 42 104 35 100 -6 -9 40 vhcurveto
            return
          </CharString>
          <CharString index="102">
            31 callgsubr
            209 -32 callsubr
            return
          </CharString>
          <CharString index="103">
            65 58 -9 -9 22 hvcurveto
            22 38 151 52 75 -10 rrcurveto
            -20 22 -8 90 81 vvcurveto
            83 15 52 13 26 vhcurveto
            -75 -4 -146 74 -25 54 rrcurveto
            return
          </CharString>
          <CharString index="104">
            117 callgsubr
            30 295 -295 384 946 235 25 -20 return
          </CharString>
          <CharString index="105">
            hhcurveto
            98 40 -90 -103 hvcurveto
            -84 callsubr
            139 -11 -14 83 hvcurveto
            -12 27 -4 51 39 vvcurveto
            77 7 34 9 32 vhcurveto
            -128 -43 21 96 hvcurveto
            225 vlineto
            return
          </CharString>
          <CharString index="106">
            1 9 9 0 10 hhcurveto
            90 61 -1 -22 72 hvcurveto
            -8 28 -7 40 85 vvcurveto
            45 5 62 10 38 vhcurveto
            -21 -72 -61 -2 -90 hhcurveto
            -28 hlineto
            129 3 121 20 37 vhcurveto
            -15 -48 -80 -5 -56 hhcurveto
            -56 -82 5 15 -46 hvcurveto
            19 -37 3 -121 1 -129 rrcurveto
            return
          </CharString>
          <CharString index="107">
            79 callgsubr
            190 195 return
          </CharString>
          <CharString index="108">
            69 callsubr
            -89 89 530 89 -89 439 return
          </CharString>
          <CharString index="109">
            25 callgsubr
            153 -59 callsubr
            return
          </CharString>
          <CharString index="110">
            22 72 61 1 90 hhcurveto
            681 hlineto
            90 61 -1 -22 72 hvcurveto
            -8 28 -7 70 85 vvcurveto
            45 5 52 10 38 vhcurveto
            -21 -72 -61 -2 -90 hhcurveto
            -681 138 callgsubr
            -52 -45 vvcurveto
            -85 -7 -70 -8 -28 vhcurveto
            endchar
          </CharString>
          <CharString index="111">
            100 hmoveto
            11 33 399 14 130 hhcurveto
            221 239 -8 -17 31 hvcurveto
            21 92 228 120 113 4 rrcurveto
            -20 32 -10 109 79 vvcurveto
            77 8 83 22 34 vhcurveto
            -73 11 -92 27 -70 43 49 44 58 35 56 10 rrcurveto
            return
          </CharString>
          <CharString index="112">
            -47 -112 hhcurveto
            15 -57 0 -28 -56 vvcurveto
            -59 -8 -48 -7 -37 vhcurveto
            10 45 88 5 76 hhcurveto
            75 75 -5 -10 44 hvcurveto
            return
          </CharString>
          <CharString index="113">
            -610 -73 callgsubr
            50 callsubr
            return
          </CharString>
          <CharString index="114">
            -86 callsubr
            rrcurveto
            -297 vlineto
            1 -107 -23 -55 -47 -16 rrcurveto
            -23 callsubr
            73 callsubr
            return
          </CharString>
          <CharString index="115">
            99 208 -84 -135 -140 -199 -50 -108 -11 hvcurveto
            431 656 rmoveto
            153 70 44 102 102 70 -44 -153 -153 -70 -44 -102 -102 -70 44 153 vhcurveto
            18 -844 rmoveto
            100 61 57 137 vhcurveto
            return
          </CharString>
          <CharString index="116">
            -37 hvcurveto
            -43 -41 -79 -27 -115 hhcurveto
            -75 -73 5 20 -29 hvcurveto
            return
          </CharString>
          <CharString index="117">
            240 44 callsubr
            960 225 return
          </CharString>
          <CharString index="118">
            365 -364 -21 415 -20 hstemhm
            return
          </CharString>
          <CharString index="119">
            hmoveto
            -36 callsubr
            46 -8 76 88 vvcurveto
            92 8 90 17 38 112 callsubr
            17 -37 13 -90 -93 vvcurveto
            -101 -13 -73 -16 -36 vhcurveto
            return
          </CharString>
          <CharString index="120">
            -14 callsubr
            20 -33 -47 2 hvcurveto
            return
          </CharString>
          <CharString index="121">
            -91 -13 -89 106 callsubr
          </CharString>
          <CharString index="122">
            58 callsubr
            -62 -45 vvcurveto
            -85 -7 -40 -8 -28 vhcurveto
            22 72 61 1 90 hhcurveto
            8 return
          </CharString>
          <CharString index="123">
            414 -302 302 -302 438 -255 451 return
          </CharString>
          <CharString index="124">
            4 callgsubr
            21 47 vvcurveto
            406 vlineto
            64 -2 83 25 47 vhcurveto
            -15 -48 -80 -5 -56 hhcurveto
            -56 -82 5 15 -46 hvcurveto
            25 -47 -2 -83 -64 vvcurveto
            return
          </CharString>
          <CharString index="125">
            232 -65 65 -65 270 27 -20 hstemhm
            return
          </CharString>
          <CharString index="126">
            -9 45 -11 27 103 vvcurveto
            75 14 112 16 38 vhcurveto
            -17 -36 -121 -8 -46 hhcurveto
            -130 -110 12 13 -27 hvcurveto
            42 -49 32 -100 -90 vvcurveto
            -72 -29 -56 -61 -21 -25 7 15 -29 vhcurveto
            return
          </CharString>
          <CharString index="127">
            15 10 82 11 78 hhcurveto
            69 68 -7 -19 27 hvcurveto
            -13 31 -6 52 52 vvcurveto
            48 23 55 70 vhcurveto
            return
          </CharString>
          <CharString index="128">
            rmoveto
            14 -26 8 -54 -57 vvcurveto
            -64 -10 -96 -22 -30 vhcurveto
            return
          </CharString>
          <CharString index="129">
            270 -116 127 callsubr
            return
          </CharString>
          <CharString index="130">
            vhcurveto
            5 29 23 3 20 hhcurveto
            return
          </CharString>
          <CharString index="131">
            67 1 35 callsubr
            return
          </CharString>
          <CharString index="132">
            8 92 hhcurveto
            94 114 -8 -17 37 hvcurveto
            -13 32 -7 62 63 vvcurveto
            60 9 60 11 33 vhcurveto
            return
          </CharString>
          <CharString index="133">
            152 41 -197 254 hhcurveto
            endchar
          </CharString>
          <CharString index="134">
            rmoveto
            9 14 40 3 43 hhcurveto
            29 39 -5 -7 13 hvcurveto
            10 88 return
          </CharString>
          <CharString index="135">
            20 19 63 16 62 hhcurveto
            81 55 -15 -21 27 hvcurveto
            return
          </CharString>
          <CharString index="136">
            -94 21 -21 25 105 callsubr
            return
          </CharString>
          <CharString index="137">
            18 54 65 7 61 hhcurveto
            69 return
          </CharString>
          <CharString index="138">
            56 callgsubr
            169 243 -11 -14 85 54 callgsubr
            -78 callgsubr
            -156 -156 21 96 hvcurveto
            return
          </CharString>
          <CharString index="139">
            89 callsubr
            390 395 return
          </CharString>
          <CharString index="140">
            67 callsubr
            500 33 callgsubr
            return
          </CharString>
          <CharString index="141">
            -224 vvcurveto
            -115 return
          </CharString>
          <CharString index="142">
            -21 45 205 220 220 540 86 callsubr
            return
          </CharString>
          <CharString index="143">
            -14 -144 hhcurveto
            -144 return
          </CharString>
          <CharString index="144">
            87 vvcurveto
            106 11 111 19 34 112 callsubr
            17 -37 13 -90 -93 vvcurveto
            -101 -13 -73 -16 -36 vhcurveto
            endchar
          </CharString>
          <CharString index="145">
            hvcurveto
            -7 -95 -252 -200 -132 7 rrcurveto
            return
          </CharString>
          <CharString index="146">
            282 401 return
          </CharString>
          <CharString index="147">
            vvcurveto
            -68 -8 -65 -12 -27 49 callsubr
            return
          </CharString>
          <CharString index="148">
            240 21 68 callgsubr
            return
          </CharString>
          <CharString index="149">
            116 callsubr
            -325 378 return
          </CharString>
          <CharString index="150">
            -21 22 451 27 -20 return
          </CharString>
          <CharString index="151">
            1 45 callgsubr
            return
          </CharString>
          <CharString index="152">
            105 2 101 -36 callgsubr
            rrcurveto
            65 callgsubr
            -79 -94 callgsubr
            endchar
          </CharString>
          <CharString index="153">
            70 callgsubr
            386 356 return
          </CharString>
          <CharString index="154">
            13 17 -47 hvcurveto
            17 -32 13 -83 -85 vvcurveto
            return
          </CharString>
          <CharString index="155">
            rmoveto
            16 -21 29 -41 10 -42 12 -52 0 -51 -10 -27 rrcurveto
            11 36 55 9 117 hhcurveto
            114 176 5 -16 108 hvcurveto
            return
          </CharString>
          <CharString index="156">
            -2 callgsubr
            20 19 return
          </CharString>
          <CharString index="157">
            920 63 callsubr
            return
          </CharString>
          <CharString index="158">
            124 219 149 return
          </CharString>
          <CharString index="159">
            -116 -27 -111 -169 -229 hhcurveto
            16 -9 12 -68 -66 vvcurveto
            return
          </CharString>
          <CharString index="160">
            71 -73 callgsubr
            319 196 435 128 callgsubr
            return
          </CharString>
          <CharString index="161">
            415 11 -21 35 181 -181 207 -149 263 151 180 29 22 callsubr
            return
          </CharString>
          <CharString index="162">
            -130 -91 2 21 -102 hvcurveto
            10 return
          </CharString>
          <CharString index="163">
            -21 25 200 -93 273 413 227 return
          </CharString>
          <CharString index="164">
            102 callgsubr
            vstem
            91 return
          </CharString>
          <CharString index="165">
            -90 -61 2 21 -72 hvcurveto
            10 -38 5 return
          </CharString>
          <CharString index="166">
            17 vvcurveto
            40 8 87 64 91 vhcurveto
            78 return
          </CharString>
          <CharString index="167">
            -21 25 425 15 -20 hstemhm
            return
          </CharString>
          <CharString index="168">
            -20 hstemhm
            215 375 return
          </CharString>
          <CharString index="169">
            -65 141 callsubr
            -14 callsubr
            return
          </CharString>
          <CharString index="170">
            225 35 -20 return
          </CharString>
          <CharString index="171">
            124 -124 238 250 395 -346 446 return
          </CharString>
          <CharString index="172">
            -4 -61 callgsubr
            105 2 63 -36 callgsubr
            return
          </CharString>
          <CharString index="173">
            -143 -53 -48 -110 -33 -57 4 6 -41 vhcurveto
            endchar
          </CharString>
          <CharString index="174">
            -20 hstemhm
            158 69 callgsubr
            return
          </CharString>
          <CharString index="175">
            400 230 400 return
          </CharString>
          <CharString index="176">
            -20 84 callsubr
            return
          </CharString>
          <CharString index="177">
            200 -7 95 rrcurveto
            -24 -45 -156 -31 -183 hhcurveto
            -183 -156 31 24 -45 hvcurveto
            -7 -95 return
          </CharString>
          <CharString index="178">
            126 callgsubr
            -70 311 -280 235 return
          </CharString>
          <CharString index="179">
            -32 callsubr
            44 return
          </CharString>
          <CharString index="180">
            -86 vvcurveto
            -168 vlineto
            -96 1 return
          </CharString>
          <CharString index="181">
            55 245 vvcurveto
            return
          </CharString>
          <CharString index="182">
            -20 hstemhm
            161 142 callgsubr
            557 405 return
          </CharString>
          <CharString index="183">
            vlineto
            130 42 52 74 83 22 -69 -159 vhcurveto
            return
          </CharString>
          <CharString index="184">
            72 38 callgsubr
            return
          </CharString>
          <CharString index="185">
            -58 -20 -35 -51 -39 -50 30 45 vhcurveto
            return
          </CharString>
          <CharString index="186">
            18 48 40 7 56 hhcurveto
            56 42 -7 -18 46 hvcurveto
            -24 45 13 173 25 157 return
          </CharString>
          <CharString index="187">
            -15 -40 -66 -10 -69 hhcurveto
            -61 -65 7 18 -54 hvcurveto
            10 -37 7 -64 -2 -54 rrcurveto
            return
          </CharString>
          <CharString index="188">
            -611 -176 -21 25 185 625 152 650 185 25 -20 hstem
            return
          </CharString>
          <CharString index="189">
            95 305 332 401 332 305 return
          </CharString>
          <CharString index="190">
            -531 298 -296 -21 return
          </CharString>
          <CharString index="191">
            hstemhm
            153 435 return
          </CharString>
          <CharString index="192">
            144 hhcurveto
            144 return
          </CharString>
          <CharString index="193">
            210 40 -20 return
          </CharString>
          <CharString index="194">
            -20 101 -9 callsubr
            return
          </CharString>
          <CharString index="195">
            -14 callgsubr
            endchar
          </CharString>
          <CharString index="196">
            -20 hstemhm
            179 400 return
          </CharString>
          <CharString index="197">
            147 rmoveto
            76 -2 91 -81 46 -74 rrcurveto
            16 55 81 19 82 hhcurveto
            80 return
          </CharString>
          <CharString index="198">
            -951 -129 -21 1820 -20 hstem
            180 322 vstem
            157 return
          </CharString>
          <CharString index="199">
            -21 690 -20 hstem
            120 440 vstem
            return
          </CharString>
          <CharString index="200">
            123 callgsubr
            366 319 return
          </CharString>
          <CharString index="201">
            294 -276 -21 188 294 hstemhm
            return
          </CharString>
          <CharString index="202">
            137 61 -57 -100 -100 -61 -57 -137 -137 -61 57 100 hvcurveto
            return
          </CharString>
          <CharString index="203">
            -611 -176 -21 25 195 1407 195 25 -20 hstem
            return
          </CharString>
          <CharString index="204">
            10 15 -46 hvcurveto
            hintmask 01100000
            -14 callgsubr
            return
          </CharString>
          <CharString index="205">
            rrcurveto
            -24 -33 -100 -11 -88 hhcurveto
            -99 -117 13 22 -34 hvcurveto
            -15 return
          </CharString>
          <CharString index="206">
            75 vvcurveto
            40 6 91 9 34 vhcurveto
            -21 -102 -91 -2 -130 hhcurveto
            return
          </CharString>
          <CharString index="207">
            -172 -42 211 14 -371 hvcurveto
            return
          </CharString>
          <CharString index="208">
            141 callgsubr
            135 -29 225 return
          </CharString>
          <CharString index="209">
            225 132 callgsubr
            return
          </CharString>
          <CharString index="210">
            174 -174 439 return
          </CharString>
          <CharString index="211">
            -12 -4 vhcurveto
            49 -14 53 return
          </CharString>
          <CharString index="212">
            247 808 -20 return
          </CharString>
          <CharString index="213">
            -16 -29 vhcurveto
            endchar
          </CharString>
          <CharString index="214">
            vhcurveto
            6 -28 6 -36 -36 vvcurveto
            -32 -6 -34 -6 -24 vhcurveto
            2 return
          </CharString>
          <CharString index="215">
            -10 -15 78 hvcurveto
            -34 61 -10 119 12 103 16 141 return
          </CharString>
          <CharString index="216">
            -6 -74 callsubr
            7 56 -13 callsubr
            -18 -52 return
          </CharString>
          <CharString index="217">
            rrcurveto
            12 -28 8 return
          </CharString>
          <CharString index="218">
            rrcurveto
            -9 28 -6 53 42 vvcurveto
            45 5 52 10 28 vhcurveto
            return
          </CharString>
          <CharString index="219">
            vhcurveto
            -20 -42 -107 -45 callgsubr
            -104 13 17 -47 hvcurveto
            return
          </CharString>
          <CharString index="220">
            hvcurveto
            9 -28 6 -53 -42 vvcurveto
            -45 -5 -52 -10 -28 vhcurveto
            return
          </CharString>
          <CharString index="221">
            -611 -176 -21 1628 219 25 -20 hstem
            return
          </CharString>
          <CharString index="222">
            8 -41 6 -43 -43 vvcurveto
            -47 -4 return
          </CharString>
          <CharString index="223">
            -20 hstemhm
            101 405 return
          </CharString>
          <CharString index="224">
            -48 -10 -52 -66 vhcurveto
            return
          </CharString>
          <CharString index="225">
            16 42 60 7 76 hhcurveto
            75 55 -7 -16 31 hvcurveto
            return
          </CharString>
          <CharString index="226">
            -272 73 -21 23 272 1310 -20 hstem
            return
          </CharString>
          <CharString index="227">
            -15 -115 7 hvcurveto
            2 -47 -7 -55 -10 -33 rrcurveto
            return
          </CharString>
          <CharString index="228">
            387 -314 393 return
          </CharString>
          <CharString index="229">
            -20 hstemhm
            329 372 return
          </CharString>
          <CharString index="230">
            -103 11 -21 35 195 return
          </CharString>
          <CharString index="231">
            158 350 155 return
          </CharString>
          <CharString index="232">
            372 266 342 return
          </CharString>
          <CharString index="233">
            -529 -21 30 333 return
          </CharString>
          <CharString index="234">
            185 35 -20 return
          </CharString>
          <CharString index="235">
            -15 4 -52 -21 vvcurveto
            hintmask 0110110010000000
            -24 -3 -43 return
          </CharString>
          <CharString index="236">
            922 21 -21 1180 63 callsubr
            return
          </CharString>
          <CharString index="237">
            -43 8 -95 -74 vvcurveto
            -41 -3 -37 -5 -22 vhcurveto
            return
          </CharString>
          <CharString index="238">
            -152 -64 -57 -64 -63 -29 58 64 197 return
          </CharString>
          <CharString index="239">
            185 45 -20 hstemhm
            return
          </CharString>
          <CharString index="240">
            205 35 -20 return
          </CharString>
          <CharString index="241">
            vvcurveto
            39 6 62 9 34 vhcurveto
            -21 -108 return
          </CharString>
          <CharString index="242">
            -21 25 262 218 262 23 -20 return
          </CharString>
          <CharString index="243">
            195 555 208 167 -20 hstemhm
            return
          </CharString>
          <CharString index="244">
            1531 17 callgsubr
            return
          </CharString>
          <CharString index="245">
            -20 hstemhm
            300 125 callsubr
            return
          </CharString>
          <CharString index="246">
            1161 17 callgsubr
            return
          </CharString>
          <CharString index="247">
            rmoveto
            hintmask 0000101000000000
            return
          </CharString>
          <CharString index="248">
            -20 -24 2 4 return
          </CharString>
        <CharString name=".notdef">
          endchar
        </CharString>
        <CharString name=".null">
          endchar
        </CharString>
        <CharString name="A">
          75 21 -21 25 235 190 195 795 -3 callgsubr
          hintmask 11110110
          -76 callgsubr
          hintmask 11111001
          -71 callsubr
          hintmask 11111010
          -106 callsubr
          endchar
        </CharString>
        <CharString name="AE">
          753 21 -21 25 86 callgsubr
          235 -235 485 -60 195 -22 -28 callgsubr
          hstemhm
          424 401 277 422 392 315 hintmask 1010101011110000
          8 hmoveto
          18 108 121 7 123 hhcurveto
          114 112 -7 -18 107 hvcurveto
          -4 22 -4 54 59 vvcurveto
          49 4 60 4 16 vhcurveto
          -44 1 -71 5 -38 28 rrcurveto
          93 29 139 63 211 hhcurveto
          151 29 -47 -106 3 hvcurveto
          -39 -33 -67 -3 -49 -1 rrcurveto
          4 -16 4 -60 -49 vvcurveto
          -59 -4 -54 -4 -22 vhcurveto
          15 80 462 10 85 callsubr
          399 -10 -15 80 hvcurveto
          -12 58 -13 102 103 vvcurveto
          121 17 117 8 34 vhcurveto
          hintmask 1001011011110000
          80 callsubr
          hintmask 1100010111110000
          -25 callsubr
          hintmask 1010101011110000
          -43 callsubr
          endchar
        </CharString>
        <CharString name="AEacute">
          753 21 -21 25 86 callgsubr
          235 -235 485 -60 195 -22 -28 callgsubr
          111 43 callsubr
          hstemhm
          424 401 277 422 392 315 hintmask 1010101010001110
          8 hmoveto
          18 108 121 7 123 hhcurveto
          114 112 -7 -18 107 hvcurveto
          -4 22 -4 54 59 vvcurveto
          49 4 60 4 16 vhcurveto
          -44 1 -71 5 -38 28 rrcurveto
          93 29 139 63 211 hhcurveto
          151 29 -47 -106 3 hvcurveto
          -39 -33 -67 -3 -49 -1 rrcurveto
          4 -16 4 -60 -49 vvcurveto
          -59 -4 -54 -4 -22 vhcurveto
          15 80 462 10 85 callsubr
          399 -10 -15 80 hvcurveto
          -12 58 -13 102 103 vvcurveto
          121 17 117 8 34 vhcurveto
          hintmask 1001011010001110
          80 callsubr
          hintmask 1100010110001110
          -25 callsubr
          hintmask 1010101010001110
          -43 callsubr
          hintmask 0000000001110000
          408 767 -97 callgsubr
        </CharString>
        <CharString name="Aacute">
          41 callgsubr
          111 -21 22 451 27 -3 callgsubr
          hintmask 1111000011000000
          -76 callgsubr
          hintmask 1111000100100000
          -71 callsubr
          hintmask 1111000101000000
          -106 callsubr
          hintmask 0000111000000000
          -6 767 -97 callgsubr
        </CharString>
        <CharString name="Abreve">
          41 callgsubr
          104 232 -65 65 -65 270 129 callgsubr
          -251 272 249 457 -368 272 -222 318 hintmask 1111000001010000
          -76 callgsubr
          hintmask 1111000010000100
          -71 callsubr
          hintmask 1111000010010000
          -106 callsubr
          hintmask 0000100100101000
          207 781 rmoveto
          hintmask 0000001100101000
          -71 callgsubr
          hintmask 0000010100101000
          -18 callsubr
          hintmask 0000001100101000
          -14 -23 -73 -13 -68 hhcurveto
          -75 -61 12 15 -27 -47 callgsubr
          hintmask 0000100100101000
          27 callgsubr
        </CharString>
        <CharString name="Acircumflex">
          41 callgsubr
          155 408 -403 -21 451 -3 callgsubr
          hintmask 1111000011000000
          -76 callgsubr
          hintmask 1111000100100000
          -71 callsubr
          hintmask 1111000101000000
          -106 callsubr
          hintmask 0000011000000000
          -321 816 -77 callgsubr
        </CharString>
        <CharString name="Adieresis">
          41 callgsubr
          241 -21 23 320 129 callgsubr
          -322 400 192 457 -419 400 -299 318 hintmask 1111000010100000
          -76 callgsubr
          hintmask 1111000100001000
          -71 callsubr
          hintmask 1111000100100000
          -106 callsubr
          hintmask 0000111001010000
          299 897 -106 callgsubr
        </CharString>
        <CharString name="Agrave">
          41 callgsubr
          111 -21 22 451 27 -3 callgsubr
          hintmask 1111000011000000
          -76 callgsubr
          hintmask 1111000100100000
          -71 callsubr
          hintmask 1111000101000000
          -106 callsubr
          hintmask 0000111000000000
          95 767 -84 callgsubr
        </CharString>
        <CharString name="Amacron">
          41 callgsubr
          174 -21 23 237 27 -3 callgsubr
          hintmask 1111000011000000
          -76 callgsubr
          hintmask 1111000100100000
          -71 callsubr
          hintmask 1111000101000000
          -106 callsubr
          hintmask 0000111000000000
          -238 830 -98 callsubr
        </CharString>
        <CharString name="Aogonek">
          75 126 callgsubr
          -39 225 208 235 190 195 795 -20 hstemhm
          304 211 -211 361 171 334 -221 450 -317 88 250 260 hintmask 1101110110010000
          -76 callgsubr
          hintmask 1101111000110000
          -46 1 -74 6 -38 30 rrcurveto
          129 10 63 24 211 hhcurveto
          252 31 -62 -115 -175 -45 -158 -221 -48 hvcurveto
          hintmask 1101111010010000
          14 -33 6 -79 -49 vvcurveto
          -76 -8 -63 -12 -31 49 callsubr
          93 16 62 hhcurveto
          106 70 -15 -21 37 hvcurveto
          hintmask 1011111010010000
          -21 callsubr
          hintmask 1101111010010000
          -152 -64 -47 -64 -63 -59 48 64 197 139 131 393 -71 vhcurveto
          -8 33 -4 52 52 vvcurveto
          48 4 43 6 32 vhcurveto
          -53 1 -68 34 -41 23 rrcurveto
          hintmask 1101111001010000
          -64 97 -75 151 114 vvcurveto
          28 7 21 18 6 vhcurveto
          -145 43 -115 499 29 141 2 10 -2 4 1 8 rrcurveto
          -25 -68 -147 -10 -121 hhcurveto
          -140 -127 10 25 -62 hvcurveto
          -16 -2 -1 2 -15 vhcurveto
          27 -169 -142 -466 -132 -38 rrcurveto
          16 -5 6 -27 -23 vvcurveto
          -112 -77 -154 -64 -99 vhcurveto
          -31 -27 -55 -25 -67 -3 rrcurveto
          6 -32 4 -43 -48 vvcurveto
          -52 -4 -52 -8 -33 vhcurveto
          647 743 rmoveto
          93 108 194 39 119 vhcurveto
          38 -119 109 -194 -93 vvcurveto
          -77 -29 -21 -118 -118 -29 21 77 vhcurveto
          endchar
        </CharString>
        <CharString name="Aring">
          0 callsubr
          781 -21 28 157 -150 -20 413 149 28 -20 12 callgsubr
          -243 303 210 457 -400 296 -214 318 hintmask 1110010001010000
          -76 callgsubr
          hintmask 1110010010000100
          -71 callsubr
          hintmask 1110010010010000
          -106 callsubr
          hintmask 0001101100101000
          -6 662 -67 callsubr
        </CharString>
        <CharString name="Atilde">
          41 callgsubr
          111 94 callsubr
          297 211 -211 368 -367 275 362 457 -318 318 -254 274 hintmask 1111000010100000
          -76 callgsubr
          hintmask 1111000100010000
          -71 callsubr
          hintmask 1111000100100000
          -106 callsubr
          hintmask 0000100001001000
          -375 788 17 callgsubr
          hintmask 0000011001001000
          -55 callgsubr
          hintmask 0000100001001000
          -65 callgsubr
          94 51 vvcurveto
          62 7 67 19 22 vhcurveto
          -14 -13 -99 -10 -66 hhcurveto
          hintmask 0000011001001000
          -53 -72 6 20 -19 hvcurveto
          13 -21 9 -32 -32 vvcurveto
          hintmask 0000100001001000
          117 callsubr
          hintmask 0000011001001000
          -69 callgsubr
          hintmask 0000100001001000
          15 callgsubr
        </CharString>
        <CharString name="B">
          80 callgsubr
          hstemhm
          282 401 329 401 -321 393 hintmask 1011111010000000
          4 callsubr
          hintmask 1011111100000000
          -47 callsubr
          hintmask 1101111010000000
          92 callgsubr
          endchar
        </CharString>
        <CharString name="C">
          10 callgsubr
          hstemhm
          161 142 callgsubr
          557 405 hintmask 11011101
          -46 callsubr
          hintmask 10111101
          -51 callgsubr
          hintmask 11011011
          -94 callsubr
          hintmask 11011101
          -93 callgsubr
          endchar
        </CharString>
        <CharString name="CR">
          endchar
        </CharString>
        <CharString name="Cacute">
          10 callgsubr
          91 -21 22 451 27 75 callsubr
          hintmask 1101100010100000
          -46 callsubr
          hintmask 1011100010100000
          -51 callgsubr
          hintmask 1101100001100000
          -94 callsubr
          hintmask 1101100010100000
          -93 callgsubr
          hintmask 0000011100000000
          575 1242 -97 callgsubr
        </CharString>
        <CharString name="Ccaron">
          10 callgsubr
          140 -21 25 411 15 75 callsubr
          hintmask 1101100010100000
          -46 callsubr
          hintmask 1011100010100000
          -51 callgsubr
          hintmask 1101100001100000
          -94 callsubr
          hintmask 1101100010100000
          -93 callgsubr
          hintmask 0000011000000000
          583 1291 -60 callgsubr
        </CharString>
        <CharString name="Ccedilla">
          75 83 callsubr
          551 45 callgsubr
          -151 -20 154 367 640 86 callsubr
          hstemhm
          161 142 callgsubr
          -74 503 -231 231 128 405 hintmask 0011001110001000
          -46 callsubr
          hintmask 0010011110001000
          -51 callgsubr
          hintmask 0011001101001000
          -94 callsubr
          hintmask 0011001110001000
          -93 callgsubr
          hintmask 0100100000100000
          394 -491 21 callsubr
          hintmask 1000100000100000
          10 38 77 9 87 hhcurveto
          hintmask 0100100000010000
          -46 callgsubr
          hintmask 1000100000100000
          66 callsubr
        </CharString>
        <CharString name="Ccircumflex">
          10 callgsubr
          135 408 -403 -21 451 75 callsubr
          hintmask 1101100010100000
          -46 callsubr
          hintmask 1011100010100000
          -51 callgsubr
          hintmask 1101100001100000
          -94 callsubr
          hintmask 1101100010100000
          -93 callgsubr
          hintmask 0000001100000000
          260 1291 -78 callsubr
        </CharString>
        <CharString name="Cdotaccent">
          10 callgsubr
          175 11 callsubr
          161 142 callgsubr
          83 435 39 405 hintmask 1101100010010000
          -46 callsubr
          hintmask 1011100010010000
          -51 callgsubr
          hintmask 1101100001010000
          -94 callsubr
          hintmask 1101100010010000
          -93 callgsubr
          hintmask 0000001100100000
          544 1327 rmoveto
          hintmask 0000010100100000
          -26 callgsubr
          hintmask 0000001100100000
          -15 callsubr
          87 84 vvcurveto
          84 8 82 17 34 vhcurveto
          hintmask 0000010100100000
          -20 -42 -102 -45 callgsubr
          -99 47 callsubr
          hintmask 0000001100100000
          -7 callgsubr
          endchar
        </CharString>
        <CharString name="D">
          52 callgsubr
          hstemhm
          687 492 hintmask 10111100
          -81 callsubr
          hintmask 11011100
          64 callgsubr
          endchar
        </CharString>
        <CharString name="Dcaron">
          52 callgsubr
          160 74 callgsubr
          687 492 hintmask 1011100010000000
          -81 callsubr
          hintmask 1101100010000000
          64 callgsubr
          hintmask 0000011000000000
          -41 1317 -60 callgsubr
        </CharString>
        <CharString name="Dcroat">
          12 21 -21 25 195 428 246 316 128 callgsubr
          hstem
          282 404 251 185 vstem
          100 hmoveto
          15 53 379 10 130 hhcurveto
          231 207 -6 -19 63 hvcurveto
          15 92 206 120 101 4 -35 252 63 247 90 20 -85 23 -70 251 37 215 -101 4 -215 130 -6 82 rrcurveto
          -27 -63 -207 -8 -231 -29 callgsubr
          hvcurveto
          -65 vlineto
          -53 -24 -21 -65 -23 -27 2 4 -33 vhcurveto
          9 -35 0 -44 -41 vvcurveto
          -47 -3 39 callgsubr
          4 33 26 4 23 hhcurveto
          72 18 -33 -47 hvcurveto
          -169 vlineto
          -115 -63 -32 -119 -101 callsubr
          586 239 rmoveto
          -8 105 -4 144 -1 84 rrcurveto
          51 -1 29 25 101 hhcurveto
          43 27 -4 -9 74 hvcurveto
          -6 38 -3 49 55 vvcurveto
          49 0 49 9 35 vhcurveto
          -11 -72 -27 -7 -43 hhcurveto
          -99 -33 33 66 27 4 110 9 57 hvcurveto
          19 39 46 6 55 hhcurveto
          195 102 -160 -291 -385 -132 -154 -175 -58 -34 6 13 -37 hvcurveto
          endchar
        </CharString>
        <CharString name="Delta">
          75 0 260 -235 235 1180 -20 hstemhm
          hintmask 10100000
          8 hmoveto
          hintmask 01100000
          18 240 287 7 255 hhcurveto
          hintmask 10100000
          354 362 -13 -12 196 hvcurveto
          -6 33 -6 52 52 vvcurveto
          48 0 43 10 32 vhcurveto
          -91 -9 -167 253 176 vvcurveto
          28 7 21 18 6 vhcurveto
          -175 43 -140 499 34 141 2 10 -2 4 1 8 rrcurveto
          -25 -68 -147 -10 -121 hhcurveto
          -140 -127 10 25 -62 hvcurveto
          -16 -2 -1 2 -15 vhcurveto
          32 -169 -172 -466 -157 -38 rrcurveto
          16 -5 6 -27 -23 vvcurveto
          -156 -161 -264 -76 vhcurveto
          -32 10 -42 -49 vvcurveto
          -52 -6 -52 -6 -33 vhcurveto
          404 291 rmoveto
          106 308 126 235 150 329 72 -182 268 -502 36 -185 rrcurveto
          -38 -86 -215 4 -99 hhcurveto
          -91 -187 -1 32 -80 hvcurveto
          endchar
        </CharString>
        <CharString name="E">
          -60 callsubr
          hstemhm
          282 401 392 334 hintmask 1011101110000000
          -23 callgsubr
          418 -10 -15 80 hvcurveto
          -11 58 -14 102 103 vvcurveto
          121 17 117 8 34 vhcurveto
          -15 -40 -85 -10 -69 hhcurveto
          -61 -65 7 18 -54 hvcurveto
          10 -37 7 -64 -2 -54 rrcurveto
          hintmask 1101011110000000
          -104 callgsubr
          hintmask 1101101110000000
          30 callsubr
          85 -74 callgsubr
          -418 -99 callsubr
          endchar
        </CharString>
        <CharString name="Eacute">
          -60 callsubr
          111 -21 22 451 27 47 callgsubr
          hintmask 1011101000110000
          -23 callgsubr
          418 -10 -15 80 hvcurveto
          -11 58 -14 102 103 vvcurveto
          121 17 117 8 34 vhcurveto
          -15 -40 -85 -10 -69 hhcurveto
          -61 -65 7 18 -54 hvcurveto
          10 -37 7 -64 -2 -54 rrcurveto
          hintmask 1101011000110000
          -104 callgsubr
          hintmask 1101101000110000
          30 callsubr
          85 -74 callgsubr
          -418 -99 callsubr
          hintmask 0000000111000000
          444 1510 -97 callgsubr
        </CharString>
        <CharString name="Ebreve">
          -60 callsubr
          104 18 callsubr
          282 401 -367 272 338 272 -123 334 hintmask 1011101000010010
          -23 callgsubr
          418 -10 -15 80 hvcurveto
          -11 58 -14 102 103 vvcurveto
          121 17 117 8 34 vhcurveto
          -15 -40 -85 -10 -69 hhcurveto
          -61 -65 7 18 -54 hvcurveto
          10 -37 7 -64 -2 -54 rrcurveto
          hintmask 1101011000010010
          -104 callgsubr
          hintmask 1101101000010010
          30 callsubr
          85 -74 callgsubr
          -418 -99 callsubr
          hintmask 0000000100101100
          657 1524 rmoveto
          hintmask 0000000001101100
          -71 callgsubr
          hintmask 0000000010101100
          -18 callsubr
          hintmask 0000000001101100
          -14 -23 -73 -13 -68 hhcurveto
          -75 -61 12 15 -27 -47 callgsubr
          hintmask 0000000100101100
          27 callgsubr
        </CharString>
        <CharString name="Ecaron">
          -60 callsubr
          160 -21 25 411 15 47 callgsubr
          hintmask 1011101000110000
          -23 callgsubr
          418 -10 -15 80 hvcurveto
          -11 58 -14 102 103 vvcurveto
          121 17 117 8 34 vhcurveto
          -15 -40 -85 -10 -69 hhcurveto
          -61 -65 7 18 -54 hvcurveto
          10 -37 7 -64 -2 -54 rrcurveto
          hintmask 1101011000110000
          -104 callgsubr
          hintmask 1101101000110000
          30 callsubr
          85 -74 callgsubr
          -418 -99 callsubr
          hintmask 0000000110000000
          452 1559 rmoveto
          15 32 91 10 79 hhcurveto
          91 76 -10 -15 32 hvcurveto
          hintmask 0000000101000000
          -9 83 316 324 72 44 rrcurveto
          hintmask 0000000110000000
          -7 -27 -76 -8 -130 hhcurveto
          hintmask 0000000101000000
          -118 -68 9 6 -40 hvcurveto
          -17 -49 -30 -112 -64 -87 -76 87 -34 112 -20 49 rrcurveto
          hintmask 0000000110000000
          -12 callgsubr
          hintmask 0000000101000000
          -130 -76 9 6 -27 hvcurveto
          72 -44 306 -324 -9 -83 rrcurveto
          endchar
        </CharString>
        <CharString name="Ecircumflex">
          -60 callsubr
          155 408 -403 -21 451 47 callgsubr
          hintmask 1011101000110000
          -23 callgsubr
          418 -10 -15 80 hvcurveto
          -11 58 -14 102 103 vvcurveto
          121 17 117 8 34 vhcurveto
          -15 -40 -85 -10 -69 hhcurveto
          -61 -65 7 18 -54 hvcurveto
          10 -37 7 -64 -2 -54 rrcurveto
          hintmask 1101011000110000
          -104 callgsubr
          hintmask 1101101000110000
          30 callsubr
          85 -74 callgsubr
          -418 -99 callsubr
          hintmask 0000000011000000
          129 1559 rmoveto
          hintmask 0000000101000000
          7 20 67 9 90 hhcurveto
          hintmask 0000000011000000
          85 45 -9 -7 19 hvcurveto
          27 36 47 91 133 67 120 -67 43 -91 24 -36 rrcurveto
          hintmask 0000000101000000
          7 26 48 9 86 hhcurveto
          hintmask 0000000011000000
          90 67 -9 -7 20 hvcurveto
          -59 43 -276 328 10 80 rrcurveto
          hintmask 0000000101000000
          -16 -33 -80 -11 -94 hhcurveto
          -82 -96 11 16 -33 hvcurveto
          hintmask 0000000011000000
          10 -80 -265 -328 -59 -43 rrcurveto
          endchar
        </CharString>
        <CharString name="Edieresis">
          -60 callsubr
          241 -21 23 320 27 -20 hstemhm
          245 400 -363 401 192 400 -200 334 hintmask 1011101000010100
          -23 callgsubr
          418 -10 -15 80 hvcurveto
          -11 58 -14 102 103 vvcurveto
          121 17 117 8 34 vhcurveto
          -15 -40 -85 -10 -69 hhcurveto
          -61 -65 7 18 -54 hvcurveto
          10 -37 7 -64 -2 -54 rrcurveto
          hintmask 1101011000010100
          -104 callgsubr
          hintmask 1101101000010100
          30 callsubr
          85 -74 callgsubr
          -418 -99 callsubr
          hintmask 0000000111101000
          749 1640 -106 callgsubr
        </CharString>
        <CharString name="Edotaccent">
          -60 callsubr
          195 365 -364 -21 415 -20 hstemhm
          282 401 -141 435 98 334 hintmask 1011101000101000
          -23 callgsubr
          418 -10 -15 80 hvcurveto
          -11 58 -14 102 103 vvcurveto
          121 17 117 8 34 vhcurveto
          -15 -40 -85 -10 -69 hhcurveto
          -61 -65 7 18 -54 hvcurveto
          10 -37 7 -64 -2 -54 rrcurveto
          hintmask 1101011000101000
          -104 callgsubr
          hintmask 1101101000101000
          30 callsubr
          85 -74 callgsubr
          -418 -99 callsubr
          hintmask 0000000011010000
          413 1595 rmoveto
          hintmask 0000000101010000
          -26 callgsubr
          hintmask 0000000011010000
          -15 callsubr
          87 84 vvcurveto
          84 8 82 17 34 vhcurveto
          hintmask 0000000101010000
          -20 -42 -102 -45 callgsubr
          -99 47 callsubr
          hintmask 0000000011010000
          -7 callgsubr
          endchar
        </CharString>
        <CharString name="Egrave">
          -60 callsubr
          111 -21 22 451 27 47 callgsubr
          hintmask 1011101000110000
          -23 callgsubr
          418 -10 -15 80 hvcurveto
          -11 58 -14 102 103 vvcurveto
          121 17 117 8 34 vhcurveto
          -15 -40 -85 -10 -69 hhcurveto
          -61 -65 7 18 -54 hvcurveto
          10 -37 7 -64 -2 -54 rrcurveto
          hintmask 1101011000110000
          -104 callgsubr
          hintmask 1101101000110000
          30 callsubr
          85 -74 callgsubr
          -418 -99 callsubr
          hintmask 0000000111000000
          545 1510 -84 callgsubr
        </CharString>
        <CharString name="Emacron">
          -60 callsubr
          174 -21 23 237 27 47 callgsubr
          hintmask 1011101000110000
          -23 callgsubr
          418 -10 -15 80 hvcurveto
          -11 58 -14 102 103 vvcurveto
          121 17 117 8 34 vhcurveto
          -15 -40 -85 -10 -69 hhcurveto
          -61 -65 7 18 -54 hvcurveto
          10 -37 7 -64 -2 -54 rrcurveto
          hintmask 1101011000110000
          -104 callgsubr
          hintmask 1101101000110000
          30 callsubr
          85 -74 callgsubr
          -418 -99 callsubr
          hintmask 0000000111000000
          212 1573 -98 callsubr
        </CharString>
        <CharString name="Eng">
          243 -529 -21 38 185 -87 307 132 235 50 callsubr
          hstemhm
          282 373 -373 401 -192 498 274 390 hintmask 1101110101000000
          100 -92 callgsubr
          177 7 138 25 57 hvcurveto
          190 -122 358 -422 -337 vvcurveto
          -152 -61 -73 -91 vhcurveto
          hintmask 1011110011000000
          -76 -46 42 65 45 7 43 20 50 hvcurveto
          -18 -57 -89 -7 -64 hhcurveto
          -129 -141 10 15 -70 hvcurveto
          15 -25 10 -74 -65 vvcurveto
          -84 -25 -84 0 vhcurveto
          161 -3 119 -69 5 -64 rrcurveto
          hintmask 1101111001000000
          21 53 113 17 157 hhcurveto
          144 109 -14 -24 37 hvcurveto
          26 124 179 142 120 15 rrcurveto
          -59 40 10 350 149 vvcurveto
          200 16 182 76 83 vhcurveto
          -47 16 -32 74 callsubr
          114 73 17 109 -2 vhcurveto
          109 callsubr
          -176 43 callgsubr
          -179 -33 callgsubr
          -188 -2 -175 -22 -79 vhcurveto
          -4 1 -4 0 0 vvcurveto
          -79 -486 566 257 hvcurveto
          -15 -80 -98 -13 -99 hhcurveto
          -152 -74 -1 callgsubr
          -91 -224 vvcurveto
          -115 -63 -32 -119 -101 callsubr
          endchar
        </CharString>
        <CharString name="Eogonek">
          -99 101 callsubr
          183 220 -220 510 -485 195 403 -28 callgsubr
          hstemhm
          282 401 -108 334 166 335 -281 281 hintmask 1101001101101000
          100 hmoveto
          hintmask 1100011101011000
          15 80 468 10 144 hhcurveto
          49 hlineto
          -66 -65 -115 -55 -105 -13 rrcurveto
          14 -37 6 -65 -69 40 callsubr
          63 16 62 hhcurveto
          106 70 -15 -21 37 hvcurveto
          hintmask 1011001101100100
          -21 callsubr
          hintmask 1100101101011000
          131 callsubr
          237 76 289 -16 vhcurveto
          -11 58 -14 102 103 vvcurveto
          121 17 117 8 34 vhcurveto
          -15 -40 -86 -10 -69 hhcurveto
          -61 -65 7 18 -54 hvcurveto
          10 -37 7 -64 -2 -54 rrcurveto
          hintmask 1101001011101000
          -104 callgsubr
          hintmask 1101001101101000
          30 callsubr
          86 -74 callgsubr
          -419 -99 callsubr
          endchar
        </CharString>
        <CharString name="Eth">
          12 21 -21 25 195 428 246 316 128 callgsubr
          hstem
          282 404 251 185 vstem
          100 hmoveto
          15 53 379 10 130 hhcurveto
          231 207 -6 -19 63 hvcurveto
          15 92 206 120 101 4 -35 252 63 247 90 20 -85 23 -70 251 37 215 -101 4 -215 130 -6 82 rrcurveto
          -27 -63 -207 -8 -231 -29 callgsubr
          hvcurveto
          -65 vlineto
          -53 -24 -21 -65 -23 -27 2 4 -33 vhcurveto
          9 -35 0 -44 -41 vvcurveto
          -47 -3 39 callgsubr
          4 33 26 4 23 hhcurveto
          72 18 -33 -47 hvcurveto
          -169 vlineto
          -115 -63 -32 -119 -101 callsubr
          586 239 rmoveto
          -8 105 -4 144 -1 84 rrcurveto
          51 -1 29 25 101 hhcurveto
          43 27 -4 -9 74 hvcurveto
          -6 38 -3 49 55 vvcurveto
          49 0 49 9 35 vhcurveto
          -11 -72 -27 -7 -43 hhcurveto
          -99 -33 33 66 27 4 110 9 57 hvcurveto
          19 39 46 6 55 hhcurveto
          195 102 -160 -291 -385 -132 -154 -175 -58 -34 6 13 -37 hvcurveto
          endchar
        </CharString>
        <CharString name="Euro">
          71 9 -21 37 86 callgsubr
          454 -231 377 -171 171 159 171 -12 324 -47 127 callsubr
          hstemhm
          311 392 -392 442 487 339 hintmask 1110010110110000
          265 248 rmoveto
          108 199 -148 -112 31 hvcurveto
          24 44 185 13 176 hhcurveto
          130 158 -11 -26 25 hvcurveto
          22 67 126 128 122 26 rrcurveto
          -6 18 -6 60 57 65 10 44 43 vvcurveto
          -12 -23 -82 -5 -64 hhcurveto
          -77 -55 3 11 -29 hvcurveto
          1 -17 1 -14 -15 vvcurveto
          -136 -109 -91 -195 -121 -83 59 99 vhcurveto
          hintmask 1100110111010000
          58 78 18 101 50 44 3 -9 90 vhcurveto
          -10 32 0 23 47 42 10 18 29 vvcurveto
          -12 -108 -64 -2 -60 hhcurveto
          -139 -42 23 40 41 29 55 130 48 150 -4 -9 86 hvcurveto
          -10 32 0 30 47 42 10 18 29 vvcurveto
          -9 -64 -51 -5 -37 hhcurveto
          -217 2 -24 4 -1 113 rrcurveto
          78 -1 59 68 143 hhcurveto
          167 120 -71 -178 -14 -1 -14 -1 -16 hvcurveto
          hintmask 1101001011010000
          10 50 48 6 72 hhcurveto
          61 63 -5 -11 57 hvcurveto
          -6 21 -6 64 76 vvcurveto
          62 5 72 11 45 vhcurveto
          -101 -7 -191 125 -30 55 rrcurveto
          hintmask 1101010111010000
          -17 -54 -169 -18 -98 hhcurveto
          -134 -143 11 24 -44 hvcurveto
          -29 -124 -202 -149 -132 -15 rrcurveto
          24 -45 21 -51 -55 vvcurveto
          -53 -28 9 -81 141 callsubr
          -29 vhcurveto
          10 -28 0 -18 -34 vvcurveto
          -39 -1 -22 -9 -31 23 callsubr
          121 9 -51 -47 -53 -6 -31 -163 141 callsubr
          -29 hvcurveto
          10 -28 0 -18 -34 vvcurveto
          -39 -4 -22 -6 -31 23 callsubr
          128 26 -23 -47 -26 -6 -71 -44 -44 hvcurveto
          endchar
        </CharString>
        <CharString name="F">
          -94 -73 callgsubr
          363 226 361 195 132 callgsubr
          442 335 vstem
          -68 callsubr
          endchar
        </CharString>
        <CharString name="G">
          24 callsubr
          hstemhm
          155 455 -99 99 523 415 hintmask 11111011
          -102 callgsubr
          hintmask 11111101
          -93 callgsubr
          endchar
        </CharString>
        <CharString name="Gbreve">
          24 callsubr
          84 18 callsubr
          155 455 -163 272 -208 99 447 272 -196 415 hintmask 1111100000010100
          -102 callgsubr
          hintmask 1111100001000100
          -93 callgsubr
          hintmask 0000010010101000
          788 1256 rmoveto
          hintmask 0000000110101000
          -71 callgsubr
          hintmask 0000001010101000
          -18 callsubr
          hintmask 0000000110101000
          -14 -23 -73 -13 -68 hhcurveto
          -75 -61 12 15 -27 -47 callgsubr
          hintmask 0000010010101000
          27 callgsubr
        </CharString>
        <CharString name="Gcircumflex">
          24 callsubr
          135 -16 callgsubr
          155 455 -99 99 523 415 hintmask 1111100001100000
          -102 callgsubr
          hintmask 1111100010100000
          -93 callgsubr
          hintmask 0000001100000000
          260 1291 -78 callsubr
        </CharString>
        <CharString name="Gcommaaccent">
          67 25 callgsubr
          133 35 callsubr
          hstemhm
          155 455 -99 99 7 480 36 415 hintmask 0011111010100000
          -102 callgsubr
          hintmask 0011111100100000
          -93 callgsubr
          hintmask 1100000001000000
          487 -380 rmoveto
          16 -23 14 -62 -65 vvcurveto
          -66 -13 -52 -16 -22 vhcurveto
          31 10 87 9 85 4 16 -11 8 -22 -1 -24 -1 -40 -6 -51 -13 -23 rrcurveto
          16 16 76 -2 19 hhcurveto
          28 67 -3 -11 12 hvcurveto
          48 52 87 63 13 vhcurveto
          -20 32 -10 52 55 vvcurveto
          66 10 62 20 23 vhcurveto
          -20 -42 -147 -45 callgsubr
          -104 13 17 -47 hvcurveto
          endchar
        </CharString>
        <CharString name="Gdotaccent">
          24 callsubr
          175 11 callsubr
          155 455 -99 99 63 435 25 415 hintmask 1111100001010000
          -102 callgsubr
          hintmask 1111100010010000
          -93 callgsubr
          hintmask 0000001100100000
          544 1327 rmoveto
          hintmask 0000010100100000
          -26 callgsubr
          hintmask 0000001100100000
          -15 callsubr
          87 84 vvcurveto
          84 8 82 17 34 vhcurveto
          hintmask 0000010100100000
          -20 -42 -102 -45 callgsubr
          -99 47 callsubr
          hintmask 0000001100100000
          -7 callgsubr
          endchar
        </CharString>
        <CharString name="H">
          247 -73 callgsubr
          365 205 350 63 callsubr
          hstem
          249 401 579 401 vstem
          67 hmoveto
          15 76 170 10 136 hhcurveto
          136 171 -96 callsubr
          -119 -63 32 115 82 3 64 6 49 hvcurveto
          15 77 105 8 99 hhcurveto
          105 99 -9 -16 76 hvcurveto
          6 -49 3 -63 -81 vvcurveto
          -115 -49 -32 -133 vhcurveto
          -38 callsubr
          -119 -63 -61 callsubr
          114 84 17 98 -2 vhcurveto
          109 callsubr
          -179 -17 -152 hhcurveto
          -154 -176 -99 callgsubr
          109 2 73 -10 callgsubr
          -89 -3 -64 -6 -46 vhcurveto
          -15 -75 -102 -7 -103 hhcurveto
          -102 -103 7 14 -76 hvcurveto
          -6 46 -3 64 90 vvcurveto
          114 84 17 98 -2 vhcurveto
          109 callsubr
          -179 -17 -152 hhcurveto
          -154 -176 -99 callgsubr
          109 2 73 -10 callgsubr
          -245 -22 -55 -47 -16 vhcurveto
          19 callgsubr
          -49 -32 -133 -101 callsubr
          endchar
        </CharString>
        <CharString name="Hbar">
          247 -73 callgsubr
          177 205 182 205 151 63 callsubr
          hstem
          249 392 598 391 vstem
          67 hmoveto
          15 76 170 10 136 hhcurveto
          136 171 -96 callsubr
          -169 -22 38 47 77 19 15 278 hvcurveto
          4 hlineto
          278 19 -15 -77 -47 -22 -38 -170 hvcurveto
          -38 callsubr
          -119 -63 32 115 224 23 71 46 13 hvcurveto
          15 -40 -55 115 105 hhcurveto
          23 104 -3 -5 33 hvcurveto
          -6 38 -3 27 47 vvcurveto
          42 2 33 7 35 vhcurveto
          -18 -29 -132 3 -20 hhcurveto
          -16 -23 5 12 -19 hvcurveto
          5 105 82 16 95 -2 rrcurveto
          109 callsubr
          -179 -17 -152 hhcurveto
          -154 -176 -99 callgsubr
          175 2 27 -16 -54 vvcurveto
          -68 -27 -15 -282 -283 -26 15 68 54 26 16 176 -2 vhcurveto
          -7 -74 callsubr
          7 56 -13 callsubr
          -18 -52 -179 -17 -152 hhcurveto
          -154 -176 -99 callgsubr
          105 2 72 -16 5 -103 rrcurveto
          -14 -17 -21 -5 -17 hhcurveto
          -20 -128 -3 18 -29 hvcurveto
          7 -35 2 -33 -42 vvcurveto
          -47 -3 -27 -6 -38 vhcurveto
          5 33 100 3 23 hhcurveto
          84 -14 -107 -23 -63 hvcurveto
          46 -13 23 -71 34 callsubr
          -49 -32 -133 -101 callsubr
          574 737 rmoveto
          72 5 15 294 294 5 -15 -72 -78 -18 -17 -279 -283 -18 17 78 vhcurveto
          endchar
        </CharString>
        <CharString name="Hcircumflex">
          247 -73 callgsubr
          365 205 350 63 callsubr
          155 -16 callgsubr
          249 401 579 401 hintmask 1111100011000000
          67 hmoveto
          15 76 170 10 136 hhcurveto
          136 171 -96 callsubr
          -119 -63 32 115 82 3 64 6 49 hvcurveto
          15 77 105 8 99 hhcurveto
          105 99 -9 -16 76 hvcurveto
          6 -49 3 -63 -81 vvcurveto
          -115 -49 -32 -133 vhcurveto
          -38 callsubr
          -119 -63 -61 callsubr
          114 84 17 98 -2 vhcurveto
          109 callsubr
          -179 -17 -152 hhcurveto
          -154 -176 -99 callgsubr
          109 2 73 -10 callgsubr
          -89 -3 -64 -6 -46 vhcurveto
          -15 -75 -102 -7 -103 hhcurveto
          -102 -103 7 14 -76 hvcurveto
          -6 46 -3 64 90 vvcurveto
          114 84 17 98 -2 vhcurveto
          109 callsubr
          -179 -17 -152 hhcurveto
          -154 -176 -99 callgsubr
          109 2 73 -10 callgsubr
          -245 -22 -55 -47 -16 vhcurveto
          19 callgsubr
          -49 -32 -133 -101 callsubr
          hintmask 0000001100000000
          344 1559 -78 callsubr
        </CharString>
        <CharString name="I">
          6 callsubr
          hstem
          322 401 vstem
          110 hmoveto
          15 76 201 10 136 hhcurveto
          136 200 -79 callgsubr
          -79 -61 callsubr
          114 83 17 109 -2 vhcurveto
          109 callsubr
          -186 43 callgsubr
          -219 -99 callgsubr
          98 2 124 -10 callgsubr
          -245 -22 -55 -47 -16 vhcurveto
          19 callgsubr
          -93 -32 -119 -101 callsubr
          endchar
        </CharString>
        <CharString name="IJ">
          758 11 -21 31 -21 25 86 callgsubr
          235 13 357 550 63 callsubr
          hstemhm
          322 401 389 94 callgsubr
          hintmask 0101011100000000
          110 hmoveto
          15 76 201 10 136 hhcurveto
          136 200 -79 callgsubr
          -79 -61 callsubr
          114 83 17 109 -2 vhcurveto
          109 callsubr
          -186 43 callgsubr
          -219 -99 callgsubr
          98 2 124 -10 callgsubr
          -245 -22 -55 -47 -16 vhcurveto
          19 callgsubr
          -93 -32 -119 -101 callsubr
          hintmask 1010111010100000
          977 -80 callgsubr
          hintmask 1010111001100000
          -9 callgsubr
          endchar
        </CharString>
        <CharString name="Iacute">
          6 callsubr
          111 43 callsubr
          hstemhm
          322 401 hintmask 11110001
          110 hmoveto
          15 76 201 10 136 hhcurveto
          136 200 -79 callgsubr
          -79 -61 callsubr
          114 83 17 109 -2 vhcurveto
          109 callsubr
          -186 43 callgsubr
          -219 -99 callgsubr
          98 2 124 -10 callgsubr
          -245 -22 -55 -47 -16 vhcurveto
          19 callgsubr
          -93 -32 -119 -101 callsubr
          hintmask 00001110
          189 1510 -97 callgsubr
        </CharString>
        <CharString name="Ibreve">
          6 callsubr
          104 18 callsubr
          71 272 -21 401 -42 272 hintmask 1111000001000000
          110 hmoveto
          15 76 201 10 136 hhcurveto
          136 200 -79 callgsubr
          -79 -61 callsubr
          114 83 17 109 -2 vhcurveto
          109 callsubr
          -186 43 callgsubr
          -219 -99 callgsubr
          98 2 124 -10 callgsubr
          -245 -22 -55 -47 -16 vhcurveto
          19 callgsubr
          -93 -32 -119 -101 callsubr
          hintmask 0000100110100000
          402 1524 rmoveto
          hintmask 0000001110100000
          -71 callgsubr
          hintmask 0000010110100000
          -18 callsubr
          hintmask 0000001110100000
          -14 -23 -73 -13 -68 hhcurveto
          -75 -61 12 15 -27 -47 callgsubr
          hintmask 0000100110100000
          27 callgsubr
        </CharString>
        <CharString name="Icircumflex">
          6 callsubr
          155 -16 callgsubr
          322 401 hintmask 11110001
          110 hmoveto
          15 76 201 10 136 hhcurveto
          136 200 -79 callgsubr
          -79 -61 callsubr
          114 83 17 109 -2 vhcurveto
          109 callsubr
          -186 43 callgsubr
          -219 -99 callgsubr
          98 2 124 -10 callgsubr
          -245 -22 -55 -47 -16 vhcurveto
          19 callgsubr
          -93 -32 -119 -101 callsubr
          hintmask 00000110
          -126 1559 rmoveto
          hintmask 00001010
          7 20 67 9 90 hhcurveto
          hintmask 00000110
          85 45 -9 -7 19 hvcurveto
          27 36 47 91 133 67 120 -67 43 -91 24 -36 rrcurveto
          hintmask 00001010
          7 26 48 9 86 hhcurveto
          hintmask 00000110
          90 67 -9 -7 20 hvcurveto
          -59 43 -276 328 10 80 rrcurveto
          hintmask 00001010
          -16 -33 -80 -11 -94 hhcurveto
          -82 -96 11 16 -33 hvcurveto
          hintmask 00000110
          10 -80 -265 -328 -59 -43 rrcurveto
          endchar
        </CharString>
        <CharString name="Idieresis">
          6 callsubr
          241 -21 23 320 27 -20 hstemhm
          0 400 -78 401 -93 400 hintmask 1111000010000000
          110 hmoveto
          15 76 201 10 136 hhcurveto
          136 200 -79 callgsubr
          -79 -61 callsubr
          114 83 17 109 -2 vhcurveto
          109 callsubr
          -186 43 callgsubr
          -219 -99 callgsubr
          98 2 124 -10 callgsubr
          -245 -22 -55 -47 -16 vhcurveto
          19 callgsubr
          -93 -32 -119 -101 callsubr
          hintmask 0000111101000000
          494 1640 -106 callgsubr
        </CharString>
        <CharString name="Idotaccent">
          6 callsubr
          195 11 callsubr
          297 435 -410 401 hintmask 1111000010000000
          110 hmoveto
          15 76 201 10 136 hhcurveto
          136 200 -79 callgsubr
          -79 -61 callsubr
          114 83 17 109 -2 vhcurveto
          109 callsubr
          -186 43 callgsubr
          -219 -99 callgsubr
          98 2 124 -10 callgsubr
          -245 -22 -55 -47 -16 vhcurveto
          19 callgsubr
          -93 -32 -119 -101 callsubr
          hintmask 0000011100000000
          158 1595 rmoveto
          hintmask 0000101100000000
          -26 callgsubr
          hintmask 0000011100000000
          -15 callsubr
          87 84 vvcurveto
          84 8 82 17 34 vhcurveto
          hintmask 0000101100000000
          -20 -42 -102 -45 callgsubr
          -99 47 callsubr
          hintmask 0000011100000000
          -7 callgsubr
          endchar
        </CharString>
        <CharString name="Igrave">
          6 callsubr
          111 43 callsubr
          hstemhm
          322 401 hintmask 11110001
          110 hmoveto
          15 76 201 10 136 hhcurveto
          136 200 -79 callgsubr
          -79 -61 callsubr
          114 83 17 109 -2 vhcurveto
          109 callsubr
          -186 43 callgsubr
          -219 -99 callgsubr
          98 2 124 -10 callgsubr
          -245 -22 -55 -47 -16 vhcurveto
          19 callgsubr
          -93 -32 -119 -101 callsubr
          hintmask 00001110
          290 1510 -84 callgsubr
        </CharString>
        <CharString name="Imacron">
          6 callsubr
          174 50 callgsubr
          hstemhm
          322 401 hintmask 11110001
          110 hmoveto
          15 76 201 10 136 hhcurveto
          136 200 -79 callgsubr
          -79 -61 callsubr
          114 83 17 109 -2 vhcurveto
          109 callsubr
          -186 43 callgsubr
          -219 -99 callgsubr
          98 2 124 -10 callgsubr
          -245 -22 -55 -47 -16 vhcurveto
          19 callgsubr
          -93 -32 -119 -101 callsubr
          hintmask 00001110
          -43 1573 -98 callsubr
        </CharString>
        <CharString name="Iogonek">
          -610 101 callsubr
          203 240 50 callsubr
          hstemhm
          135 334 -147 147 -147 401 -74 260 hintmask 1101111001000000
          110 hmoveto
          51 12 105 7 100 1 -46 -79 -112 -73 -93 -16 rrcurveto
          14 -29 6 -49 -53 40 callsubr
          63 16 62 hhcurveto
          86 58 -15 -21 29 hvcurveto
          hintmask 1011111001000000
          -21 callsubr
          hintmask 1101110101000000
          -142 -48 -67 -54 -49 -29 43 69 184 233 135 233 -52 vhcurveto
          -8 33 -7 50 51 vvcurveto
          47 9 47 6 32 vhcurveto
          hintmask 1101110010000000
          -133 -79 -61 callsubr
          114 83 17 109 -2 vhcurveto
          109 callsubr
          -186 43 callgsubr
          -219 -99 callgsubr
          98 2 124 -10 callgsubr
          -245 -22 -55 -47 -16 vhcurveto
          19 callgsubr
          -93 -32 -119 -101 callsubr
          endchar
        </CharString>
        <CharString name="Itilde">
          -610 21 -21 25 235 920 95 callgsubr
          -45 275 92 401 72 274 hintmask 1111000010000000
          110 hmoveto
          15 76 201 10 136 hhcurveto
          136 200 -79 callgsubr
          -79 -61 callsubr
          114 83 17 109 -2 vhcurveto
          109 callsubr
          -186 43 callgsubr
          -219 -99 callgsubr
          98 2 124 -10 callgsubr
          -245 -22 -55 -47 -16 vhcurveto
          19 callgsubr
          -93 -32 -119 -101 callsubr
          hintmask 0000100101000000
          -180 137 callsubr
          hintmask 0000011101000000
          -55 callgsubr
          hintmask 0000100101000000
          -65 callgsubr
          94 51 vvcurveto
          62 7 67 19 22 vhcurveto
          -14 -13 -99 -10 -66 hhcurveto
          hintmask 0000011101000000
          -53 -72 6 20 -19 hvcurveto
          13 -21 9 -32 -32 vvcurveto
          hintmask 0000100101000000
          117 callsubr
          hintmask 0000011101000000
          -69 callgsubr
          hintmask 0000100101000000
          15 callgsubr
        </CharString>
        <CharString name="J">
          -264 11 -21 35 195 53 357 550 63 callsubr
          hstemhm
          90 94 callgsubr
          hintmask 11111101
          65 -80 callgsubr
          hintmask 11111011
          -9 callgsubr
          endchar
        </CharString>
        <CharString name="Jcircumflex">
          -264 11 -21 35 195 53 357 550 63 callsubr
          155 -16 callgsubr
          90 94 callgsubr
          hintmask 1111100010100000
          65 -80 callgsubr
          hintmask 1111100001100000
          -9 callgsubr
          hintmask 0000001100000000
          328 1286 -78 callsubr
        </CharString>
        <CharString name="K">
          247 -73 callgsubr
          389 191 340 102 callsubr
          vstem
          -81 callgsubr
          endchar
        </CharString>
        <CharString name="Kcommaaccent">
          247 2 callsubr
          389 191 340 101 callgsubr
          14 480 hintmask 0011111100000000
          -81 callgsubr
          hintmask 1100000010000000
          567 -112 rmoveto
          16 -23 14 -62 -65 vvcurveto
          -66 -13 -52 -16 -22 vhcurveto
          31 10 87 9 85 4 16 -11 8 -22 -1 -24 -1 -40 -6 -51 -13 -23 rrcurveto
          16 16 76 -2 19 hhcurveto
          28 67 -3 -11 12 hvcurveto
          48 52 87 63 13 vhcurveto
          -20 32 -10 52 55 vvcurveto
          66 10 62 20 23 vhcurveto
          -20 -42 -147 -45 callgsubr
          -104 13 17 -47 hvcurveto
          endchar
        </CharString>
        <CharString name="L">
          -100 21 -21 25 200 955 102 callsubr
          413 314 vstem
          -23 callgsubr
          428 -10 -15 78 hvcurveto
          -34 61 4 118 -2 104 -3 156 73 202 13 39 rrcurveto
          -15 -42 -87 -10 -69 hhcurveto
          -61 -133 7 18 -52 hvcurveto
          11 -47 43 -42 -7 -211 -4 -133 -58 -19 -130 -3 -59 -2 -86 6 -63 33 rrcurveto
          -6 33 -7 43 69 vvcurveto
          224 23 91 46 13 vhcurveto
          59 callgsubr
          105 17 109 -2 vhcurveto
          109 callsubr
          -208 43 callgsubr
          -179 -1 callgsubr
          -91 -224 vvcurveto
          -115 -63 -32 -119 -101 callsubr
          endchar
        </CharString>
        <CharString name="Lacute">
          -100 21 -21 25 200 955 63 callsubr
          111 -21 22 451 27 90 callgsubr
          413 314 hintmask 1111000110000000
          -23 callgsubr
          428 -10 -15 78 hvcurveto
          -34 61 4 118 -2 104 -3 156 73 202 13 39 rrcurveto
          -15 -42 -87 -10 -69 hhcurveto
          -61 -133 7 18 -52 hvcurveto
          11 -47 43 -42 -7 -211 -4 -133 -58 -19 -130 -3 -59 -2 -86 6 -63 33 rrcurveto
          -6 33 -7 43 69 vvcurveto
          224 23 91 46 13 vhcurveto
          59 callgsubr
          105 17 109 -2 vhcurveto
          109 callsubr
          -208 43 callgsubr
          -179 -1 callgsubr
          -91 -224 vvcurveto
          -115 -63 -32 -119 -101 callsubr
          hintmask 0000111000000000
          214 1510 -97 callgsubr
        </CharString>
        <CharString name="Lcaron">
          -100 21 -21 25 200 703 -21 273 63 callsubr
          177 90 callgsubr
          358 360 -305 314 hintmask 0010010100000000
          1118 907 27 callsubr
          21 5 callgsubr
          -67 -45 callgsubr
          -64 13 17 -47 hvcurveto
          17 -37 13 -90 -93 vvcurveto
          -101 -13 -73 -16 -36 vhcurveto
          29 8 45 8 57 5 17 -20 9 -51 -1 -54 -4 -60 -15 -63 -31 -33 rrcurveto
          hintmask 1101101010000000
          -1018 -907 rmoveto
          15 80 468 10 85 callsubr
          428 -10 -15 78 hvcurveto
          -34 61 4 118 -2 104 -3 156 73 202 13 39 rrcurveto
          -15 -42 -87 -10 -69 hhcurveto
          -61 -133 7 18 -52 hvcurveto
          11 -47 43 -42 -7 -211 -4 -133 -58 -19 -130 -3 -59 -2 -86 6 -63 33 rrcurveto
          -6 33 -7 43 69 vvcurveto
          224 23 91 46 13 vhcurveto
          59 callgsubr
          105 17 109 -2 vhcurveto
          109 callsubr
          -208 43 callgsubr
          -179 -1 callgsubr
          -91 -224 vvcurveto
          -115 -63 -32 -119 -101 callsubr
          endchar
        </CharString>
        <CharString name="Lcommaaccent">
          -100 25 callgsubr
          153 -21 25 200 955 101 callgsubr
          -107 480 40 314 hintmask 0011111010000000
          -23 callgsubr
          428 -10 -15 78 hvcurveto
          -34 61 4 118 -2 104 -3 156 73 202 13 39 rrcurveto
          -15 -42 -87 -10 -69 hhcurveto
          -61 -133 7 18 -52 hvcurveto
          11 -47 43 -42 -7 -211 -4 -133 -58 -19 -130 -3 -59 -2 -86 6 -63 33 rrcurveto
          -6 33 -7 43 69 vvcurveto
          224 23 91 46 13 vhcurveto
          59 callgsubr
          105 17 109 -2 vhcurveto
          109 callsubr
          -208 43 callgsubr
          -179 -1 callgsubr
          -91 -224 vvcurveto
          -115 -63 -32 -119 -101 callsubr
          hintmask 1100000100000000
          446 -112 rmoveto
          16 -23 14 -62 -65 vvcurveto
          -66 -13 -52 -16 -22 vhcurveto
          31 10 87 9 85 4 16 -11 8 -22 -1 -24 -1 -40 -6 -51 -13 -23 rrcurveto
          16 16 76 -2 19 hhcurveto
          28 67 -3 -11 12 hvcurveto
          48 52 87 63 13 vhcurveto
          -20 32 -10 52 55 vvcurveto
          66 10 62 20 23 vhcurveto
          -20 -42 -147 -45 callgsubr
          -104 13 17 -47 hvcurveto
          endchar
        </CharString>
        <CharString name="Ldot">
          -100 21 -21 25 200 604 -21 25 375 -28 225 -167 -20 222 90 callgsubr
          331 445 -363 314 hintmask 1100101101000000
          -23 callgsubr
          428 -10 -15 78 hvcurveto
          -34 61 4 118 -2 104 -3 156 73 202 13 39 rrcurveto
          -15 -42 -87 -10 -69 hhcurveto
          -61 -133 7 18 -52 hvcurveto
          11 -47 43 -42 -7 -211 -4 -133 -58 -19 -130 -3 -59 -2 -86 6 -63 33 rrcurveto
          -6 33 -7 43 69 vvcurveto
          224 23 91 46 13 vhcurveto
          59 callgsubr
          105 17 109 -2 vhcurveto
          109 callsubr
          -208 43 callgsubr
          -179 -1 callgsubr
          -91 -224 vvcurveto
          -115 -63 -32 -119 -101 callsubr
          hintmask 0011010010000000
          885 808 rmoveto
          -36 callsubr
          46 -8 76 88 vvcurveto
          92 8 90 17 38 112 callsubr
          17 -37 13 -90 -93 vvcurveto
          -101 -13 -73 -16 -36 vhcurveto
          endchar
        </CharString>
        <CharString name="Lslash">
          -101 21 -21 25 200 955 102 callsubr
          vstem
          -23 callgsubr
          408 108 callsubr
          54 152 13 39 rrcurveto
          -15 -42 -87 -10 -69 hhcurveto
          -61 -74 7 18 -52 hvcurveto
          11 -47 8 -118 -11 -70 -22 -131 -40 -21 -130 -3 -59 -2 -86 6 -63 33 rrcurveto
          -6 33 -7 43 69 vvcurveto
          97 2 90 24 54 vhcurveto
          57 129 158 2 51 -17 rrcurveto
          119 callgsubr
          -21 -20 -39 -12 -25 -14 rrcurveto
          -161 -88 -46 5 90 vvcurveto
          114 73 17 109 -2 vhcurveto
          109 callsubr
          -176 43 callgsubr
          -179 -33 callgsubr
          -136 -9 -67 -59 -41 vhcurveto
          -44 -39 -64 0 -19 2 114 callgsubr
          183 123 12 -52 -106 vvcurveto
          -115 -63 -32 -119 -101 callsubr
          endchar
        </CharString>
        <CharString name="M">
          588 -73 callgsubr
          50 callsubr
          hstemhm
          329 351 -351 493 561 508 -331 331 hintmask 11111001
          -20 callgsubr
          hintmask 11110110
          -38 callsubr
          -126 -48 36 111 -18 hvcurveto
          -9 53 -19 51 65 vvcurveto
          91 26 61 31 7 vhcurveto
          -54 16 -25 128 172 vvcurveto
          114 84 17 98 -89 callgsubr
          7 56 -13 callsubr
          -18 -48 -159 -17 -136 hhcurveto
          -154 -126 17 18 -52 hvcurveto
          -4 -123 -188 -402 -96 -137 -96 137 -189 402 -3 123 rrcurveto
          -18 -52 -126 63 callgsubr
          -136 -159 17 18 -48 hvcurveto
          8 -33 7 -56 -49 vvcurveto
          -46 -9 -44 -6 -32 vhcurveto
          98 2 84 -10 callgsubr
          -172 -25 -128 -54 -16 vhcurveto
          31 -7 26 -61 -91 vvcurveto
          -65 1 -51 -9 -53 vhcurveto
          -111 -18 -48 -36 -126 hhcurveto
          -101 callgsubr
          endchar
        </CharString>
        <CharString name="N">
          111 callgsubr
          hstem
          282 401 566 414 vstem
          -104 callsubr
          endchar
        </CharString>
        <CharString name="Nacute">
          111 callgsubr
          111 -21 22 451 27 90 callgsubr
          566 414 hintmask 1111000110000000
          -104 callsubr
          hintmask 0000111000000000
          654 1510 -97 callgsubr
        </CharString>
        <CharString name="Ncaron">
          111 callgsubr
          160 74 callgsubr
          282 401 566 414 hintmask 1111000110000000
          -104 callsubr
          hintmask 0000110000000000
          662 -62 callgsubr
        </CharString>
        <CharString name="Ncommaaccent">
          243 2 callsubr
          920 101 callgsubr
          64 480 22 414 hintmask 0011111010000000
          -104 callsubr
          hintmask 1100000100000000
          617 -112 rmoveto
          16 -23 14 -62 -65 vvcurveto
          -66 -13 -52 -16 -22 vhcurveto
          31 10 87 9 85 4 16 -11 8 -22 -1 -24 -1 -40 -6 -51 -13 -23 rrcurveto
          16 16 76 -2 19 hhcurveto
          28 67 -3 -11 12 hvcurveto
          48 52 87 63 13 vhcurveto
          -20 32 -10 52 55 vvcurveto
          66 10 62 20 23 vhcurveto
          -20 -42 -147 -45 callgsubr
          -104 13 17 -47 hvcurveto
          endchar
        </CharString>
        <CharString name="Ntilde">
          243 21 -21 25 235 920 95 callgsubr
          39 callsubr
          -273 275 564 414 -413 274 hintmask 1111000101000000
          -104 callsubr
          hintmask 0000100010100000
          285 137 callsubr
          hintmask 0000011010100000
          -55 callgsubr
          hintmask 0000100010100000
          -65 callgsubr
          94 51 vvcurveto
          62 7 67 19 22 vhcurveto
          -14 -13 -99 -10 -66 hhcurveto
          hintmask 0000011010100000
          -53 -72 6 20 -19 hvcurveto
          13 -21 9 -32 -32 vvcurveto
          hintmask 0000100010100000
          117 callsubr
          hintmask 0000011010100000
          -69 callgsubr
          hintmask 0000100010100000
          15 callgsubr
        </CharString>
        <CharString name="O">
          75 1 -21 45 195 990 195 55 1 callsubr
          hintmask 11111001
          98 268 -95 callsubr
          hintmask 11110110
          -83 callgsubr
          hintmask 11111010
          -93 callsubr
          endchar
        </CharString>
        <CharString name="OE">
          753 44 callsubr
          403 226 121 435 -195 97 callgsubr
          hstemhm
          185 142 callgsubr
          510 414 392 315 hintmask 1110111011000000
          130 -5 callsubr
          42 149 21 169 hhcurveto
          169 149 -21 -24 42 hvcurveto
          25 50 224 20 85 callsubr
          399 -10 -15 80 hvcurveto
          -11 58 -14 102 103 vvcurveto
          121 17 117 8 34 vhcurveto
          80 callsubr
          -104 callgsubr
          hintmask 1111010111000000
          30 callsubr
          66 -74 callgsubr
          -399 36 callsubr
          -230 14 41 -50 hvcurveto
          -44 -42 -144 -11 -168 hhcurveto
          -168 -144 31 24 -42 38 callsubr
          hintmask 1110111011000000
          0 callgsubr
        </CharString>
        <CharString name="Oacute">
          75 -16 callsubr
          91 -21 22 451 27 -102 callsubr
          hintmask 0000111000000000
          -213 1290 -97 callgsubr
        </CharString>
        <CharString name="Obreve">
          75 -16 callsubr
          84 18 callsubr
          153 435 -176 272 -185 89 434 272 -176 89 -89 439 hintmask 1111000010000100
          98 268 -95 callsubr
          hintmask 1111000000101000
          -83 callgsubr
          hintmask 1111000010001000
          -93 callsubr
          hintmask 0000100101010000
          1304 vmoveto
          hintmask 0000001101010000
          -71 callgsubr
          hintmask 0000010101010000
          -18 callsubr
          hintmask 0000001101010000
          -14 -23 -73 -13 -68 hhcurveto
          -75 -61 12 15 -27 -47 callgsubr
          hintmask 0000100101010000
          27 callgsubr
        </CharString>
        <CharString name="Ocircumflex">
          75 -16 callsubr
          135 408 -403 -21 451 -102 callsubr
          hintmask 0000011000000000
          -528 1339 -77 callgsubr
        </CharString>
        <CharString name="Odieresis">
          75 -16 callsubr
          221 -21 23 320 27 69 callsubr
          -247 400 -242 89 383 400 -253 89 -89 439 hintmask 1111000100001000
          98 268 -95 callsubr
          hintmask 1111000001010000
          -83 callgsubr
          hintmask 1111000100010000
          -93 callsubr
          hintmask 0000111010100000
          92 1420 -106 callgsubr
        </CharString>
        <CharString name="Ograve">
          75 -16 callsubr
          91 -21 22 451 27 -102 callsubr
          hintmask 0000111000000000
          -112 1290 -84 callgsubr
        </CharString>
        <CharString name="Ohungarumlaut">
          75 -16 callsubr
          125 420 -419 -21 465 -102 callsubr
          hintmask 0000011000000000
          89 1325 -73 callsubr
        </CharString>
        <CharString name="Omacron">
          75 -16 callsubr
          154 -21 23 237 27 -102 callsubr
          hintmask 0000111000000000
          -445 1353 -98 callsubr
        </CharString>
        <CharString name="Omega">
          197 -73 callgsubr
          950 97 callgsubr
          hstemhm
          449 99 -99 331 -281 49 447 392 -149 149 hintmask 1111010100000000
          50 hmoveto
          15 56 140 10 106 hhcurveto
          138 229 -10 -15 76 133 callgsubr
          50 51 vvcurveto
          107 9 42 6 77 vhcurveto
          hintmask 1111001010000000
          -163 35 -84 231 176 vvcurveto
          327 174 81 171 171 174 -81 -327 -176 -87 -231 -171 -35 vhcurveto
          hintmask 1111001100000000
          9 -25 6 -94 -107 vvcurveto
          -51 -6 -50 -9 -33 vhcurveto
          15 76 229 10 138 hhcurveto
          122 156 -10 -15 64 133 callgsubr
          50 51 vvcurveto
          47 11 47 5 32 vhcurveto
          -279 -100 21 65 46 102 31 144 -23 hvcurveto
          -29 58 84 248 95 29 -62 17 -58 197 55 223 -147 -7 -297 70 callsubr
          -247 -200 -147 7 55 -223 -58 -197 -62 -17 95 -29 84 -248 -29 -58 rrcurveto
          hintmask 1111100100000000
          144 23 122 -31 -46 vvcurveto
          -65 -120 -21 -279 -101 callsubr
          endchar
        </CharString>
        <CharString name="Oslash">
          75 -116 -21 138 45 callgsubr
          990 97 callgsubr
          158 1 callsubr
          hintmask 1000010000000000
          218 -137 rmoveto
          6 27 37 19 98 hhcurveto
          71 59 -8 -15 24 hvcurveto
          -39 65 143 217 108 196 392 709 rcurveline
          81 147 193 362 68 37 rrcurveto
          -6 -30 -44 -19 -108 hhcurveto
          -61 -52 8 15 -21 hvcurveto
          39 -65 -99 -202 -108 -196 -392 -709 rcurveline
          -82 -149 -236 -375 -68 -37 rrcurveto
          hintmask 0111101001000000
          -120 405 -95 callsubr
          hintmask 0111100110000000
          -83 callgsubr
          hintmask 0111101010000000
          -93 callsubr
          endchar
        </CharString>
        <CharString name="Otilde">
          75 -16 callsubr
          91 94 callsubr
          153 435 -292 275 -72 89 530 89 -89 439 -421 274 hintmask 1111000100010000
          98 268 -95 callsubr
          hintmask 1111000001100000
          -83 callgsubr
          hintmask 1111000100100000
          -93 callsubr
          hintmask 0000100010001000
          -582 1311 17 callgsubr
          hintmask 0000011010001000
          -55 callgsubr
          hintmask 0000100010001000
          -65 callgsubr
          94 51 vvcurveto
          62 7 67 19 22 vhcurveto
          -14 -13 -99 -10 -66 hhcurveto
          hintmask 0000011010001000
          -53 -72 6 20 -19 hvcurveto
          13 -21 9 -32 -32 vvcurveto
          hintmask 0000100010001000
          117 callsubr
          hintmask 0000011010001000
          -69 callgsubr
          hintmask 0000100010001000
          15 callgsubr
        </CharString>
        <CharString name="P">
          -99 -73 callgsubr
          283 192 475 195 132 callgsubr
          369 393 vstem
          100 hmoveto
          15 80 239 10 144 hhcurveto
          136 190 88 callgsubr
          -58 22 125 -1 hvcurveto
          -1 41 4 32 6 25 rrcurveto
          27 84 93 11 86 hhcurveto
          111 98 -14 -19 51 hvcurveto
          44 84 111 107 105 19 rrcurveto
          -22 46 -8 97 101 vvcurveto
          95 11 127 19 38 vhcurveto
          -74 4 -152 130 -6 82 rrcurveto
          -27 -66 -274 -8 -241 hhcurveto
          -130 -379 14 21 -53 -105 callsubr
          586 756 rmoveto
          -9 116 -9 193 17 112 rrcurveto
          25 49 64 8 57 hhcurveto
          146 51 -113 -118 -139 -74 -105 -133 -60 -52 6 15 -47 hvcurveto
          endchar
        </CharString>
        <CharString name="Q">
          75 -385 -21 35 296 100 195 990 97 callgsubr
          hstemhm
          163 142 callgsubr
          510 99 -99 439 -415 122 hintmask 1111110001000000
          108 31 callgsubr
          209 -149 32 -124 41 23 143 21 164 1 rrcurveto
          272 -6 19 -108 -168 vvcurveto
          hintmask 1111110010000000
          -62 -3 -32 -21 -55 vhcurveto
          18 25 102 17 120 hhcurveto
          88 181 -11 -24 64 hvcurveto
          -17 28 -13 87 60 vvcurveto
          115 11 25 9 51 vhcurveto
          -21 -67 -65 -14 -53 hhcurveto
          hintmask 1111110001000000
          -104 -135 38 86 6 1 11 1 12 hvcurveto
          56 86 106 72 180 32 rrcurveto
          hintmask 1111110010000000
          -25 35 -26 107 184 vvcurveto
          82 24 45 42 14 vhcurveto
          -48 13 -22 89 87 vvcurveto
          114 20 96 35 38 vhcurveto
          hintmask 1111101100000000
          -132 -7 -252 200 -7 95 rrcurveto
          -24 -42 -144 -31 -168 hhcurveto
          -168 -144 31 24 -42 38 callsubr
          hintmask 1111110100000000
          0 callgsubr
        </CharString>
        <CharString name="R">
          53 callsubr
          hstemhm
          282 401 346 121 callsubr
          hintmask 11111110
          -87 callgsubr
          hintmask 11111101
          -88 callsubr
          endchar
        </CharString>
        <CharString name="Racute">
          53 callsubr
          111 -21 22 451 27 90 callgsubr
          346 121 callsubr
          hintmask 1111100011000000
          -87 callgsubr
          hintmask 1111100010100000
          -88 callsubr
          hintmask 0000011100000000
          -7 712 -97 callgsubr
        </CharString>
        <CharString name="Rcaron">
          53 callsubr
          160 74 callgsubr
          282 401 346 121 callsubr
          hintmask 1111100011000000
          -87 callgsubr
          hintmask 1111100010100000
          -88 callsubr
          hintmask 0000011000000000
          1 761 -60 callgsubr
        </CharString>
        <CharString name="Rcommaaccent">
          71 2 callsubr
          319 196 435 195 35 90 callgsubr
          -12 480 -122 121 callsubr
          hintmask 0011111101000000
          -87 callgsubr
          hintmask 0011111100100000
          -88 callsubr
          hintmask 1100000010000000
          -44 -910 rmoveto
          16 -23 14 -62 -65 vvcurveto
          -66 -13 -52 -16 -22 vhcurveto
          31 10 87 9 85 4 16 -11 8 -22 -1 -24 -1 -40 -6 -51 -13 -23 rrcurveto
          16 16 76 -2 19 hhcurveto
          28 67 -3 -11 12 hvcurveto
          48 52 87 63 13 vhcurveto
          -20 32 -10 52 55 vvcurveto
          66 10 62 20 23 vhcurveto
          -20 -42 -147 -45 callgsubr
          -104 13 17 -47 hvcurveto
          endchar
        </CharString>
        <CharString name="S">
          -40 callgsubr
          hstemhm
          158 351 -351 383 500 82 -82 383 -351 323 hintmask 1101010111010000
          -83 callsubr
          hintmask 1101010111001000
          -21 36 -12 98 109 vvcurveto
          87 15 89 32 13 vhcurveto
          -114 -7 -129 142 -7 83 rrcurveto
          hintmask 1100100110100100
          -62 callsubr
          hintmask 1101001011000100
          -89 callsubr
          hintmask 1101010111010000
          -63 callsubr
          hintmask 1100101011010000
          -64 callsubr
          hintmask 1010101011010000
          -54 callgsubr
          endchar
        </CharString>
        <CharString name="Sacute">
          -40 callgsubr
          91 -21 22 451 27 -97 callsubr
          hintmask 000000000111000000000000
          478 1510 -97 callgsubr
        </CharString>
        <CharString name="Scaron">
          -40 callgsubr
          140 -21 25 411 15 -97 callsubr
          hintmask 000000000110000000000000
          486 1559 rmoveto
          15 32 91 10 79 hhcurveto
          91 76 -10 -15 32 hvcurveto
          hintmask 000000000101000000000000
          -9 83 316 324 72 44 rrcurveto
          hintmask 000000000110000000000000
          -7 -27 -76 -8 -130 hhcurveto
          hintmask 000000000101000000000000
          -118 -68 9 6 -40 hvcurveto
          -17 -49 -30 -112 -64 -87 -76 87 -34 112 -20 49 rrcurveto
          hintmask 000000000110000000000000
          -12 callgsubr
          hintmask 000000000101000000000000
          -130 -76 9 6 -27 hvcurveto
          72 -44 306 -324 -9 -83 rrcurveto
          endchar
        </CharString>
        <CharString name="Scedilla">
          -103 83 callsubr
          551 -21 45 86 callgsubr
          395 -351 -20 209 432 -125 318 -143 432 -172 420 -210 210 40 67 callsubr
          -110 503 -231 231 107 33 callgsubr
          hintmask 001100101011100010000000
          -83 callsubr
          hintmask 001100101011100001000000
          -21 36 -12 98 109 vvcurveto
          87 15 89 32 13 vhcurveto
          -114 -7 -129 142 -7 83 rrcurveto
          hintmask 001100010011010000100000
          -62 callsubr
          hintmask 001100100101100000100000
          -89 callsubr
          hintmask 001100101011100010000000
          -63 callsubr
          hintmask 001100010101100010000000
          -64 callsubr
          hintmask 001010010101100010000000
          -54 callgsubr
          hintmask 010001000000001000000000
          261 -223 21 callsubr
          hintmask 100001000000001000000000
          10 38 77 9 87 hhcurveto
          hintmask 010001000000000100000000
          -46 callgsubr
          hintmask 100001000000001000000000
          66 callsubr
        </CharString>
        <CharString name="Scircumflex">
          -40 callgsubr
          135 408 -403 -21 451 -97 callsubr
          hintmask 000000000011000000000000
          163 1559 rmoveto
          hintmask 000000000101000000000000
          7 20 67 9 90 hhcurveto
          hintmask 000000000011000000000000
          85 45 -9 -7 19 hvcurveto
          27 36 47 91 133 67 120 -67 43 -91 24 -36 rrcurveto
          hintmask 000000000101000000000000
          7 26 48 9 86 hhcurveto
          hintmask 000000000011000000000000
          90 67 -9 -7 20 hvcurveto
          -59 43 -276 328 10 80 rrcurveto
          hintmask 000000000101000000000000
          -16 -33 -80 -11 -94 hhcurveto
          -82 -96 11 16 -33 hvcurveto
          hintmask 000000000011000000000000
          10 -80 -265 -328 -59 -43 rrcurveto
          endchar
        </CharString>
        <CharString name="Scommaaccent">
          -103 25 callgsubr
          133 -37 callsubr
          hstemhm
          158 351 -351 383 30 480 -10 33 callgsubr
          hintmask 001101010111001000000000
          -83 callsubr
          hintmask 001101010111000100000000
          -21 36 -12 98 109 vvcurveto
          87 15 89 32 13 vhcurveto
          -114 -7 -129 142 -7 83 rrcurveto
          hintmask 001100100110100010000000
          -62 callsubr
          hintmask 001101001011000010000000
          -89 callsubr
          hintmask 001101010111001000000000
          -63 callsubr
          hintmask 001100101011001000000000
          -64 callsubr
          hintmask 001010101011001000000000
          -54 callgsubr
          hintmask 110000000000010000000000
          393 -112 rmoveto
          16 -23 14 -62 -65 vvcurveto
          -66 -13 -52 -16 -22 vhcurveto
          31 10 87 9 85 4 16 -11 8 -22 -1 -24 -1 -40 -6 -51 -13 -23 rrcurveto
          16 16 76 -2 19 hhcurveto
          28 67 -3 -11 12 hvcurveto
          48 52 87 63 13 vhcurveto
          -20 32 -10 52 55 vvcurveto
          66 10 62 20 23 vhcurveto
          -20 -42 -147 -45 callgsubr
          -104 13 17 -47 hvcurveto
          endchar
        </CharString>
        <CharString name="T">
          41 callsubr
          hstem
          82 callsubr
          cntrmask 00001110
          -98 callgsubr
          endchar
        </CharString>
        <CharString name="Tbar">
          41 callsubr
          hstem
          82 callsubr
          cntrmask 00001110
          490 hmoveto
          15 80 219 10 85 callsubr
          228 -10 -15 80 133 callgsubr
          50 51 vvcurveto
          47 9 47 6 32 vhcurveto
          -197 -55 32 115 42 0 38 2 33 hvcurveto
          1 17 222 -4 36 -13 -13 42 -13 140 27 48 -49 -14 -172 -26 -22 44 rrcurveto
          -26 52 7 134 111 vvcurveto
          74 8 37 6 28 vhcurveto
          15 49 65 5 33 hhcurveto
          104 60 -49 -101 7 hvcurveto
          5 -76 -13 -98 -17 -51 rrcurveto
          18 54 55 7 61 hhcurveto
          73 70 -10 -15 42 hvcurveto
          -8 39 -17 142 141 vvcurveto
          111 14 110 11 62 vhcurveto
          -21 -68 -315 -14 -120 hhcurveto
          -144 -185 14 21 -30 hvcurveto
          -21 -30 -186 -14 -144 hhcurveto
          -120 -315 14 21 -68 hvcurveto
          12 -62 13 -110 -111 vvcurveto
          -141 -17 -142 -8 -39 vhcurveto
          15 42 70 10 73 hhcurveto
          61 55 -7 -18 54 hvcurveto
          -17 51 -13 98 5 76 rrcurveto
          101 7 60 49 104 hhcurveto
          33 65 -5 -15 49 hvcurveto
          6 -28 8 -37 -74 vvcurveto
          -112 11 -144 -19 -37 vhcurveto
          -24 -48 -148 21 -105 21 28 -72 -1 -105 -26 -55 111 27 169 -6 1 -15 rrcurveto
          2 -35 1 -39 -45 vvcurveto
          -115 -59 -32 -183 -101 callsubr
          endchar
        </CharString>
        <CharString name="Tcaron">
          41 callsubr
          160 74 callgsubr
          82 callsubr
          cntrmask 0000000111000000
          hintmask 1111000111000000
          -98 callgsubr
          hintmask 0000110000000000
          187 -62 callgsubr
        </CharString>
        <CharString name="Tcommaaccent">
          240 2 callsubr
          950 195 35 -20 hstemhm
          95 305 312 480 -460 401 332 305 hintmask 0011111011000000
          -98 callgsubr
          hintmask 1100000100000000
          192 -112 rmoveto
          16 -23 14 -62 -65 vvcurveto
          -66 -13 -52 -16 -22 vhcurveto
          31 10 87 9 85 4 16 -11 8 -22 -1 -24 -1 -40 -6 -51 -13 -23 rrcurveto
          16 16 76 -2 19 hhcurveto
          28 67 -3 -11 12 hvcurveto
          48 52 87 63 13 vhcurveto
          -20 32 -10 52 55 vvcurveto
          66 10 62 20 23 vhcurveto
          -20 -42 -147 -45 callgsubr
          -104 13 17 -47 hvcurveto
          endchar
        </CharString>
        <CharString name="Thorn">
          71 -73 callgsubr
          133 182 315 197 93 63 callsubr
          hstem
          282 394 496 393 vstem
          100 hmoveto
          15 80 239 10 144 hhcurveto
          136 190 -96 callsubr
          -219 -70 36 40 42 118 15 251 111 128 -14 -19 51 hvcurveto
          44 76 111 97 105 17 rrcurveto
          -22 32 -8 69 73 vvcurveto
          67 11 94 19 29 vhcurveto
          -74 4 -152 124 -6 78 rrcurveto
          -13 -31 -228 -20 -153 hhcurveto
          -212 -62 19 25 40 93 10 95 -1 hvcurveto
          109 callsubr
          -176 43 callgsubr
          -179 -1 callgsubr
          -91 -224 vvcurveto
          -115 -63 -32 -119 -101 callsubr
          583 604 rmoveto
          -4 43 -3 52 50 vvcurveto
          38 1 37 6 31 vhcurveto
          29 70 120 6 62 hhcurveto
          166 71 -63 -88 -91 -80 -73 -157 -83 -101 7 22 -68 hvcurveto
          endchar
        </CharString>
        <CharString name="U">
          6 callgsubr
          hstem
          295 431 459 411 vstem
          -107 callgsubr
          endchar
        </CharString>
        <CharString name="Uacute">
          6 callgsubr
          111 43 callsubr
          hstemhm
          295 431 459 411 hintmask 1111000110000000
          -107 callgsubr
          hintmask 0000111000000000
          474 1242 -97 callgsubr
        </CharString>
        <CharString name="Ubreve">
          6 callgsubr
          104 18 callsubr
          295 431 -232 272 338 272 -191 411 hintmask 1111000010010000
          -107 callgsubr
          hintmask 0000100101100000
          687 1256 rmoveto
          hintmask 0000001101100000
          -71 callgsubr
          hintmask 0000010101100000
          -18 callsubr
          hintmask 0000001101100000
          -14 -23 -73 -13 -68 hhcurveto
          -75 -61 12 15 -27 -47 callgsubr
          hintmask 0000100101100000
          27 callgsubr
        </CharString>
        <CharString name="Ucircumflex">
          6 callgsubr
          155 -16 callgsubr
          295 431 459 411 hintmask 1111000110000000
          -107 callgsubr
          hintmask 0000011000000000
          159 1291 -77 callgsubr
        </CharString>
        <CharString name="Udieresis">
          6 callgsubr
          241 -21 23 320 27 -20 hstemhm
          295 431 -303 68 callsubr
          -268 411 hintmask 1111000100100000
          -107 callgsubr
          hintmask 0000111011000000
          779 1372 -106 callgsubr
        </CharString>
        <CharString name="Ugrave">
          6 callgsubr
          111 43 callsubr
          hstemhm
          295 431 459 411 hintmask 1111000110000000
          -107 callgsubr
          hintmask 0000111000000000
          575 1242 -84 callgsubr
        </CharString>
        <CharString name="Uhungarumlaut">
          6 callgsubr
          145 -32 callgsubr
          295 431 459 411 hintmask 1111000110000000
          -107 callgsubr
          hintmask 0000011000000000
          776 1277 -73 callsubr
        </CharString>
        <CharString name="Umacron">
          6 callgsubr
          174 50 callgsubr
          hstemhm
          295 431 459 411 hintmask 1111000110000000
          -107 callgsubr
          hintmask 0000111000000000
          242 1305 -98 callsubr
        </CharString>
        <CharString name="Uogonek">
          207 101 callsubr
          205 198 960 63 callsubr
          hstemhm
          282 411 -108 334 233 247 -247 411 hintmask 1101110110000000
          235 268 rmoveto
          213 -33 127 -131 30 -124 29 19 85 16 106 7 -55 -87 -146 -63 -59 -20 rrcurveto
          14 -29 6 -49 -53 40 callsubr
          83 16 62 hhcurveto
          106 50 -15 -21 37 hvcurveto
          hintmask 1011111010000000
          -21 callsubr
          hintmask 1101110101000000
          131 callsubr
          172 94 154 -54 vhcurveto
          30 124 199 149 136 15 rrcurveto
          -20 55 -21 137 134 vvcurveto
          82 28 45 48 14 vhcurveto
          -79 18 -3 60 238 vvcurveto
          114 73 -43 callgsubr
          6 56 9 33 vhcurveto
          -18 -52 -176 63 callgsubr
          -148 -174 17 18 -51 hvcurveto
          9 -33 6 -56 -49 vvcurveto
          -46 -9 -44 -6 -32 vhcurveto
          88 2 74 -10 callgsubr
          -454 vlineto
          -308 -103 -69 -124 vhcurveto
          hintmask 1101111010000000
          -124 -108 69 308 hvcurveto
          454 vlineto
          114 65 17 97 -89 callgsubr
          6 56 9 33 vhcurveto
          -18 -51 -171 -17 -150 hhcurveto
          -152 -179 -99 callgsubr
          109 2 73 -10 callgsubr
          -238 -3 -60 -79 -18 vhcurveto
          48 -14 28 -45 -82 vvcurveto
          -134 -21 -137 -20 -55 vhcurveto
          endchar
        </CharString>
        <CharString name="Uring">
          10 callsubr
          21 -21 28 157 -150 -20 413 149 28 -20 hstemhm
          295 431 -224 303 267 296 -183 411 hintmask 1110010010010000
          -107 callgsubr
          hintmask 0001101101100000
          474 1137 -67 callsubr
        </CharString>
        <CharString name="Utilde">
          240 1 -21 45 195 960 95 callgsubr
          295 431 -348 275 532 411 -378 274 hintmask 1111000101000000
          -107 callgsubr
          hintmask 0000100010100000
          105 1263 17 callgsubr
          hintmask 0000011010100000
          -55 callgsubr
          hintmask 0000100010100000
          -65 callgsubr
          94 51 vvcurveto
          62 7 67 19 22 vhcurveto
          -14 -13 -99 -10 -66 hhcurveto
          hintmask 0000011010100000
          -53 -72 6 20 -19 hvcurveto
          13 -21 9 -32 -32 vvcurveto
          hintmask 0000100010100000
          117 callsubr
          hintmask 0000011010100000
          -69 callgsubr
          hintmask 0000100010100000
          15 callgsubr
        </CharString>
        <CharString name="V">
          71 21 -21 1180 63 callsubr
          hstem
          298 353 528 234 vstem
          573 hmoveto
          18 58 127 7 101 hhcurveto
          120 107 -7 -18 52 hvcurveto
          32 vlineto
          193 140 469 157 41 vhcurveto
          -16 5 -6 27 23 vvcurveto
          103 53 148 83 77 vhcurveto
          45 45 75 17 -33 callsubr
          -117 -116 10 25 -110 -63 callgsubr
          77 88 1 -75 -144 -214 -406 -55 -221 hvcurveto
          -47 250 -212 380 136 vvcurveto
          74 100 5 109 -49 callsubr
          -101 -163 -11 -169 -34 callsubr
          77 -31 31 -29 rrcurveto
          107 -91 32 -133 -105 vvcurveto
          -28 -7 -21 -18 -6 vhcurveto
          187 -46 114 -515 -152 vvcurveto
          -10 0 -4 -1 -8 vhcurveto
          endchar
        </CharString>
        <CharString name="W">
          922 21 -21 1180 225 35 14 callgsubr
          hintmask 11111010
          -103 callsubr
          hintmask 11110110
          -90 callsubr
          endchar
        </CharString>
        <CharString name="Wacute">
          129 callsubr
          111 -21 22 451 27 14 callgsubr
          hintmask 1110001101000000
          -103 callsubr
          hintmask 1110001011000000
          -90 callsubr
          hintmask 0001110000000000
          491 1510 -97 callgsubr
        </CharString>
        <CharString name="Wcircumflex">
          129 callsubr
          155 408 -403 -21 451 14 callgsubr
          hintmask 1110001101000000
          -103 callsubr
          hintmask 1110001011000000
          -90 callsubr
          hintmask 0000110000000000
          176 1559 rmoveto
          hintmask 0001010000000000
          7 20 67 9 90 hhcurveto
          hintmask 0000110000000000
          85 45 -9 -7 19 hvcurveto
          27 36 47 91 133 67 120 -67 43 -91 24 -36 rrcurveto
          hintmask 0001010000000000
          7 26 48 9 86 hhcurveto
          hintmask 0000110000000000
          90 67 -9 -7 20 hvcurveto
          -59 43 -276 328 10 80 rrcurveto
          hintmask 0001010000000000
          -16 -33 -80 -11 -94 hhcurveto
          -82 -96 11 16 -33 hvcurveto
          hintmask 0000110000000000
          10 -80 -265 -328 -59 -43 rrcurveto
          endchar
        </CharString>
        <CharString name="Wdieresis">
          129 callsubr
          241 -21 23 320 27 -20 hstemhm
          294 357 114 400 -153 489 -332 332 -106 400 234 230 hintmask 1110001010010000
          -103 callsubr
          hintmask 1110001001010000
          -90 callsubr
          hintmask 0001110100100000
          796 1640 -106 callgsubr
        </CharString>
        <CharString name="Wgrave">
          129 callsubr
          111 -21 22 451 27 14 callgsubr
          hintmask 1110001101000000
          -103 callsubr
          hintmask 1110001011000000
          -90 callsubr
          hintmask 0001110000000000
          592 1510 -84 callgsubr
        </CharString>
        <CharString name="X">
          77 callgsubr
          hstem
          38 hmoveto
          18 108 99 7 123 hhcurveto
          120 120 -7 -18 113 hvcurveto
          -4 20 -4 50 55 vvcurveto
          53 4 65 4 17 vhcurveto
          -57 -68 -1 65 53 106 90 77 81 hvcurveto
          79 -85 106 -84 -50 vvcurveto
          -65 -50 -4 -59 vhcurveto
          4 -17 4 -65 -53 vvcurveto
          -55 -4 -50 -4 -20 vhcurveto
          17 99 159 8 165 hhcurveto
          154 140 -13 -12 96 hvcurveto
          -6 31 -4 48 48 vvcurveto
          53 0 45 10 35 vhcurveto
          -54 1 -70 31 -38 19 -186 123 -50 122 -103 114 rrcurveto
          19 29 25 40 21 vhcurveto
          -40 5 -33 27 -9 23 21 75 167 158 148 85 rrcurveto
          37 61 52 35 45 hhcurveto
          -6 32 -4 43 48 vvcurveto
          52 4 52 6 33 vhcurveto
          -25 -108 -99 -10 -123 hhcurveto
          -114 -112 10 25 -107 -63 callgsubr
          57 68 1 -75 -55 -105 -94 -71 -83 hvcurveto
          -80 88 -112 87 52 vvcurveto
          74 50 5 59 -49 callsubr
          -99 -159 -11 -165 hhcurveto
          -154 -140 18 17 -96 hvcurveto
          6 -33 4 -52 -52 vvcurveto
          -48 -4 -43 -6 -32 vhcurveto
          54 -1 69 -37 39 -23 186 -121 50 -103 103 -105 -9 -18 -19 -21 -37 -16 rrcurveto
          54 -20 24 -29 -16 vvcurveto
          -17 -84 -171 -187 -148 -77 rrcurveto
          -29 -72 -58 -33 -48 hhcurveto
          6 -35 4 -46 -52 vvcurveto
          -48 -2 -48 -8 -31 vhcurveto
          endchar
        </CharString>
        <CharString name="Y">
          77 callgsubr
          hstemhm
          410 273 -22 401 119 124 hintmask 11110110
          479 -92 callgsubr
          128 88 173 177 27 hvcurveto
          -16 5 -6 27 23 vvcurveto
          103 91 116 135 99 vhcurveto
          38 51 89 34 -33 callsubr
          -120 -120 10 25 -113 hvcurveto
          4 -22 4 -54 -59 vvcurveto
          -49 -4 -60 -4 -16 vhcurveto
          82 93 1 -75 -82 -164 -157 -90 -129 hvcurveto
          hintmask 11111010
          -81 138 -163 149 76 vvcurveto
          74 80 5 89 -49 callsubr
          -99 -159 -11 -165 -34 callsubr
          93 -36 35 -24 rrcurveto
          178 -120 51 -104 -105 vvcurveto
          -28 -7 -21 -18 -6 vhcurveto
          hintmask 11110110
          201 -68 75 -127 -133 vvcurveto
          -115 -63 -32 -119 -101 callsubr
          endchar
        </CharString>
        <CharString name="Yacute">
          77 callgsubr
          111 43 callsubr
          hstemhm
          410 273 -22 401 119 124 hintmask 1111000011000000
          479 -92 callgsubr
          128 88 173 177 27 hvcurveto
          -16 5 -6 27 23 vvcurveto
          103 91 116 135 99 vhcurveto
          38 51 89 34 -33 callsubr
          -120 -120 10 25 -113 hvcurveto
          4 -22 4 -54 -59 vvcurveto
          -49 -4 -60 -4 -16 vhcurveto
          82 93 1 -75 -82 -164 -157 -90 -129 hvcurveto
          hintmask 1111000101000000
          -81 138 -163 149 76 vvcurveto
          74 80 5 89 -49 callsubr
          -99 -159 -11 -165 -34 callsubr
          93 -36 35 -24 rrcurveto
          178 -120 51 -104 -105 vvcurveto
          -28 -7 -21 -18 -6 vhcurveto
          hintmask 1111000011000000
          201 -68 75 -127 -133 vvcurveto
          -115 -63 -32 -119 -101 callsubr
          hintmask 0000111000000000
          162 1510 -97 callgsubr
        </CharString>
        <CharString name="Ycircumflex">
          77 callgsubr
          155 -16 callgsubr
          410 273 -22 401 119 124 hintmask 1111000011000000
          479 -92 callgsubr
          128 88 173 177 27 hvcurveto
          -16 5 -6 27 23 vvcurveto
          103 91 116 135 99 vhcurveto
          38 51 89 34 -33 callsubr
          -120 -120 10 25 -113 hvcurveto
          4 -22 4 -54 -59 vvcurveto
          -49 -4 -60 -4 -16 vhcurveto
          82 93 1 -75 -82 -164 -157 -90 -129 hvcurveto
          hintmask 1111000101000000
          -81 138 -163 149 76 vvcurveto
          74 80 5 89 -49 callsubr
          -99 -159 -11 -165 -34 callsubr
          93 -36 35 -24 rrcurveto
          178 -120 51 -104 -105 vvcurveto
          -28 -7 -21 -18 -6 vhcurveto
          hintmask 1111000011000000
          201 -68 75 -127 -133 vvcurveto
          -115 -63 -32 -119 -101 callsubr
          hintmask 0000011000000000
          -153 1559 -77 callgsubr
        </CharString>
        <CharString name="Ydieresis">
          77 callgsubr
          241 -21 23 320 27 -20 hstemhm
          342 400 -332 273 -22 401 -90 400 -191 124 hintmask 1111000001010000
          479 -92 callgsubr
          128 88 173 177 27 hvcurveto
          -16 5 -6 27 23 vvcurveto
          103 91 116 135 99 vhcurveto
          38 51 89 34 -33 callsubr
          -120 -120 10 25 -113 hvcurveto
          4 -22 4 -54 -59 vvcurveto
          -49 -4 -60 -4 -16 vhcurveto
          82 93 1 -75 -82 -164 -157 -90 -129 hvcurveto
          hintmask 1111000010010000
          -81 138 -163 149 76 vvcurveto
          74 80 5 89 -49 callsubr
          -99 -159 -11 -165 -34 callsubr
          93 -36 35 -24 rrcurveto
          178 -120 51 -104 -105 vvcurveto
          -28 -7 -21 -18 -6 vhcurveto
          hintmask 1111000001010000
          201 -68 75 -127 -133 vvcurveto
          -115 -63 -32 -119 -101 callsubr
          hintmask 0000111100100000
          467 1640 -106 callgsubr
        </CharString>
        <CharString name="Ygrave">
          77 callgsubr
          111 43 callsubr
          hstemhm
          410 273 -22 401 119 124 hintmask 1111000011000000
          479 -92 callgsubr
          128 88 173 177 27 hvcurveto
          -16 5 -6 27 23 vvcurveto
          103 91 116 135 99 vhcurveto
          38 51 89 34 -33 callsubr
          -120 -120 10 25 -113 hvcurveto
          4 -22 4 -54 -59 vvcurveto
          -49 -4 -60 -4 -16 vhcurveto
          82 93 1 -75 -82 -164 -157 -90 -129 hvcurveto
          hintmask 1111000101000000
          -81 138 -163 149 76 vvcurveto
          74 80 5 89 -49 callsubr
          -99 -159 -11 -165 -34 callsubr
          93 -36 35 -24 rrcurveto
          178 -120 51 -104 -105 vvcurveto
          -28 -7 -21 -18 -6 vhcurveto
          hintmask 1111000011000000
          201 -68 75 -127 -133 vvcurveto
          -115 -63 -32 -119 -101 callsubr
          hintmask 0000111000000000
          263 1510 -84 callgsubr
        </CharString>
        <CharString name="Z">
          49 callgsubr
          hstem
          124 286 721 296 vstem
          70 hmoveto
          171 27 250 2 252 -1 201 -1 391 -1 127 -26 rrcurveto
          -24 56 -11 114 115 vvcurveto
          115 11 110 24 43 vhcurveto
          -15 -70 -58 -6 -45 hhcurveto
          -79 -56 9 12 -35 hvcurveto
          10 -40 2 -41 -50 vvcurveto
          -135 -123 -67 -90 -88 -99 12 20 -64 vhcurveto
          59 110 56 95 75 83 100 134 116 44 78 17 rrcurveto
          -12 4 -5 14 20 vvcurveto
          29 10 40 26 35 vhcurveto
          84 114 124 98 50 11 rrcurveto
          -13 30 -12 75 65 vvcurveto
          67 7 66 18 37 vhcurveto
          -19 -65 -419 -18 -179 hhcurveto
          -172 -167 -12 49 -337 hvcurveto
          23 -56 12 -125 -115 vvcurveto
          -115 -12 -111 -23 -42 vhcurveto
          15 86 70 6 57 hhcurveto
          59 44 -9 -12 27 hvcurveto
          -11 45 -11 19 67 vvcurveto
          142 91 61 160 51 109 -15 -18 91 vhcurveto
          -66 -188 -206 -228 -144 -28 rrcurveto
          9 -3 6 -9 -13 vvcurveto
          -25 -40 -41 -31 -44 vhcurveto
          -134 -189 -179 -91 -57 2 rrcurveto
          14 -19 11 -101 -40 vvcurveto
          -63 -7 -62 -18 -35 vhcurveto
          endchar
        </CharString>
        <CharString name="Zacute">
          49 callgsubr
          111 43 callsubr
          hstemhm
          124 286 721 296 hintmask 1111000110000000
          70 hmoveto
          171 27 250 2 252 -1 201 -1 391 -1 127 -26 rrcurveto
          -24 56 -11 114 115 vvcurveto
          115 11 110 24 43 vhcurveto
          -15 -70 -58 -6 -45 hhcurveto
          -79 -56 9 12 -35 hvcurveto
          10 -40 2 -41 -50 vvcurveto
          -135 -123 -67 -90 -88 -99 12 20 -64 vhcurveto
          59 110 56 95 75 83 100 134 116 44 78 17 rrcurveto
          -12 4 -5 14 20 vvcurveto
          29 10 40 26 35 vhcurveto
          84 114 124 98 50 11 rrcurveto
          -13 30 -12 75 65 vvcurveto
          67 7 66 18 37 vhcurveto
          -19 -65 -419 -18 -179 hhcurveto
          -172 -167 -12 49 -337 hvcurveto
          23 -56 12 -125 -115 vvcurveto
          -115 -12 -111 -23 -42 vhcurveto
          15 86 70 6 57 hhcurveto
          59 44 -9 -12 27 hvcurveto
          -11 45 -11 19 67 vvcurveto
          142 91 61 160 51 109 -15 -18 91 vhcurveto
          -66 -188 -206 -228 -144 -28 rrcurveto
          9 -3 6 -9 -13 vvcurveto
          -25 -40 -41 -31 -44 vhcurveto
          -134 -189 -179 -91 -57 2 rrcurveto
          14 -19 11 -101 -40 vvcurveto
          -63 -7 -62 -18 -35 vhcurveto
          hintmask 0000111000000000
          483 1510 -97 callgsubr
        </CharString>
        <CharString name="Zcaron">
          49 callgsubr
          160 74 callgsubr
          124 286 721 296 hintmask 1111000110000000
          70 hmoveto
          171 27 250 2 252 -1 201 -1 391 -1 127 -26 rrcurveto
          -24 56 -11 114 115 vvcurveto
          115 11 110 24 43 vhcurveto
          -15 -70 -58 -6 -45 hhcurveto
          -79 -56 9 12 -35 hvcurveto
          10 -40 2 -41 -50 vvcurveto
          -135 -123 -67 -90 -88 -99 12 20 -64 vhcurveto
          59 110 56 95 75 83 100 134 116 44 78 17 rrcurveto
          -12 4 -5 14 20 vvcurveto
          29 10 40 26 35 vhcurveto
          84 114 124 98 50 11 rrcurveto
          -13 30 -12 75 65 vvcurveto
          67 7 66 18 37 vhcurveto
          -19 -65 -419 -18 -179 hhcurveto
          -172 -167 -12 49 -337 hvcurveto
          23 -56 12 -125 -115 vvcurveto
          -115 -12 -111 -23 -42 vhcurveto
          15 86 70 6 57 hhcurveto
          59 44 -9 -12 27 hvcurveto
          -11 45 -11 19 67 vvcurveto
          142 91 61 160 51 109 -15 -18 91 vhcurveto
          -66 -188 -206 -228 -144 -28 rrcurveto
          9 -3 6 -9 -13 vvcurveto
          -25 -40 -41 -31 -44 vhcurveto
          -134 -189 -179 -91 -57 2 rrcurveto
          14 -19 11 -101 -40 vvcurveto
          -63 -7 -62 -18 -35 vhcurveto
          hintmask 0000110000000000
          491 -62 callgsubr
        </CharString>
        <CharString name="Zdotaccent">
          49 callgsubr
          195 11 callsubr
          124 286 141 435 145 296 hintmask 1111000101000000
          70 hmoveto
          171 27 250 2 252 -1 201 -1 391 -1 127 -26 rrcurveto
          -24 56 -11 114 115 vvcurveto
          115 11 110 24 43 vhcurveto
          -15 -70 -58 -6 -45 hhcurveto
          -79 -56 9 12 -35 hvcurveto
          10 -40 2 -41 -50 vvcurveto
          -135 -123 -67 -90 -88 -99 12 20 -64 vhcurveto
          59 110 56 95 75 83 100 134 116 44 78 17 rrcurveto
          -12 4 -5 14 20 vvcurveto
          29 10 40 26 35 vhcurveto
          84 114 124 98 50 11 rrcurveto
          -13 30 -12 75 65 vvcurveto
          67 7 66 18 37 vhcurveto
          -19 -65 -419 -18 -179 hhcurveto
          -172 -167 -12 49 -337 hvcurveto
          23 -56 12 -125 -115 vvcurveto
          -115 -12 -111 -23 -42 vhcurveto
          15 86 70 6 57 hhcurveto
          59 44 -9 -12 27 hvcurveto
          -11 45 -11 19 67 vvcurveto
          142 91 61 160 51 109 -15 -18 91 vhcurveto
          -66 -188 -206 -228 -144 -28 rrcurveto
          9 -3 6 -9 -13 vvcurveto
          -25 -40 -41 -31 -44 vhcurveto
          -134 -189 -179 -91 -57 2 rrcurveto
          14 -19 11 -101 -40 vvcurveto
          -63 -7 -62 -18 -35 vhcurveto
          hintmask 0000011010000000
          452 1595 rmoveto
          hintmask 0000101010000000
          -26 callgsubr
          hintmask 0000011010000000
          -15 callsubr
          87 84 vvcurveto
          84 8 82 17 34 vhcurveto
          hintmask 0000101010000000
          -20 -42 -102 -45 callgsubr
          -99 47 callsubr
          hintmask 0000011010000000
          -7 callgsubr
          endchar
        </CharString>
        <CharString name="a">
          -50 callsubr
          hstemhm
          101 405 -325 378 263 354 hintmask 1101011010000000
          -90 callgsubr
          hintmask 1010111010000000
          -85 callgsubr
          hintmask 1101010110000000
          -75 callsubr
          hintmask 1100111010000000
          -95 callgsubr
          endchar
        </CharString>
        <CharString name="aacute">
          -50 callsubr
          150 420 -419 -21 465 -100 callsubr
          hintmask 0000000110000000
          22 857 rmoveto
          hintmask 0000001010000000
          62 callgsubr
          hintmask 0000000110000000
          -57 callgsubr
          hintmask 0000001010000000
          -56 callgsubr
          hintmask 0000000110000000
          -24 callgsubr
        </CharString>
        <CharString name="abreve">
          -50 callsubr
          104 232 -35 270 27 42 callsubr
          -273 242 294 354 -310 242 hintmask 1101010001001000
          -90 callgsubr
          hintmask 1010110001001000
          -85 callgsubr
          hintmask 1101010000101000
          -75 callsubr
          hintmask 1100110001001000
          -95 callgsubr
          hintmask 0000001010010100
          191 831 rmoveto
          hintmask 0000000110010100
          -72 callsubr
          hintmask 0000001010010100
          -18 callgsubr
          hintmask 0000000110010100
          -14 -21 -63 -13 -60 hhcurveto
          -70 -58 12 15 -25 -47 callgsubr
          hintmask 0000001010010100
          26 callsubr
        </CharString>
        <CharString name="acircumflex">
          -50 callsubr
          115 425 -419 -21 465 -100 callsubr
          hintmask 0000000110000000
          -306 827 rmoveto
          hintmask 0000001010000000
          37 callgsubr
          hintmask 0000000110000000
          -66 callsubr
          hintmask 0000001010000000
          36 callgsubr
          hintmask 0000000110000000
          -48 callgsubr
          hintmask 0000001010000000
          -35 callgsubr
          hintmask 0000000110000000
          -22 callsubr
        </CharString>
        <CharString name="acute">
          -612 1210 -32 callgsubr
          hintmask 01100000
          361 1190 rmoveto
          hintmask 10100000
          62 callgsubr
          hintmask 01100000
          -57 callgsubr
          hintmask 10100000
          -56 callgsubr
          hintmask 01100000
          -24 callgsubr
        </CharString>
        <CharString name="acute.cap">
          -749 1531 43 callsubr
          hstem
          238 1510 -97 callgsubr
        </CharString>
        <CharString name="adieresis">
          -50 callsubr
          175 -21 23 320 27 42 callsubr
          -375 68 callsubr
          -392 354 hintmask 1101010001000100
          -90 callgsubr
          hintmask 1010110001000100
          -85 callgsubr
          hintmask 1101010000100100
          -75 callsubr
          hintmask 1100110001000100
          -95 callgsubr
          hintmask 0000001110011000
          282 881 -106 callgsubr
        </CharString>
        <CharString name="ae">
          54 callsubr
          hstemhm
          113 418 -338 388 270 340 385 355 hintmask 1100110110110000
          13 callgsubr
          hintmask 1001110110110000
          40 callgsubr
          hintmask 1100101110110000
          -21 callgsubr
          hintmask 1100110101110000
          -57 -55 -139 5 callsubr
          hintmask 1010101110110000
          -35 callsubr
          endchar
        </CharString>
        <CharString name="aeacute">
          54 callsubr
          150 -32 callgsubr
          113 418 -338 388 270 340 385 355 hintmask 1100110100010110
          13 callgsubr
          hintmask 1001110100010110
          40 callgsubr
          hintmask 1100101100010110
          -21 callgsubr
          hintmask 1100110100001110
          -57 -55 -139 5 callsubr
          hintmask 1010101100010110
          -35 callsubr
          hintmask 0000000001100000
          -18 993 rmoveto
          hintmask 0000000010100000
          62 callgsubr
          hintmask 0000000001100000
          -57 callgsubr
          hintmask 0000000010100000
          -56 callgsubr
          hintmask 0000000001100000
          -24 callgsubr
        </CharString>
        <CharString name="agrave">
          -50 callsubr
          150 420 -419 -21 465 -100 callsubr
          hintmask 0000000110000000
          22 857 rmoveto
          hintmask 0000001010000000
          12 21 52 8 83 hhcurveto
          hintmask 0000000110000000
          -17 callsubr
          hintmask 0000001010000000
          -17 callgsubr
          hintmask 0000000110000000
          7 callgsubr
        </CharString>
        <CharString name="amacron">
          -50 callsubr
          223 -21 23 237 27 -100 callsubr
          hintmask 0000001110000000
          -253 929 -98 callsubr
        </CharString>
        <CharString name="ampersand">
          236 21 -21 25 201 -201 265 371 290 272 182 35 -20 hstemhm
          168 360 -270 375 277 322 hintmask 1101111010000000
          143 226 rmoveto
          71 188 -125 -101 66 hvcurveto
          20 60 91 5 113 hhcurveto
          98 75 -2 -23 47 hvcurveto
          32 61 55 68 51 45 58 -44 57 -61 3 -69 rrcurveto
          17 20 112 8 120 hhcurveto
          73 153 -6 -19 52 hvcurveto
          -6 32 -9 57 58 vvcurveto
          60 6 53 9 50 vhcurveto
          hintmask 1011110110000000
          -17 -42 -36 -3 -71 hhcurveto
          -125 -93 83 76 -56 hvcurveto
          105 74 115 107 118 hhcurveto
          32 53 -7 -9 39 hvcurveto
          -9 45 -9 43 83 vvcurveto
          50 8 79 17 28 vhcurveto
          -17 -54 -101 -5 -73 hhcurveto
          -100 -86 17 13 -11 hvcurveto
          31 -132 -80 -176 -129 -96 -43 34 -44 42 -39 40 61 94 112 74 62 23 rrcurveto
          -17 37 -10 89 85 vvcurveto
          75 7 72 15 29 vhcurveto
          -1 -4 -5 0 -4 hhcurveto
          -83 -193 96 74 -28 hvcurveto
          -21 -24 -81 -14 -87 hhcurveto
          -100 -101 13 22 -31 hvcurveto
          -74 -25 -168 -92 -72 hhcurveto
          -6 0 0 1 -6 hvcurveto
          15 -29 7 -72 -75 vvcurveto
          -85 -10 -89 -17 -37 vhcurveto
          31 -18 55 -32 43 -56 rrcurveto
          -92 -37 -130 -52 -50 hhcurveto
          hintmask 1101111010000000
          15 -28 10 -104 -71 vvcurveto
          -94 -2 -86 -23 -29 vhcurveto
          670 625 rmoveto
          hintmask 1101110110000000
          -70 34 -110 105 97 vvcurveto
          83 50 53 79 87 61 -55 -115 -60 -54 -112 -43 -30 vhcurveto
          hintmask 1101111010000000
          -285 -438 rmoveto
          62 22 66 43 44 vhcurveto
          51 -13 235 -194 12 -33 rrcurveto
          -47 -31 -58 -72 -102 hhcurveto
          -97 -75 59 128 hvcurveto
          endchar
        </CharString>
        <CharString name="aogonek">
          -264 71 callsubr
          198 207 474 22 callsubr
          hstemhm
          101 418 -338 388 46 334 -120 347 -57 260 hintmask 1010110110101000
          76 90 callsubr
          71 -19 -16 61 hvcurveto
          11 43 67 77 92 30 17 -14 19 -20 15 -28 rrcurveto
          -105 -54 -175 -101 -116 hhcurveto
          14 -35 6 -42 -84 vvcurveto
          -64 -8 -61 -12 -25 -2 callgsubr
          hintmask 1100110110101000
          28 callsubr
          hintmask 1001110110101000
          -38 callgsubr
          hintmask 1100110110101000
          58 callgsubr
          138 144 279 -41 vhcurveto
          -13 30 -7 45 51 vvcurveto
          45 9 68 11 31 vhcurveto
          hintmask 1100101110010000
          -161 -29 21 109 129 1 318 35 87 hvcurveto
          -78 -4 -156 64 -45 86 rrcurveto
          -21 -39 -74 -14 -123 hhcurveto
          -109 -78 12 23 -48 hvcurveto
          hintmask 1100110101101000
          -57 -55 -129 5 callsubr
          hintmask 1100101110010000
          118 39 51 105 79 37 -37 -65 -72 -47 -60 -152 87 callgsubr
          -47 -90 -70 -25 rrcurveto
          14 -26 11 -41 -43 vvcurveto
          -41 -8 -42 -17 -31 vhcurveto
          443 172 rmoveto
          90 88 61 213 5 vhcurveto
          -177 -11 -99 -66 -89 hhcurveto
          -49 -53 22 65 hvcurveto
          endchar
        </CharString>
        <CharString name="approxequal">
          -99 96 314 -306 -21 238 89 -29 89 -89 314 142 314 -89 91 callgsubr
          hintmask 1000001001110000
          86 824 rmoveto
          20 callsubr
          hintmask 1000010001110000
          172 42 -211 -14 371 hvcurveto
          hintmask 1000000101110000
          -20 callsubr
          hintmask 1000000010110000
          100 callsubr
          hintmask 0110010001110000
          52 callsubr
          -80 -8 -79 -20 -25 vhcurveto
          -741 vmoveto
          20 callsubr
          hintmask 1000010001110000
          172 42 -211 -14 371 hvcurveto
          hintmask 0101010001110000
          -20 callsubr
          hintmask 0100110001110000
          100 callsubr
          hintmask 1000010001110000
          52 callsubr
          hintmask 0110010001110000
          -80 -8 -79 -20 -25 vhcurveto
          endchar
        </CharString>
        <CharString name="aring">
          -50 callsubr
          93 76 callgsubr
          101 405 -325 378 -225 241 247 354 -347 231 hintmask 1101010000100100
          -90 callgsubr
          hintmask 1010110000100100
          -85 callgsubr
          hintmask 1101010000010100
          -75 callsubr
          hintmask 1100110000100100
          -95 callgsubr
          hintmask 0000000110001010
          48 802 rmoveto
          hintmask 0000001010001010
          124 callgsubr
          hintmask 0000000101001010
          -4 callsubr
          hintmask 0000001010001010
          -9 -18 -57 -9 -62 hhcurveto
          hintmask 0000000101001010
          -69 -62 7 11 -22 hvcurveto
          -25 -54 -141 -74 -80 4 rrcurveto
          12 -28 16 -50 -86 vvcurveto
          -82 -13 -86 -15 -22 vhcurveto
          73 10 144 -45 31 -45 rrcurveto
          hintmask 0000001010001010
          20 callgsubr
        </CharString>
        <CharString name="asciicircum">
          -103 518 -21 1128 -20 hstem
          124 500 rmoveto
          22 34 107 0 56 hhcurveto
          50 117 -10 -15 24 hvcurveto
          -17 73 174 365 77 191 89 -191 197 -365 -16 -73 rrcurveto
          15 24 117 10 50 hhcurveto
          56 108 0 -22 33 hvcurveto
          -74 65 -478 873 -35 187 rrcurveto
          -10 -19 -38 -3 -16 hhcurveto
          -16 -38 3 10 -19 hvcurveto
          -35 -186 -438 -869 -74 -70 rrcurveto
          1280 hmoveto
          -2 1 2 -1 1 hhcurveto
          -1288 hmoveto
          1 1 1 2 2 hvcurveto
          endchar
        </CharString>
        <CharString name="asciitilde">
          -99 511 314 -306 -21 238 91 callgsubr
          hintmask 01100111
          86 498 rmoveto
          20 callsubr
          hintmask 10000111
          172 42 -211 -14 371 hvcurveto
          hintmask 01010111
          -20 callsubr
          hintmask 01001011
          100 callsubr
          hintmask 10000111
          52 callsubr
          hintmask 01100111
          -80 -8 -79 -20 -25 vhcurveto
          endchar
        </CharString>
        <CharString name="asterisk">
          -442 701 -21 1076 -20 hstem
          442 680 rmoveto
          26 79 78 229 50 128 56 -122 91 -214 26 -79 46 73 173 152 64 13 -68 49 -191 130 -103 78 rrcurveto
          10 130 232 9 85 hhcurveto
          -55 66 -71 237 7 66 -69 -50 -191 -146 -109 -75 32 133 66 230 25 80 -80 -32 -226 4 -62 28 25 -79 67 -225 34 -134 -109 77 -182 140 -67 49 7 -66 -71 -237 -55 -66 rrcurveto
          86 236 -9 -11 128 hvcurveto
          -104 -88 -202 -158 -69 -50 64 -13 204 -133 46 -73 rrcurveto
          endchar
        </CharString>
        <CharString name="at">
          931 -359 -21 48 156 237 205 615 190 236 167 hstem
          434 281 385 330 373 346 vstem
          190 449 rmoveto
          -542 50 464 -239 599 hhcurveto
          156 336 6 -54 32 hvcurveto
          5 43 26 79 94 33 -96 38 -27 81 1 46 rrcurveto
          -65 -34 -337 -51 -127 hhcurveto
          -663 -235 256 542 446 271 239 573 492 379 -162 -437 -317 -115 -125 -145 -29 -57 80 272 185 69 226 46 67 hvcurveto
          -18 -38 -74 -7 -52 hhcurveto
          -87 -68 8 17 -30 hvcurveto
          -8 -43 -20 -41 -27 -33 -41 25 -21 43 -14 69 rrcurveto
          -17 -25 -61 -18 -86 hhcurveto
          -108 -39 10 25 -47 hvcurveto
          -33 -95 -272 -148 -98 -1 rrcurveto
          29 -39 17 -126 -135 vvcurveto
          -150 -13 -104 -33 -46 vhcurveto
          99 213 -116 -120 35 hvcurveto
          17 16 96 8 97 hhcurveto
          102 104 -11 -14 13 hvcurveto
          1 73 40 63 49 44 rrcurveto
          105 -92 10 -88 0 vvcurveto
          17 52 100 18 100 hhcurveto
          174 239 112 274 40 hvcurveto
          15 102 24 95 53 6 -53 6 -10 117 -27 114 rrcurveto
          433 -105 -412 144 -579 hhcurveto
          -401 -545 -178 -444 -104 hvcurveto
          -21 -94 -20 -90 -52 -8 54 -11 10 -99 9 -101 rrcurveto
          910 74 rmoveto
          217 44 141 153 50 36 -9 -35 47 vhcurveto
          -430 32 -126 -141 -105 hhcurveto
          -77 -54 84 173 hvcurveto
          endchar
        </CharString>
        <CharString name="atilde">
          -50 callsubr
          101 294 -276 -21 188 109 -109 294 3 116 callsubr
          -366 275 -234 378 263 354 -196 274 hintmask 1101010000010010
          -90 callgsubr
          hintmask 1010110000010010
          -85 callgsubr
          hintmask 1101010000000110
          -75 callsubr
          hintmask 1100110000010010
          -95 callgsubr
          hintmask 0000001000101001
          -391 828 17 callgsubr
          hintmask 0000000110101001
          -55 callgsubr
          hintmask 0000001000101001
          -76 callsubr
          hintmask 0000000101001001
          -69 callgsubr
          hintmask 0000001000101001
          15 callgsubr
        </CharString>
        <CharString name="b">
          72 11 -21 35 215 590 215 580 -20 hstem
          328 371 405 419 vstem
          -67 callgsubr
          endchar
        </CharString>
        <CharString name="backslash">
          -611 -129 -21 1775 -20 hstem
          519 244 rmoveto
          49 -156 53 -191 -25 -47 rrcurveto
          15 48 87 5 59 hhcurveto
          59 84 -5 -15 51 hvcurveto
          -52 37 -79 238 -42 132 -310 974 rcurveline
          -49 156 -53 191 25 47 rrcurveto
          -10 -40 -65 -10 -90 hhcurveto
          -90 -63 10 10 -40 hvcurveto
          52 -37 79 -238 42 -132 rrcurveto
          endchar
        </CharString>
        <CharString name="bar">
          91 callsubr
          -150 rmoveto
          4 callgsubr
          121 139 vvcurveto
          1019 vlineto
          164 -2 183 25 47 vhcurveto
          -15 -48 -80 -5 -56 hhcurveto
          -56 -82 5 15 -46 hvcurveto
          25 -47 -2 -183 -164 vvcurveto
          -1019 121 callgsubr
        </CharString>
        <CharString name="braceleft">
          81 callsubr
          300 381 vstem
          260 -12 rmoveto
          125 12 131 -117 17 -80 rrcurveto
          14 39 70 11 61 hhcurveto
          69 61 -9 -16 37 hvcurveto
          -9 14 -6 29 32 vvcurveto
          55 7 52 8 28 vhcurveto
          -175 -14 56 175 hvcurveto
          244 vlineto
          164 -77 38 -83 24 vhcurveto
          83 24 77 38 164 vvcurveto
          269 vlineto
          175 14 56 175 vhcurveto
          -8 16 -7 28 31 vvcurveto
          56 6 53 9 26 vhcurveto
          -16 -37 -61 -9 -69 hhcurveto
          -61 -70 11 14 -39 hvcurveto
          -17 -80 -131 -117 -125 12 rrcurveto
          30 -41 10 -116 -108 vvcurveto
          -210 vlineto
          -169 -60 -31 -105 vhcurveto
          9 -18 3 -29 -29 vvcurveto
          -29 -3 -29 -9 -18 vhcurveto
          105 60 -31 -169 hvcurveto
          -185 vlineto
          -108 -10 -116 -30 -41 vhcurveto
          endchar
        </CharString>
        <CharString name="braceright">
          81 callsubr
          340 381 vstem
          761 -12 rmoveto
          -30 41 -10 116 108 vvcurveto
          185 vlineto
          169 60 31 105 vhcurveto
          -9 18 -3 29 29 vvcurveto
          29 3 29 9 18 vhcurveto
          -105 -60 31 169 hvcurveto
          210 vlineto
          108 10 116 30 41 vhcurveto
          -125 -12 -131 117 -17 80 rrcurveto
          -14 -39 -70 -11 -61 hhcurveto
          -69 -61 9 16 -37 hvcurveto
          9 -26 6 -53 -56 vvcurveto
          -31 -7 -28 -8 -16 vhcurveto
          175 14 -56 -175 hvcurveto
          -269 vlineto
          -164 77 -38 83 -24 vhcurveto
          -83 -24 -77 -38 -164 vvcurveto
          -244 vlineto
          -175 -14 -56 -175 vhcurveto
          8 -28 7 -52 -55 vvcurveto
          -32 -6 -29 -9 -14 vhcurveto
          16 37 61 9 69 hhcurveto
          61 70 -11 -14 39 hvcurveto
          17 80 131 117 125 -12 rrcurveto
          endchar
        </CharString>
        <CharString name="bracketleft">
          114 callsubr
          270 371 vstem
          240 -197 rmoveto
          19 82 83 6 138 hhcurveto
          121 133 -9 -16 63 hvcurveto
          -9 18 -6 67 40 vvcurveto
          35 6 62 9 18 vhcurveto
          -34 -89 -4 8 -90 hvcurveto
          -15 120 9 258 314 vvcurveto
          313 -9 259 15 120 vhcurveto
          7 90 89 -3 34 hhcurveto
          -9 18 -6 52 35 vvcurveto
          40 6 77 9 18 vhcurveto
          -16 -63 -133 -9 -121 hhcurveto
          -138 -83 6 19 -82 hvcurveto
          30 -41 0 -516 -108 vvcurveto
          -147 -17 -108 -76 -16 vhcurveto
          76 -16 17 -108 -147 vvcurveto
          -108 0 -516 -30 -41 vhcurveto
          endchar
        </CharString>
        <CharString name="bracketright">
          114 callsubr
          380 371 vstem
          781 -197 rmoveto
          -30 41 0 516 108 vvcurveto
          147 17 108 76 16 vhcurveto
          -76 16 -17 108 147 vvcurveto
          108 0 516 30 41 vhcurveto
          -19 -82 -83 -6 -138 hhcurveto
          -121 -133 9 16 -63 hvcurveto
          9 -18 6 -77 -40 vvcurveto
          -35 -6 -52 -9 -18 vhcurveto
          34 89 3 -7 90 hvcurveto
          15 -120 -9 -259 -313 vvcurveto
          -314 9 -258 -15 -120 vhcurveto
          -8 -90 -89 4 -34 hhcurveto
          9 -18 6 -62 -35 vvcurveto
          -40 -6 -67 -9 -18 vhcurveto
          16 63 133 9 121 hhcurveto
          138 83 -6 -19 82 hvcurveto
          endchar
        </CharString>
        <CharString name="breve">
          -924 1164 55 callgsubr
          -57 127 callgsubr
          hintmask 10111000
          354 1164 rmoveto
          hintmask 01111000
          -72 callsubr
          hintmask 10111000
          -18 callgsubr
          hintmask 01111000
          -14 -21 -63 -13 -60 hhcurveto
          -70 -58 12 15 -25 -47 callgsubr
          hintmask 10111000
          26 callsubr
        </CharString>
        <CharString name="breve.cap">
          -924 1524 18 callsubr
          -87 272 338 272 hintmask 10011100
          354 1524 rmoveto
          hintmask 00111100
          -71 callgsubr
          hintmask 01011100
          -18 callsubr
          hintmask 00111100
          -14 -23 -73 -13 -68 hhcurveto
          -75 -61 12 15 -27 -47 callgsubr
          hintmask 10011100
          27 callgsubr
        </CharString>
        <CharString name="brokenbar">
          91 callsubr
          855 rmoveto
          17 callsubr
          -406 vlineto
          -47 -1 -21 -22 -147 vhcurveto
          23 -790 rmoveto
          -47 -1 -21 -22 -147 vhcurveto
          17 callsubr
          endchar
        </CharString>
        <CharString name="bullet">
          -781 436 -21 558 -20 hstem
          282 415 rmoveto
          124 callgsubr
          65 58 -9 -9 22 hvcurveto
          58 16 115 62 57 hhcurveto
          -20 20 -8 34 99 vvcurveto
          99 15 20 13 22 vhcurveto
          -57 5 -110 65 -19 74 rrcurveto
          -8 -18 -57 -10 -62 hhcurveto
          -69 -62 6 12 -22 hvcurveto
          -19 -74 -105 -65 -62 -5 rrcurveto
          13 -24 15 -18 -102 vvcurveto
          -98 -13 -32 -15 -20 vhcurveto
          55 108 -51 -69 25 hvcurveto
          endchar
        </CharString>
        <CharString name="c">
          -276 -5 callgsubr
          hstemhm
          147 400 366 319 hintmask 11101110
          -96 callgsubr
          hintmask 11011110
          -64 callgsubr
          endchar
        </CharString>
        <CharString name="cacute">
          18 callgsubr
          130 420 -419 -21 465 93 callsubr
          hintmask 1110100011000000
          -96 callgsubr
          hintmask 1101100011000000
          -64 callgsubr
          hintmask 0000001100000000
          409 1024 1 callgsubr
        </CharString>
        <CharString name="caron">
          -403 1181 60 callsubr
          hintmask 11000000
          460 96 callgsubr
          hintmask 10100000
          30 callgsubr
          hintmask 11000000
          61 callgsubr
          hintmask 10100000
          -39 callgsubr
          hintmask 11000000
          -12 callgsubr
          hintmask 10100000
          -24 callsubr
        </CharString>
        <CharString name="caron.cap">
          -461 1580 74 callgsubr
          hintmask 11000000
          380 1559 rmoveto
          15 32 91 10 79 hhcurveto
          91 76 -10 -15 32 hvcurveto
          hintmask 10100000
          -9 83 316 324 72 44 rrcurveto
          hintmask 11000000
          -7 -27 -76 -8 -130 hhcurveto
          hintmask 10100000
          -118 -68 9 6 -40 hvcurveto
          -17 -49 -30 -112 -64 -87 -76 87 -34 112 -20 49 rrcurveto
          hintmask 11000000
          -12 callgsubr
          hintmask 10100000
          -130 -76 9 6 -27 hvcurveto
          72 -44 306 -324 -9 -83 rrcurveto
          endchar
        </CharString>
        <CharString name="ccaron">
          18 callgsubr
          101 -21 25 425 15 93 callsubr
          hintmask 1110100011000000
          -96 callgsubr
          hintmask 1101100011000000
          -64 callgsubr
          hintmask 0000011000000000
          393 994 -6 callgsubr
          hintmask 0000010100000000
          30 callgsubr
          hintmask 0000011000000000
          61 callgsubr
          hintmask 0000010100000000
          -39 callgsubr
          hintmask 0000011000000000
          -12 callgsubr
          hintmask 0000010100000000
          -24 callsubr
        </CharString>
        <CharString name="ccedilla">
          18 callgsubr
          hstemhm
          147 400 366 319 hintmask 11101110
          -96 callgsubr
          hintmask 11011110
          -64 callgsubr
          endchar
        </CharString>
        <CharString name="ccircumflex">
          18 callgsubr
          95 425 -419 -21 465 93 callsubr
          hintmask 1110100011000000
          -96 callgsubr
          hintmask 1101100011000000
          -64 callgsubr
          hintmask 0000001100000000
          81 994 rmoveto
          hintmask 0000010100000000
          37 callgsubr
          hintmask 0000001100000000
          -66 callsubr
          hintmask 0000010100000000
          36 callgsubr
          hintmask 0000001100000000
          -48 callgsubr
          hintmask 0000010100000000
          -35 callgsubr
          hintmask 0000001100000000
          -22 callsubr
        </CharString>
        <CharString name="cdotaccent">
          18 callgsubr
          141 11 callgsubr
          147 400 -92 435 23 319 hintmask 1110100010100000
          -96 callgsubr
          hintmask 1101100010100000
          -64 callgsubr
          hintmask 0000001101000000
          334 1035 rmoveto
          hintmask 0000010101000000
          -26 callgsubr
          hintmask 0000001101000000
          -59 callgsubr
          hintmask 0000010101000000
          -20 -42 -102 -45 callgsubr
          -99 13 17 -47 hvcurveto
          17 -32 13 -73 -85 vvcurveto
          hintmask 0000001101000000
          14 callsubr
        </CharString>
        <CharString name="cedilla">
          -272 83 callsubr
          619 -20 hstemhm
          309 503 -231 231 hintmask 01110000
          287 -223 21 callsubr
          hintmask 10110000
          10 38 77 9 87 hhcurveto
          hintmask 01101000
          -46 callgsubr
          hintmask 10110000
          66 callsubr
        </CharString>
        <CharString name="cedilla.cap">
          -289 83 callsubr
          619 -20 hstemhm
          611 231 hintmask 01110000
          287 -223 21 callsubr
          hintmask 10110000
          10 38 107 9 87 hhcurveto
          hintmask 01110000
          -46 callgsubr
          hintmask 10110000
          -143 -53 -48 -110 -33 -87 4 6 -41 vhcurveto
          endchar
        </CharString>
        <CharString name="cent">
          -107 -258 470 -464 -21 1116 172 -172 492 15 -20 hstemhm
          237 400 45 223 98 319 hintmask 01010111
          182 166 rmoveto
          106 8 235 -111 17 -73 28 9 47 10 52 7 -8 -115 -17 -145 -26 -29 rrcurveto
          hintmask 10010111
          31 12 61 4 74 -1 rrcurveto
          hintmask 01010111
          70 -1 82 -4 22 -10 -26 35 -17 138 -8 111 28 -6 23 -8 18 -7 81 64 175 63 112 -14 rrcurveto
          -11 41 -9 40 82 vvcurveto
          46 6 77 14 41 vhcurveto
          -17 -44 -56 -5 -57 hhcurveto
          -64 -65 5 17 -47 hvcurveto
          hintmask 10101111
          -112 -9 -37 -106 -141 hhcurveto
          -104 -81 50 276 245 88 60 109 110 49 -73 -140 10 hvcurveto
          51 callgsubr
          75 56 -7 -16 33 hvcurveto
          -15 32 -10 88 80 vvcurveto
          76 10 79 15 43 vhcurveto
          -4 -21 -28 -9 -71 hhcurveto
          -100 -97 34 51 -37 hvcurveto
          -15 -12 -24 -11 -31 -9 10 112 19 135 25 35 rrcurveto
          hintmask 10010111
          -22 -10 -71 -4 -70 -1 rrcurveto
          hintmask 10101111
          -74 -1 -66 4 -31 12 27 -30 12 -157 5 -117 -78 4 -69 14 -29 16 -43 -115 -173 -94 -108 -11 rrcurveto
          39 -47 16 -161 -134 vvcurveto
          -135 -13 -172 -42 -45 vhcurveto
          endchar
        </CharString>
        <CharString name="circumflex">
          -272 1175 425 -12 callsubr
          hintmask 01100000
          148 1160 rmoveto
          hintmask 10100000
          37 callgsubr
          hintmask 01100000
          -66 callsubr
          hintmask 10100000
          36 callgsubr
          hintmask 01100000
          -48 callgsubr
          hintmask 10100000
          -35 callgsubr
          hintmask 01100000
          -22 callsubr
        </CharString>
        <CharString name="circumflex.cap">
          -749 1575 -16 callgsubr
          hintmask 01100000
          -87 1559 rmoveto
          hintmask 10100000
          7 20 67 9 90 hhcurveto
          hintmask 01100000
          85 45 -9 -7 19 hvcurveto
          27 36 47 91 133 67 120 -67 43 -91 24 -36 rrcurveto
          hintmask 10100000
          7 26 48 9 86 hhcurveto
          hintmask 01100000
          90 67 -9 -7 20 hvcurveto
          -59 43 -276 328 10 80 rrcurveto
          hintmask 10100000
          -16 -33 -80 -11 -94 hhcurveto
          -82 -96 11 16 -33 hvcurveto
          hintmask 01100000
          10 -80 -265 -328 -59 -43 rrcurveto
          endchar
        </CharString>
        <CharString name="colon">
          -952 21 -21 25 375 265 57 callsubr
          640 rmoveto
          -36 callsubr
          46 -8 76 88 vvcurveto
          92 8 90 17 38 112 callsubr
          17 -37 13 -90 -93 vvcurveto
          -101 -13 -73 -16 -36 vhcurveto
          -640 vmoveto
          -36 callsubr
          46 -8 76 88 vvcurveto
          92 8 90 17 38 112 callsubr
          17 -37 13 -90 -93 vvcurveto
          -101 -13 -73 -16 -36 vhcurveto
          endchar
        </CharString>
        <CharString name="comma">
          -952 -312 -21 763 -20 hstem
          120 440 vstem
          91 hmoveto
          27 8 50 8 59 4 37 -115 -65 -118 -40 -44 33 5 125 -37 34 -44 21 75 96 194 120 21 rrcurveto
          -20 48 -8 87 37 callsubr
        </CharString>
        <CharString name="commaaccent">
          -749 25 callgsubr
          hstem
          211 480 vstem
          181 -112 rmoveto
          16 -23 14 -62 -65 vvcurveto
          -66 -13 -52 -16 -22 vhcurveto
          31 10 87 9 85 4 16 -11 8 -22 -1 -24 -1 -40 -6 -51 -13 -23 rrcurveto
          16 16 76 -2 19 hhcurveto
          28 67 -3 -11 12 hvcurveto
          48 52 87 63 13 vhcurveto
          -20 32 -10 52 55 vvcurveto
          66 10 62 20 23 vhcurveto
          -20 -42 -147 -45 callgsubr
          -104 13 17 -47 hvcurveto
          endchar
        </CharString>
        <CharString name="copyright">
          410 -175 179 235 165 -12 203 336 194 268 180 hstemhm
          83 183 288 339 278 304 301 182 hintmask 1101111110000000
          -11 callsubr
          244 -296 rmoveto
          102 -10 154 -100 22 -85 rrcurveto
          19 31 77 18 120 hhcurveto
          108 67 -20 -17 35 hvcurveto
          hintmask 1011111110000000
          11 46 75 141 182 3 rrcurveto
          0 -19 63 37 vvcurveto
          48 8 58 11 18 vhcurveto
          -13 -37 -58 -8 -64 hhcurveto
          -63 -55 4 17 -46 hvcurveto
          hintmask 1101111110000000
          -170 -8 -33 -42 -100 hhcurveto
          -78 -59 98 174 216 66 39 71 88 58 -22 -159 -5 hvcurveto
          8 45 44 6 57 hhcurveto
          56 59 -6 -8 62 hvcurveto
          -8 25 -11 73 88 vvcurveto
          70 15 119 4 19 vhcurveto
          -68 -30 -147 14 -43 26 -7 -21 -10 -55 -30 -31 -31 29 -22 43 -10 42 rrcurveto
          -27 -31 -61 -9 -53 hhcurveto
          -114 -45 15 21 -28 hvcurveto
          -17 -77 -170 -124 -97 7 rrcurveto
          27 -25 17 -62 -68 vvcurveto
          -58 -24 -60 -56 -11 vhcurveto
          47 -6 30 -27 -47 vvcurveto
          -128 -21 -54 -20 -24 vhcurveto
          endchar
        </CharString>
        <CharString name="currency">
          68 31 -21 165 264 528 264 166 -20 hstem
          321 264 528 264 vstem
          156 287 rmoveto
          34 -14 59 -57 57 -56 56 -56 57 -60 14 -34 2 43 77 112 68 83 rrcurveto
          -46 78 92 -27 99 hhcurveto
          98 92 27 47 79 hvcurveto
          68 -83 77 -112 2 -42 14 33 57 59 56 57 56 57 60 56 34 14 -44 2 -112 77 -83 68 rrcurveto
          47 78 27 92 98 vvcurveto
          98 -28 92 -46 78 vhcurveto
          83 68 112 78 44 2 -34 14 -60 57 -56 56 -56 57 -57 59 -14 34 -2 -44 -78 -112 -68 -83 rrcurveto
          46 -78 -92 28 -98 hhcurveto
          -98 -92 -27 -47 -79 hvcurveto
          -67 83 -78 113 -2 44 -14 -34 -57 -60 -56 -56 -57 -56 -59 -57 -34 -14 43 -2 113 -78 83 -68 rrcurveto
          -47 -79 -27 -92 -98 vvcurveto
          -99 27 -92 46 -78 vhcurveto
          -83 -68 -112 -77 -43 -2 rrcurveto
          429 416 rmoveto
          146 118 118 146 146 118 -118 -146 -146 -118 -118 -146 -146 -118 118 146 vhcurveto
          endchar
        </CharString>
        <CharString name="d">
          -97 11 -21 35 225 580 215 0 295 285 -20 hstemhm
          157 416 404 369 -369 483 hintmask 11101101
          114 215 rmoveto
          148 -11 150 -121 45 -93 rrcurveto
          18 37 85 17 97 hhcurveto
          98 84 -17 -18 40 hvcurveto
          10 51 53 79 64 43 44 -46 31 -64 4 -53 rrcurveto
          12 43 56 13 75 hhcurveto
          63 91 -12 -13 38 hvcurveto
          -8 28 -2 56 49 vvcurveto
          49 4 49 6 29 vhcurveto
          hintmask 11011110
          -74 -50 43 110 hvcurveto
          122 vlineto
          -1 92 26 93 48 13 rrcurveto
          1 hlineto
          -59 20 -13 84 166 vvcurveto
          200 vlineto
          162 20 157 54 103 vhcurveto
          -126 -49 -416 8 -4 callgsubr
          -51 -51 vvcurveto
          -52 -9 -51 -11 -27 vhcurveto
          105 2 110 -36 callgsubr
          rrcurveto
          -258 vlineto
          -63 24 -47 46 -29 58 rrcurveto
          -18 -30 -86 -17 -88 hhcurveto
          -75 -73 12 23 -29 hvcurveto
          -45 -95 -150 -104 -148 -11 rrcurveto
          16 -35 27 -104 -188 vvcurveto
          -189 -27 -103 -16 -36 vhcurveto
          459 327 rmoveto
          hintmask 11101110
          -30 callsubr
          endchar
        </CharString>
        <CharString name="dagger">
          -612 -129 -21 1281 130 callgsubr
          348 1005 rmoveto
          -107 -22 -97 -47 -16 vhcurveto
          46 -13 23 -89 -86 vvcurveto
          -340 136 callgsubr
          4 callgsubr
          121 139 vvcurveto
          340 vlineto
          86 23 89 46 13 vhcurveto
          -47 16 -22 97 107 vvcurveto
          125 vlineto
          -1 callsubr
          -26 hlineto
          15 callsubr
          9 0 -1 9 hvcurveto
          endchar
        </CharString>
        <CharString name="daggerdbl">
          -612 -129 -21 795 252 234 130 callgsubr
          322 1383 rmoveto
          15 callsubr
          9 0 -1 9 hvcurveto
          -233 -26 vlineto
          15 callsubr
          7 0 -1 8 hvcurveto
          -7 -79 -22 -65 -37 -12 rrcurveto
          46 -13 23 -89 -86 vvcurveto
          -144 vlineto
          -79 -1 -80 -22 -147 vhcurveto
          4 callgsubr
          80 79 vvcurveto
          144 vlineto
          86 23 89 46 13 vhcurveto
          -38 12 -22 65 -7 79 rrcurveto
          1 9 8 0 9 hhcurveto
          90 61 -1 -22 72 hvcurveto
          -8 28 -7 40 85 vvcurveto
          45 5 62 10 38 vhcurveto
          -21 -72 -61 -2 -90 hhcurveto
          -28 233 hlineto
          -1 callsubr
          endchar
        </CharString>
        <CharString name="dcaron">
          407 11 -21 35 225 580 215 -84 -21 105 295 285 -20 25 -20 hstemhm
          185 416 404 369 -369 483 103 360 hintmask 0001001000100000
          1668 -51 callsubr
          hintmask 1110010101000000
          -1526 -725 rmoveto
          148 -11 150 -121 45 -93 rrcurveto
          18 37 85 17 97 hhcurveto
          98 84 -17 -18 40 hvcurveto
          10 51 53 79 64 43 44 -46 31 -64 4 -53 rrcurveto
          12 43 56 13 75 hhcurveto
          63 91 -12 -13 38 hvcurveto
          -8 28 -2 56 49 vvcurveto
          49 4 49 6 29 vhcurveto
          hintmask 1100110110000000
          -74 -50 43 110 hvcurveto
          122 vlineto
          -1 92 26 93 48 13 rrcurveto
          1 hlineto
          -59 20 -13 84 166 vvcurveto
          200 vlineto
          162 20 157 54 103 vhcurveto
          -126 -49 -416 8 -4 callgsubr
          -51 -51 vvcurveto
          -52 -9 -51 -11 -27 vhcurveto
          105 2 110 -36 callgsubr
          rrcurveto
          -258 vlineto
          -63 24 -47 46 -29 58 rrcurveto
          -18 -30 -86 -17 -88 hhcurveto
          -75 -73 12 23 -29 hvcurveto
          -45 -95 -150 -104 -148 -11 rrcurveto
          16 -35 27 -104 -188 vvcurveto
          -189 -27 -103 -16 -36 vhcurveto
          459 327 rmoveto
          hintmask 1110010110000000
          -30 callsubr
          endchar
        </CharString>
        <CharString name="dcroat">
          -76 11 -21 35 225 580 215 580 -20 hstemhm
          185 416 408 365 -365 479 hintmask 11111010
          142 215 rmoveto
          148 -11 150 -121 45 -93 rrcurveto
          18 37 85 17 97 hhcurveto
          98 84 -17 -18 40 hvcurveto
          10 51 53 79 64 43 44 -46 31 -64 4 -53 rrcurveto
          12 43 56 13 75 hhcurveto
          63 91 -12 -13 38 hvcurveto
          -8 28 -2 56 49 vvcurveto
          49 4 49 6 29 vhcurveto
          hintmask 11111100
          -74 -50 43 110 hvcurveto
          122 vlineto
          -1 92 26 93 48 13 rrcurveto
          1 hlineto
          -59 22 -13 93 136 vvcurveto
          91 70 -12 72 -21 vhcurveto
          -9 23 -6 47 63 vvcurveto
          31 5 76 10 28 vhcurveto
          -91 -30 -46 10 61 vvcurveto
          62 15 109 54 103 vhcurveto
          -126 -49 -416 8 44 callgsubr
          -22 8 -39 -39 vvcurveto
          -40 -9 -39 -11 -21 vhcurveto
          174 29 47 -32 -37 vvcurveto
          -70 -151 9 -72 21 vhcurveto
          10 -20 5 -52 -23 vvcurveto
          -41 -7 -39 -8 -13 vhcurveto
          72 19 147 0 -96 vvcurveto
          -103 vlineto
          -63 24 -47 46 -29 58 rrcurveto
          -18 -30 -86 -17 -88 hhcurveto
          -75 -73 12 23 -29 hvcurveto
          -45 -95 -150 -104 -148 -11 rrcurveto
          16 -35 27 -104 -188 vvcurveto
          -189 -27 -103 -16 -36 vhcurveto
          459 327 rmoveto
          -30 callsubr
          endchar
        </CharString>
        <CharString name="degree">
          -443 736 -21 28 159 -47 414 -24 160 28 -20 hstemhm
          191 274 266 266 hintmask 11011110
          411 715 rmoveto
          14 25 77 14 79 hhcurveto
          81 74 -14 -14 30 hvcurveto
          hintmask 10101110
          68 22 151 72 75 hhcurveto
          -20 26 -8 86 101 vvcurveto
          103 15 64 13 34 vhcurveto
          -75 5 -146 75 -25 84 rrcurveto
          hintmask 11011110
          -14 -22 -78 -14 -77 hhcurveto
          -89 -78 9 19 -26 hvcurveto
          hintmask 10101110
          -25 -84 -141 -75 -80 -5 rrcurveto
          12 -36 16 -62 -106 vvcurveto
          -102 -13 -82 -15 -26 vhcurveto
          73 144 -59 -81 31 hvcurveto
          hintmask 11011110
          187 187 rmoveto
          -56 -77 48 129 109 58 57 75 75 58 -57 -109 -129 -77 -48 -56 hvcurveto
          endchar
        </CharString>
        <CharString name="dieresis">
          -272 1235 -21 23 320 27 -20 hstem
          147 68 callsubr
          vstem
          751 1214 -106 callgsubr
        </CharString>
        <CharString name="dieresis.cap">
          -611 1661 -21 23 320 27 -20 hstem
          -2 68 callsubr
          vstem
          602 1640 -106 callgsubr
        </CharString>
        <CharString name="divide">
          -272 21 -21 25 375 165 242 158 375 30 -20 hstem
          461 445 vstem
          432 940 rmoveto
          -36 callsubr
          46 -8 76 88 vvcurveto
          92 8 90 17 38 112 callsubr
          17 -37 13 -90 -93 vvcurveto
          -101 -13 -73 -16 -36 vhcurveto
          -313 -398 rmoveto
          22 102 91 1 130 hhcurveto
          476 hlineto
          130 91 -2 -21 102 hvcurveto
          -9 21 -6 57 65 vvcurveto
          36 6 79 9 30 vhcurveto
          -21 -102 -91 -2 -130 hhcurveto
          -476 hlineto
          55 callsubr
          -30 5 -79 -36 vvcurveto
          -65 -7 -57 -8 -21 vhcurveto
          313 -542 rmoveto
          -36 callsubr
          46 -8 76 88 vvcurveto
          92 8 90 17 38 112 callsubr
          17 -37 13 -90 -93 vvcurveto
          -101 -13 -73 -16 -36 vhcurveto
          endchar
        </CharString>
        <CharString name="dollar">
          71 -258 478 -472 -21 298 -40 callsubr
          330 -20 hstemhm
          233 69 callgsubr
          -82 459 -231 231 123 33 callgsubr
          hintmask 0110101011001100
          223 hmoveto
          14 33 53 11 52 hhcurveto
          63 78 -13 -12 20 hvcurveto
          6 28 13 35 36 27 35 -28 25 -41 12 -41 33 19 44 12 50 7 -8 -115 -17 -147 -26 -29 rrcurveto
          hintmask 1000101011001100
          31 12 61 4 74 -1 rrcurveto
          hintmask 0110101011001100
          70 -1 82 -4 22 -10 -26 36 -17 145 -8 113 94 -8 61 -15 29 -18 6 95 214 190 114 -7 rrcurveto
          hintmask 1000101011001010
          -21 36 -12 98 109 vvcurveto
          87 15 89 32 13 vhcurveto
          -114 -7 -129 142 -7 83 rrcurveto
          hintmask 1000010110101001
          -62 callsubr
          10 45 53 5 57 hhcurveto
          59 61 -3 -12 66 hvcurveto
          -7 32 -11 94 116 vvcurveto
          83 14 108 4 22 vhcurveto
          -13 -41 -49 -7 -46 hhcurveto
          -23 -50 8 12 -20 hvcurveto
          -7 -28 -13 -42 -35 -29 -35 31 -26 47 -11 41 rrcurveto
          hintmask 1000101011001100
          -35 -20 -49 -16 -56 -10 7 116 21 179 30 41 -22 -10 -71 -4 -70 -1 -74 -1 -66 4 -31 12 30 -33 11 -189 4 -118 rrcurveto
          hintmask 1000101010010100
          -112 10 -86 22 -30 18 -6 -95 -214 -200 -114 7 rrcurveto
          hintmask 1000101011001100
          21 -36 12 -98 -109 vvcurveto
          -87 -15 -89 -32 -13 vhcurveto
          114 7 112 -132 6 -83 rrcurveto
          hintmask 1000010111001100
          -64 callsubr
          hintmask 0101010111001100
          -54 callgsubr
          endchar
        </CharString>
        <CharString name="dotaccent">
          -952 1221 11 callgsubr
          139 435 hintmask 01110000
          110 1201 rmoveto
          hintmask 10110000
          -26 callgsubr
          hintmask 01110000
          -59 callgsubr
          hintmask 10110000
          -20 -42 -102 -45 callgsubr
          -99 13 17 -47 hvcurveto
          17 -32 13 -73 -85 vvcurveto
          hintmask 01110000
          14 callsubr
        </CharString>
        <CharString name="dotaccent.cap">
          -924 1615 11 callsubr
          139 435 hintmask 01110000
          110 1595 rmoveto
          hintmask 10110000
          -26 callgsubr
          hintmask 01110000
          -15 callsubr
          87 84 vvcurveto
          84 8 82 17 34 vhcurveto
          hintmask 10110000
          -20 -42 -102 -45 callgsubr
          -99 47 callsubr
          hintmask 01110000
          -7 callgsubr
          endchar
        </CharString>
        <CharString name="dotlessi">
          72 callgsubr
          hstem
          314 366 vstem
          -100 callgsubr
          endchar
        </CharString>
        <CharString name="dotlessj">
          -776 126 callsubr
          1267 -20 hstem
          393 282 vstem
          51 -136 rmoveto
          -82 -83 4 12 -33 hvcurveto
          11 -46 7 -89 -89 vvcurveto
          -73 -4 -87 -14 -46 vhcurveto
          20 54 69 10 88 hhcurveto
          81 153 125 callgsubr
          186 126 173 -17 rrcurveto
          -61 56 -26 319 134 vvcurveto
          100 0 137 60 16 vhcurveto
          -54 18 -7 26 177 vvcurveto
          162 9 167 54 103 vhcurveto
          -25 callgsubr
          -2 -4 callgsubr
          -51 -51 vvcurveto
          -52 -9 -51 -11 -27 vhcurveto
          105 2 63 -36 callgsubr
          rrcurveto
          -36 vlineto
          -139 -10 -29 -48 -24 vhcurveto
          46 -12 10 -65 -83 vvcurveto
          -81 3 -170 -18 -23 vhcurveto
          59 14 48 -21 -80 vvcurveto
          78 callsubr
          -8 -18 -82 -16 -82 hhcurveto
          endchar
        </CharString>
        <CharString name="e">
          -50 callgsubr
          hstemhm
          165 342 386 356 hintmask 11011111
          -69 callsubr
          hintmask 10111111
          -75 callgsubr
          hintmask 11011111
          -103 callgsubr
          endchar
        </CharString>
        <CharString name="eacute">
          -50 callgsubr
          150 420 -419 -21 465 46 callsubr
          hintmask 1101110001100000
          -69 callsubr
          hintmask 1011110001100000
          -75 callgsubr
          hintmask 1101110001100000
          -103 callgsubr
          hintmask 0000000110000000
          -240 512 rmoveto
          hintmask 0000001010000000
          62 callgsubr
          hintmask 0000000110000000
          -57 callgsubr
          hintmask 0000001010000000
          -56 callgsubr
          hintmask 0000000110000000
          -24 callgsubr
        </CharString>
        <CharString name="ebreve">
          -50 callgsubr
          104 55 callgsubr
          165 342 -215 127 callgsubr
          -221 356 hintmask 1101110001001000
          -69 callsubr
          hintmask 1011110001001000
          -75 callgsubr
          hintmask 1101110001001000
          -103 callgsubr
          hintmask 0000001010110000
          -71 486 rmoveto
          hintmask 0000000110110000
          -72 callsubr
          hintmask 0000001010110000
          -18 callgsubr
          hintmask 0000000110110000
          -14 -21 -63 -13 -60 hhcurveto
          -70 -58 12 15 -25 -47 callgsubr
          hintmask 0000001010110000
          26 callsubr
        </CharString>
        <CharString name="ecaron">
          -50 callgsubr
          121 -21 25 425 15 46 callsubr
          hintmask 1101110001100000
          -69 callsubr
          hintmask 1011110001100000
          -75 callgsubr
          hintmask 1101110001100000
          -103 callgsubr
          hintmask 0000001100000000
          -256 482 -22 callgsubr
        </CharString>
        <CharString name="ecircumflex">
          -50 callgsubr
          115 425 -419 -21 465 46 callsubr
          hintmask 1101110001100000
          -69 callsubr
          hintmask 1011110001100000
          -75 callgsubr
          hintmask 1101110001100000
          -103 callgsubr
          hintmask 0000000110000000
          -568 482 rmoveto
          hintmask 0000001010000000
          37 callgsubr
          hintmask 0000000110000000
          -66 callsubr
          hintmask 0000001010000000
          36 callgsubr
          hintmask 0000000110000000
          -48 callgsubr
          hintmask 0000001010000000
          -35 callgsubr
          hintmask 0000000110000000
          -22 callsubr
        </CharString>
        <CharString name="edieresis">
          -50 callgsubr
          175 -21 23 320 27 70 callgsubr
          -317 68 callsubr
          -327 356 hintmask 1101110001001000
          -69 callsubr
          hintmask 1011110001001000
          -75 callgsubr
          hintmask 1101110001001000
          -103 callgsubr
          hintmask 0000001110110000
          20 536 -106 callgsubr
        </CharString>
        <CharString name="edotaccent">
          -50 callgsubr
          161 11 callgsubr
          165 342 -19 435 -30 356 hintmask 1101110001010000
          -69 callsubr
          hintmask 1011110001010000
          -75 callgsubr
          hintmask 1101110001010000
          -103 callgsubr
          hintmask 0000000110100000
          -315 523 rmoveto
          hintmask 0000001010100000
          -26 callgsubr
          hintmask 0000000110100000
          -59 callgsubr
          hintmask 0000001010100000
          -20 -42 -102 -45 callgsubr
          -99 13 17 -47 hvcurveto
          17 -32 13 -73 -85 vvcurveto
          hintmask 0000000110100000
          14 callsubr
        </CharString>
        <CharString name="egrave">
          -50 callgsubr
          150 420 -419 -21 465 46 callsubr
          hintmask 1101110001100000
          -69 callsubr
          hintmask 1011110001100000
          -75 callgsubr
          hintmask 1101110001100000
          -103 callgsubr
          hintmask 0000000110000000
          -240 512 rmoveto
          hintmask 0000001010000000
          12 21 52 8 83 hhcurveto
          hintmask 0000000110000000
          -17 callsubr
          hintmask 0000001010000000
          -17 callgsubr
          hintmask 0000000110000000
          7 callgsubr
        </CharString>
        <CharString name="eight">
          -103 11 -21 37 193 5 413 -23 216 389 132 callsubr
          95 439 -391 417 418 407 -407 455 hintmask 1110111001000000
          57 225 rmoveto
          112 207 -134 -101 52 hvcurveto
          20 38 160 17 137 hhcurveto
          137 162 -17 -20 38 hvcurveto
          101 52 208 134 112 hhcurveto
          -26 49 -13 107 94 vvcurveto
          71 5 64 16 28 vhcurveto
          -57 -139 42 74 -64 hvcurveto
          66 70 89 44 62 20 rrcurveto
          hintmask 1110110110000000
          -19 37 -7 89 85 vvcurveto
          75 10 72 16 29 vhcurveto
          -116 1 -158 98 -32 76 rrcurveto
          -22 -42 -159 -23 -140 hhcurveto
          -140 -159 23 22 -43 hvcurveto
          -31 -76 -158 -98 -117 -1 rrcurveto
          17 -29 10 -72 -75 vvcurveto
          -85 -7 -89 -20 -37 vhcurveto
          62 -20 89 -44 66 -70 rrcurveto
          -74 -63 -138 -42 -58 hhcurveto
          hintmask 1110111010000000
          15 -28 6 -64 -71 vvcurveto
          -94 -13 -107 -25 -49 vhcurveto
          hintmask 1101110110000000
          707 606 rmoveto
          -121 -83 38 159 115 66 77 138 145 69 -77 -115 -159 -85 -38 -129 hvcurveto
          hintmask 1101111010000000
          -230 -418 rmoveto
          145 83 57 147 147 82 -57 -145 -150 -99 -43 -130 -131 -99 43 150 vhcurveto
          endchar
        </CharString>
        <CharString name="ellipsis">
          408 21 -21 25 102 callgsubr
          235 445 235 445 cntrmask 00011100
          1451 12 callsubr
          -680 12 callsubr
          -680 12 callsubr
          endchar
        </CharString>
        <CharString name="emacron">
          -50 callgsubr
          223 -21 23 237 27 46 callsubr
          hintmask 1101110001100000
          -69 callsubr
          hintmask 1011110001100000
          -75 callgsubr
          hintmask 1101110001100000
          -103 callgsubr
          hintmask 0000001110000000
          -515 584 -98 callsubr
        </CharString>
        <CharString name="emdash">
          579 493 -21 23 322 23 -20 hstem
          94 472 rmoveto
          22 177 166 1 230 hhcurveto
          876 hlineto
          230 166 -1 -22 177 109 callgsubr
          -177 -166 -2 -230 hhcurveto
          -876 hlineto
          -230 -166 2 21 -177 34 callgsubr
        </CharString>
        <CharString name="endash">
          -442 493 -21 23 322 23 -20 hstem
          84 472 rmoveto
          22 93 82 1 118 hhcurveto
          436 hlineto
          118 82 -1 -22 93 109 callgsubr
          -93 -82 -2 -118 hhcurveto
          -436 hlineto
          -118 -82 2 21 -93 34 callgsubr
        </CharString>
        <CharString name="eng">
          72 -529 -21 30 238 -238 327 218 235 518 267 35 -20 hstemhm
          325 372 -34 357 181 257 hintmask 1101111010000000
          135 -85 callsubr
          -1 223 rlineto
          1 hlineto
          137 182 41 66 98 41 -90 -96 -139 -10 -69 -48 -24 vhcurveto
          46 -12 10 -105 -83 vvcurveto
          -81 -7 -78 -25 -33 vhcurveto
          83 20 67 -29 -112 vvcurveto
          -80 -29 -49 -70 vhcurveto
          hintmask 1011110110000000
          -54 -28 42 63 hvcurveto
          -12 -25 -80 -4 -82 hhcurveto
          -82 -83 4 12 -33 hvcurveto
          11 -46 17 -49 -89 vvcurveto
          -73 -14 -70 -14 -46 vhcurveto
          20 54 69 10 88 hhcurveto
          81 70 125 callgsubr
          269 69 173 -17 rrcurveto
          -61 56 -26 269 134 vvcurveto
          100 11 177 51 16 vhcurveto
          -54 20 -9 34 177 vvcurveto
          1 144 22 66 43 52 -66 callgsubr
          -15 -58 -29 -109 -117 -37 -12 62 -10 70 21 62 -126 -49 -279 6 -61 callgsubr
          hintmask 1101111010000000
          105 2 63 -36 callgsubr
          rrcurveto
          65 callgsubr
          -42 -94 callgsubr
          endchar
        </CharString>
        <CharString name="eogonek">
          -268 71 callsubr
          198 180 -122 122 293 180 189 178 35 -20 hstemhm
          167 340 -12 334 65 365 -260 260 hintmask 1010101110110000
          111 166 rmoveto
          123 10 179 -112 27 -74 rrcurveto
          15 43 137 20 97 hhcurveto
          18 16 0 -1 15 hvcurveto
          -72 -54 -96 -80 -141 hhcurveto
          14 -35 6 -42 -84 vvcurveto
          -64 -8 -61 -12 -25 -2 callgsubr
          hintmask 1100101111010000
          28 callsubr
          hintmask 1001101111001000
          -38 callgsubr
          hintmask 1100011110110000
          58 callgsubr
          133 190 303 -4 vhcurveto
          -10 31 -5 40 65 vvcurveto
          38 6 78 6 27 vhcurveto
          -11 -36 -77 -6 -56 hhcurveto
          -56 -124 4 11 -33 hvcurveto
          -99 -26 -56 -112 vhcurveto
          hintmask 1100101111010000
          -130 -105 68 105 70 20 50 136 hvcurveto
          249 hlineto
          132 143 -2 -11 74 hvcurveto
          -10 27 -11 82 90 vvcurveto
          132 15 64 20 45 vhcurveto
          -82 3 -165 60 -46 92 rrcurveto
          -22 -43 -96 -13 -103 hhcurveto
          -148 -112 10 25 -74 hvcurveto
          -23 -85 -153 -134 -118 -1 rrcurveto
          40 -47 15 -186 -109 vvcurveto
          -105 -3 -182 -53 -65 vhcurveto
          397 512 rmoveto
          146 9 69 43 143 hhcurveto
          114 51 -46 -62 -68 -16 -13 -107 hvcurveto
          endchar
        </CharString>
        <CharString name="equal">
          -272 301 135 callsubr
          hstem
          119 760 rmoveto
          -57 callsubr
          -480 vmoveto
          -57 callsubr
          endchar
        </CharString>
        <CharString name="eth">
          -103 112 callgsubr
          57 -20 hstemhm
          162 396 404 375 -348 276 hintmask 11111110
          127 230 rmoveto
          130 -19 186 -140 32 -81 rrcurveto
          17 34 114 28 112 hhcurveto
          113 118 -24 -21 38 hvcurveto
          22 58 160 144 191 16 rrcurveto
          -19 29 -21 152 152 vvcurveto
          97 28 88 45 8 vhcurveto
          hintmask 11111101
          -93 84 -52 132 147 vvcurveto
          46 5 48 11 48 vhcurveto
          -41 2 -95 63 -45 54 46 46 112 79 42 16 -41 15 -52 66 -49 77 -5 -39 -112 -95 -66 -48 -57 25 -44 69 -12 56 rrcurveto
          -18 -50 -88 -7 -72 hhcurveto
          -90 -70 7 18 -81 hvcurveto
          13 -33 13 -68 -55 vvcurveto
          -61 -7 -57 -11 -32 vhcurveto
          18 66 95 10 77 hhcurveto
          52 43 -7 -18 12 hvcurveto
          -33 -42 -114 -68 -32 -13 55 -36 39 -57 24 -42 rrcurveto
          33 26 132 100 32 hhcurveto
          38 58 -136 -94 -8 0 -7 -1 -8 hvcurveto
          -56 12 -77 45 -21 40 rrcurveto
          -18 -38 -82 -7 -107 hhcurveto
          -98 -79 9 9 -26 hvcurveto
          -111 -22 -184 -90 -71 hhcurveto
          17 -42 18 -141 -133 vvcurveto
          -135 -14 -89 -21 -63 vhcurveto
          644 1105 rmoveto
          2 7 rlineto
          -2 -1 -3 -1 -2 vhcurveto
          -213 -825 rmoveto
          249 82 65 120 vhcurveto
          hintmask 11111110
          120 82 -15 -249 -265 -82 -75 -120 -120 -82 25 265 hvcurveto
          endchar
        </CharString>
</ttFont>
